<svg width="125" height="125" viewBox="0 0 700 700" xmlns="http://www.w3.org/2000/svg"><path d="m595.84 360.64-20.16-67.199c10.082-19.602 15.121-41.441 15.121-63.84 0-80.078-65.52-145.6-145.6-145.6-67.762 0-124.88 46.48-141.12 109.2-15.68-5.602-31.922-8.398-49.281-8.398-80.078 0-145.6 65.52-145.6 145.6 0 22.398 5.04 44.238 15.121 63.84l-20.16 67.199c-1.121 3.921 0 8.398 2.8 11.199 2.24 2.242 5.04 3.363 7.84 3.363 1.122 0 2.239 0 3.36-.559l63.84-19.043c22.398 12.88 47.039 19.602 72.801 19.602 67.762 0 124.88-46.48 141.12-109.2 15.68 5.602 31.922 8.399 49.281 8.399 25.762 0 50.398-6.72 72.801-19.602l63.84 19.039c1.121 0 2.238.558 3.36.558 2.8 0 5.601-1.12 7.84-3.36 2.796-2.796 3.917-7.276 2.796-11.194zM254.8 453.601c-22.961 0-45.922-6.719-65.52-19.039-1.68-1.121-3.922-1.68-6.16-1.68-1.121 0-2.238 0-3.36.559L131.6 448l15.121-51.52c.559-2.8.559-5.602-1.12-8.399-8.962-17.922-14-37.523-14-57.684 0-67.762 55.44-123.2 123.2-123.2 67.761 0 123.2 55.441 123.2 123.2 0 67.762-55.442 123.2-123.2 123.2zm264.88-120.96c-2.8-1.121-6.16-.559-8.96 1.121-19.599 12.316-42.56 19.04-65.52 19.04-16.239 0-31.36-3.36-45.36-8.962.559-4.48.559-8.96.559-13.44 0-54.88-30.801-102.48-75.602-127.68 12.324-54.88 61.602-96.32 120.4-96.32 67.762 0 123.2 55.44 123.2 123.2 0 20.16-5.04 39.761-14.56 57.68-1.12 2.8-1.679 5.6-1.12 8.398l15.68 51.523zM210 330.399c0 6.16-5.04 11.199-11.199 11.199-6.16 0-11.199-5.04-11.199-11.2 0-6.16 5.04-11.198 11.199-11.198 6.16 0 11.199 5.039 11.199 11.199zm56 0c0 6.16-5.04 11.199-11.199 11.199-6.16 0-11.199-5.04-11.199-11.2 0-6.16 5.04-11.198 11.199-11.198 6.16 0 11.199 5.039 11.199 11.199zm56 0c0 6.16-5.04 11.199-11.199 11.199-6.16 0-11.199-5.04-11.199-11.2 0-6.16 5.04-11.198 11.199-11.198 6.16 0 11.199 5.039 11.199 11.199z"/></svg>