<svg width="125" height="125" viewBox="0 0 700 700" xmlns="http://www.w3.org/2000/svg"><path d="M136.14 235.11a5.603 5.603 0 0 0 6.734-4.168 212.173 212.173 0 0 1 4.41-15.883 5.6 5.6 0 0 0-3.624-7.043c-2.942-.926-6.098.684-7.04 3.621a220.851 220.851 0 0 0-4.644 16.734 5.602 5.602 0 0 0 4.164 6.738zm-2.69 74.02a5.594 5.594 0 0 0-4.644 6.41 222.655 222.655 0 0 0 3.398 17.023 5.598 5.598 0 0 0 5.437 4.293c.434 0 .875-.05 1.317-.152a5.598 5.598 0 0 0 4.133-6.754 212.965 212.965 0 0 1-3.23-16.172c-.485-3.059-3.376-5.156-6.411-4.648zm32.4-146.72a5.598 5.598 0 0 0-7.688 1.89 222.386 222.386 0 0 0-8.406 15.204 5.602 5.602 0 0 0 5 8.117 5.592 5.592 0 0 0 5.008-3.086c2.457-4.89 5.145-9.75 7.98-14.438a5.602 5.602 0 0 0-1.894-7.688zm406.6 91.1c-.36-3.074-3.215-5.262-6.219-4.906a5.602 5.602 0 0 0-4.906 6.219 216.472 216.472 0 0 1 1.3 16.445 5.601 5.601 0 0 0 5.595 5.375c.074 0 .152 0 .23-.004a5.598 5.598 0 0 0 5.367-5.82 226.994 226.994 0 0 0-1.367-17.31zM131.6 286.54a5.599 5.599 0 0 0 5.602-5.602l-.004-.937c0-5.48.21-11.023.629-16.488a5.603 5.603 0 0 0-5.157-6.012c-3.085-.27-5.773 2.074-6.011 5.156a229.35 229.35 0 0 0-.66 17.344v.942a5.598 5.598 0 0 0 5.601 5.598zM264.18 486.5a5.6 5.6 0 0 0 5.152-3.402c1.22-2.844-.105-6.13-2.949-7.352a209.764 209.764 0 0 1-14.906-7.07 5.588 5.588 0 0 0-7.558 2.363 5.596 5.596 0 0 0 2.363 7.559 220.302 220.302 0 0 0 15.699 7.453 5.636 5.636 0 0 0 2.199.449zm-114-105.17a5.606 5.606 0 0 0 7.531 2.457 5.604 5.604 0 0 0 2.457-7.531 212.41 212.41 0 0 1-6.89-14.97 5.6 5.6 0 0 0-10.348 4.286 225.095 225.095 0 0 0 7.25 15.758zm314.42 84.71a5.602 5.602 0 0 0-7.66-2.023 213.319 213.319 0 0 1-14.551 7.738 5.594 5.594 0 0 0-2.613 7.473 5.606 5.606 0 0 0 5.046 3.168 5.52 5.52 0 0 0 2.43-.559 222.244 222.244 0 0 0 15.328-8.144 5.596 5.596 0 0 0 2.02-7.653zm38.86-349.21a5.599 5.599 0 0 0-7.914.242 5.603 5.603 0 0 0 .242 7.918c4 3.762 7.89 7.715 11.562 11.754a5.585 5.585 0 0 0 4.145 1.832 5.58 5.58 0 0 0 3.77-1.46 5.596 5.596 0 0 0 .37-7.907 225.859 225.859 0 0 0-12.176-12.379zm-333.95 286.3a5.596 5.596 0 0 0-1.266 7.816 222.53 222.53 0 0 0 10.691 13.668 5.569 5.569 0 0 0 4.278 1.985 5.59 5.59 0 0 0 3.613-1.324c2.36-2 2.656-5.536.656-7.891a214.935 214.935 0 0 1-10.156-12.988c-1.804-2.512-5.304-3.074-7.816-1.266zm28.43-280c-2.21-2.172-5.754-2.121-7.918.078a226.599 226.599 0 0 0-11.672 12.863 5.598 5.598 0 0 0 4.285 9.2c1.598 0 3.188-.68 4.293-2a214.88 214.88 0 0 1 11.086-12.22 5.602 5.602 0 0 0-.074-7.922zm355.27 76.48a5.6 5.6 0 0 0-3.332 7.188 212.71 212.71 0 0 1 5.063 15.69 5.601 5.601 0 0 0 10.785-3.019 222.202 222.202 0 0 0-5.332-16.52 5.614 5.614 0 0 0-7.184-3.34zm11.24 127.56a5.597 5.597 0 0 0 5.492-4.543 227.409 227.409 0 0 0 2.621-17.156 5.595 5.595 0 0 0-4.933-6.191c-3.067-.368-5.848 1.855-6.196 4.933a217.594 217.594 0 0 1-2.488 16.301 5.604 5.604 0 0 0 4.442 6.559c.359.066.714.097 1.062.097zm-353.8 113.67a5.605 5.605 0 0 0-7.898.563 5.603 5.603 0 0 0 .566 7.902 227.853 227.853 0 0 0 13.543 10.855 5.58 5.58 0 0 0 3.328 1.097 5.601 5.601 0 0 0 3.34-10.101 215.873 215.873 0 0 1-12.88-10.316zM350 504c4.598-.004 9.219-.148 13.746-.422a5.6 5.6 0 0 0 5.25-5.93c-.188-3.09-2.82-5.468-5.93-5.25-4.3.258-8.699.395-13.07.403l-3.437-.028c-3.078.043-5.637 2.43-5.68 5.524a5.6 5.6 0 0 0 5.52 5.676zm-36.25-14.27a213.602 213.602 0 0 1-16.133-3.422 5.6 5.6 0 0 0-6.805 4.059 5.601 5.601 0 0 0 4.051 6.804 223.873 223.873 0 0 0 16.984 3.598 5.602 5.602 0 0 0 6.465-4.566 5.591 5.591 0 0 0-4.563-6.473z"/><path d="M238.17 92.289c-1.652-2.613-5.121-3.394-7.723-1.746a225.099 225.099 0 0 0-14.062 9.664h-45.848a5.601 5.601 0 1 0 0 11.203h43.2v43.2a5.601 5.601 0 1 0 11.202 0l-.003-46.75c3.757-2.731 7.597-5.38 11.496-7.84a5.602 5.602 0 0 0 1.738-7.731zm172.6-16.285c5.266 1.57 10.52 3.36 15.617 5.32a5.603 5.603 0 0 0 7.234-3.215 5.609 5.609 0 0 0-3.218-7.242 225.843 225.843 0 0 0-16.438-5.594 5.598 5.598 0 1 0-3.195 10.73zM398.11 498.82a222.336 222.336 0 0 0 16.805-4.371 5.596 5.596 0 0 0 3.742-6.977c-.89-2.965-4.023-4.633-6.976-3.742a212.135 212.135 0 0 1-15.961 4.152 5.597 5.597 0 0 0-4.274 6.668 5.601 5.601 0 0 0 5.465 4.403 6.03 6.03 0 0 0 1.2-.133zM311.85 70.523c.324 0 .648-.027.98-.086 5.395-.953 10.891-1.7 16.336-2.227a5.601 5.601 0 0 0 5.036-6.113 5.588 5.588 0 0 0-6.114-5.031 218.4 218.4 0 0 0-17.203 2.348 5.599 5.599 0 0 0-4.543 6.484 5.593 5.593 0 0 0 5.508 4.625zM546.79 374.99a5.61 5.61 0 0 0 7.41-2.797 221.486 221.486 0 0 0 6.54-16.102 5.597 5.597 0 0 0-3.368-7.168c-2.906-1.07-6.117.45-7.168 3.363a210.433 210.433 0 0 1-6.21 15.29 5.603 5.603 0 0 0 2.796 7.413zM263.33 85.07a5.58 5.58 0 0 0 2.219-.46 209.78 209.78 0 0 1 15.363-5.946 5.603 5.603 0 0 0 3.488-7.114c-1.004-2.925-4.191-4.468-7.113-3.484a223.775 223.775 0 0 0-16.184 6.262 5.606 5.606 0 0 0-2.918 7.367 5.608 5.608 0 0 0 5.144 3.375zm272.54 309.8a5.597 5.597 0 0 0-7.75 1.617 213.423 213.423 0 0 1-9.57 13.438 5.607 5.607 0 0 0 1.008 7.86 5.609 5.609 0 0 0 7.855-1.012 226.7 226.7 0 0 0 10.074-14.148 5.606 5.606 0 0 0-1.617-7.754zm7.92-215.85a5.597 5.597 0 0 0 2.176-7.613 225.203 225.203 0 0 0-9.008-14.836c-1.703-2.582-5.172-3.286-7.762-1.582a5.606 5.606 0 0 0-1.582 7.761 215.892 215.892 0 0 1 8.559 14.094 5.593 5.593 0 0 0 7.617 2.176zM362.13 67.535a209.82 209.82 0 0 1 16.41 1.563 5.601 5.601 0 0 0 1.5-11.102 224.62 224.62 0 0 0-17.285-1.64c-3.027-.15-5.727 2.187-5.902 5.277a5.593 5.593 0 0 0 5.277 5.902zm111.14 37.755c1.79 0 3.547-.852 4.629-2.445a5.595 5.595 0 0 0-1.465-7.781 229.631 229.631 0 0 0-14.69-9.243 5.602 5.602 0 0 0-7.653 2.051 5.61 5.61 0 0 0 2.05 7.652 219.88 219.88 0 0 1 13.978 8.793 5.596 5.596 0 0 0 3.152.973zm6.7 296.04a5.599 5.599 0 0 0-5.602 5.602v48.797a5.601 5.601 0 0 0 5.602 5.601h48.797a5.601 5.601 0 1 0 0-11.203h-33.105c2.895-2.484 5.754-5.012 8.488-7.606a5.6 5.6 0 1 0-7.703-8.125c-3.473 3.29-7.152 6.465-10.875 9.547v-37.008a5.602 5.602 0 0 0-5.601-5.605zM350 165.63c-63.016 0-114.28 51.27-114.28 114.29S286.986 394.2 350 394.2s114.28-51.266 114.28-114.28S413.014 165.63 350 165.63zm-63.047 195.66c.445-27.527 18.273-51.289 44.695-59.309a5.592 5.592 0 0 0 3.941-4.79 5.596 5.596 0 0 0-2.89-5.483c-12.605-6.868-20.438-20.04-20.438-34.368 0-21.562 17.539-39.102 39.098-39.102 21.562 0 39.098 17.54 39.098 39.102 0 14.762-8.203 28.11-21.41 34.832a5.597 5.597 0 0 0-3.043 5.415 5.599 5.599 0 0 0 3.824 4.894 62.946 62.946 0 0 1 43.219 58.812C395.598 374.84 373.754 383 350 383s-45.598-8.16-63.047-21.71zm136.61-9.3a74.11 74.11 0 0 0-40.102-55.954c11.426-9.433 18.195-23.477 18.195-38.695 0-27.738-22.562-50.3-50.301-50.3-27.734-.005-50.297 22.561-50.297 50.296a50.295 50.295 0 0 0 17.148 37.832c-22.711 10.656-38.355 31.926-41.781 56.816-18.227-18.602-29.512-44.03-29.512-72.07 0-56.844 46.242-103.09 103.08-103.09s103.08 46.242 103.08 103.09c0 28.043-11.285 53.473-29.516 72.074z"/></svg>