<svg width="125" height="125" viewBox="0 0 700 700" xmlns="http://www.w3.org/2000/svg"><path d="M471.8 240.85h43.625c2.629 13.633 14.617 23.973 29.004 23.973 16.305 0 29.57-13.266 29.57-29.57s-13.266-29.57-29.57-29.57c-14.387 0-26.375 10.34-29.004 23.969H471.8v-65.848a5.601 5.601 0 0 0-5.602-5.602h-6.386v-14.934a5.601 5.601 0 1 0-11.204 0l.004 14.934h-18.69v-14.934a5.601 5.601 0 1 0-11.204 0v14.934h-18.37v-27.824c13.632-2.629 23.968-14.617 23.968-29.008 0-16.305-13.266-29.57-29.57-29.57-16.305 0-29.57 13.266-29.57 29.57 0 14.387 10.34 26.38 23.973 29.008l.004 27.824h-18.648v-14.934a5.601 5.601 0 1 0-11.203 0v14.934h-18.648v-14.934a5.601 5.601 0 1 0-11.203 0l.004 14.934H310.85v-43.625c13.633-2.629 23.973-14.617 23.973-29.004 0-16.305-13.266-29.57-29.57-29.57s-29.57 13.266-29.57 29.57c0 14.387 10.34 26.375 23.969 29.004v43.625H280.96v-14.934a5.601 5.601 0 1 0-11.204 0l.004 14.934h-18.688v-14.934a5.601 5.601 0 1 0-11.203 0v14.934h-6.066a5.601 5.601 0 0 0-5.602 5.602v65.848h-43.625c-2.629-13.633-14.617-23.969-29.004-23.969-16.305 0-29.57 13.266-29.57 29.57s13.266 29.57 29.57 29.57c14.387 0 26.375-10.34 29.004-23.973h43.625v78.301h-43.625c-2.629-13.633-14.617-23.973-29.004-23.973-16.305.004-29.57 13.27-29.57 29.574s13.266 29.57 29.57 29.57c14.387 0 26.375-10.34 29.004-23.969h43.625v65.848a5.601 5.601 0 0 0 5.602 5.602h6.386v14.934a5.601 5.601 0 1 0 11.204 0l-.004-14.934h18.69v14.934a5.601 5.601 0 1 0 11.204 0v-14.934h18.37v27.824c-13.632 2.628-23.968 14.617-23.968 29.008 0 16.305 13.266 29.57 29.57 29.57 16.305 0 29.57-13.266 29.57-29.57 0-14.387-10.34-26.38-23.973-29.008l-.004-27.824h18.648v14.934a5.601 5.601 0 1 0 11.203 0v-14.934h18.648v14.934a5.601 5.601 0 1 0 11.203 0l-.003-14.934h18.605v43.625c-13.633 2.628-23.973 14.617-23.973 29.004 0 16.305 13.266 29.57 29.57 29.57s29.57-13.266 29.57-29.57c0-14.387-10.34-26.375-23.97-29.004v-43.625h18.692v14.934a5.601 5.601 0 1 0 11.203 0l-.004-14.934h18.688v14.934a5.601 5.601 0 1 0 11.203 0v-14.934h6.066a5.601 5.601 0 0 0 5.602-5.602v-65.848h43.625c2.629 13.633 14.617 23.969 29.004 23.969 16.305 0 29.57-13.266 29.57-29.57s-13.266-29.57-29.57-29.57c-14.387 0-26.375 10.34-29.004 23.973H471.8zm72.629-23.969c10.129 0 18.371 8.242 18.371 18.371s-8.242 18.371-18.371 18.371c-10.129 0-18.371-8.242-18.371-18.371s8.242-18.371 18.371-18.371zm-168.05-115.51c0-10.129 8.242-18.371 18.371-18.371s18.371 8.242 18.371 18.371c0 10.129-8.242 18.371-18.371 18.371-10.129.004-18.371-8.238-18.371-18.371zm-89.5-15.797c0-10.129 8.242-18.371 18.371-18.371s18.371 8.242 18.371 18.371c0 10.129-8.242 18.371-18.371 18.371s-18.371-8.242-18.371-18.371zm-131.31 168.05c-10.129 0-18.371-8.242-18.371-18.371s8.242-18.371 18.371-18.371c10.129 0 18.371 8.242 18.371 18.371s-8.242 18.371-18.371 18.371zm0 89.5c-10.129 0-18.371-8.242-18.371-18.371s8.242-18.371 18.371-18.371c10.129 0 18.371 8.242 18.371 18.371s-8.242 18.371-18.371 18.371zm168.05 115.51c0 10.129-8.242 18.371-18.371 18.371s-18.371-8.242-18.371-18.371c0-10.129 8.242-18.371 18.371-18.371 10.129-.004 18.371 8.238 18.371 18.371zm89.5 15.797c0 10.129-8.242 18.371-18.371 18.371s-18.371-8.242-18.371-18.371c0-10.129 8.242-18.371 18.371-18.371s18.371 8.242 18.371 18.371zm131.31-168.05c10.129 0 18.371 8.242 18.371 18.371s-8.242 18.371-18.371 18.371c-10.129 0-18.371-8.242-18.371-18.371s8.242-18.371 18.371-18.371zm-83.828 84.223h-221.2v-221.2h221.2z"/><path d="M284.18 351.42h131.64a5.601 5.601 0 0 0 5.602-5.602l-.004-131.64a5.601 5.601 0 0 0-5.602-5.601l-131.64.004a5.601 5.601 0 0 0-5.602 5.601l.004 131.64a5.6 5.6 0 0 0 5.598 5.598zm5.602-131.64h120.44v120.44h-120.44z"/></svg>