<svg xmlns="http://www.w3.org/2000/svg" xmlns:xlink="http://www.w3.org/1999/xlink" viewBox="0 0 70.5 99.8" style="enable-background:new 0 0 70.5 99.8" xml:space="preserve"><defs><path id="a" d="M0 0h70.5v99.8H0z"/></defs><clipPath id="b"><use xlink:href="#a" style="overflow:visible"/></clipPath><path d="M1.3 32.6c-1.5 1.3-1.7 3.5-.5 5 1.3 1.5 3.5 1.7 5 .5.2-.1.3-.3.5-.5l25.5-25.5v84.3c.1 2 1.8 3.5 3.7 3.4 1.8-.1 3.3-1.5 3.4-3.4V12.1l25.5 25.5c1.4 1.3 3.6 1.3 5 0 1.4-1.4 1.4-3.6 0-5L37.8 1.1C36.5-.3 34.3-.3 32.9 1l-.1.1L1.3 32.6z" style="clip-path:url(#b);fill:#fff"/></svg>