<svg version="1.1" id="Слой_1" xmlns="http://www.w3.org/2000/svg" x="0" y="0" viewBox="0 0 175.2 175.2" style="enable-background:new 0 0 175.2 175.2" xml:space="preserve"><style>.st2{fill:#fff}</style><path d="M112.6 175.2H62.5C28 175.2 0 147.2 0 112.6V62.5C0 28 28 0 62.5 0h50.1c34.5 0 62.5 28 62.5 62.5v50.1c.1 34.6-27.9 62.6-62.5 62.6z" style="fill:#0082ff"/><path d="M34 93c3 0 5.5 1.5 7.2 3.1l-3 3.3c-1.2-1.1-2.4-1.8-4.1-1.8-3.4 0-6 2.9-6 7.6 0 4.9 2.3 7.7 5.9 7.7 2 0 3.4-.8 4.6-2.1l3 3.2c-2 2.3-4.7 3.5-7.7 3.5-6.3 0-11.4-4.2-11.4-12.1C22.5 97.6 27.8 93 34 93zm8.6 12.2c0-7.7 4.5-12.2 11-12.2s11 4.5 11 12.2c0 7.7-4.5 12.4-11 12.4s-11-4.7-11-12.4zm16.4 0c0-4.7-2.1-7.6-5.4-7.6-3.3 0-5.4 2.8-5.4 7.6s2.1 7.8 5.4 7.8c3.3 0 5.4-3 5.4-7.8zm9 0C68 97.5 72.5 93 79 93s11 4.5 11 12.2c0 7.7-4.5 12.4-11 12.4s-11-4.7-11-12.4zm16.4 0c0-4.7-2.1-7.6-5.4-7.6-3.3 0-5.4 2.8-5.4 7.6s2.1 7.8 5.4 7.8c3.3 0 5.4-3 5.4-7.8zm10.1-11.7h8.8c5.3 0 9.5 1.9 9.5 7.6 0 5.6-4.3 8-9.5 8H100v8h-5.5V93.5zm8.5 11.4c3 0 4.5-1.3 4.5-3.8s-1.6-3.4-4.5-3.4h-3v7.2h3zm14-11.4h15.2V98h-9.7v4.8h8.2v4.5h-8.2v5.4h10.1v4.5H117V93.5zm33.3 23.6-4.6-8.5h-3v8.5h-5.5V93.5h8.7c5.1 0 9.4 1.7 9.4 7.4 0 3.5-1.7 5.7-4.3 6.8l5.5 9.5h-6.2zm-7.6-12.7h2.8c2.9 0 4.4-1.2 4.4-3.5s-1.6-3.1-4.4-3.1h-2.8v6.6z" style="fill:#010000"/><path class="st2" d="M46.6 123.9H49v10.2h-2.4v-10.2zm4.8 0h2.5l1.7 4.6.6 1.8h.1l.6-1.8 1.7-4.6h2.5v10.2H59v-3.8c0-1 .2-2.5.3-3.5h-.1l-.9 2.4-1.6 4h-.9l-1.6-4-.8-2.4h-.1c.1 1 .3 2.5.3 3.5v3.8h-2.2v-10.2zm12.3 0h2.5l1.7 4.6.6 1.8h.1l.6-1.8 1.7-4.6h2.5v10.2h-2.2v-3.8c0-1 .2-2.5.3-3.5h-.1l-.9 2.4-1.6 4H68l-1.6-4-.8-2.4h-.1c.1 1 .3 2.5.3 3.5v3.8h-2.2v-10.2zm11.7 5.1c0-3.3 1.9-5.3 4.8-5.3 2.8 0 4.8 1.9 4.8 5.3 0 3.3-1.9 5.4-4.8 5.4s-4.8-2.1-4.8-5.4zm7.1 0c0-2-.9-3.3-2.3-3.3s-2.3 1.2-2.3 3.3c0 2.1.9 3.4 2.3 3.4s2.3-1.3 2.3-3.4zm4.3-5.1h3.6c2.2 0 3.9.6 3.9 2.5 0 .9-.5 1.9-1.8 2.2v.1c1.5.3 2.3 1 2.3 2.4 0 2.1-1.8 3-4.1 3h-3.9v-10.2zm3.5 4.2c1.2 0 1.7-.5 1.7-1.3s-.5-1.1-1.6-1.1h-1.1v2.3h1zm.2 4.3c1.3 0 2-.5 2-1.4 0-.9-.7-1.3-2-1.3h-1.3v2.7h1.3zm6-8.5h2.4v10.2h-2.4v-10.2zm4.8 0h2.4v8.3h4.1v1.9h-6.5v-10.2zm8.3 0h2.4v10.2h-2.4v-10.2zm4.8 0h6.6v1.9h-4.2v2.1h3.6v1.9h-3.6v2.4h4.4v1.9h-6.7v-10.2zm8.8 0h2.4l2.7 5.1 1 2.3h.1c-.1-1.1-.3-2.5-.3-3.7V124h2.2v10.2H129l-2.7-5.1-1-2.2h-.1c.1 1.1.3 2.5.3 3.7v3.6h-2.3v-10.3zM89.7 85.8 94 59.5c-1.3.4-2.7.7-4.2.7s-2.9-.2-4.2-.7l4.1 26.3z"/><path d="M78.2 48.7c0-6.4 5.2-11.6 11.6-11.6 6.4 0 11.6 5.2 11.6 11.6 0 4-2 7.5-5.1 9.6l1.8 6.4c5.7-3 9.6-9 9.6-15.9 0-9.9-8-17.9-17.9-17.9-9.9 0-17.9 8-17.9 17.9 0 6.8 3.9 12.8 9.5 15.8l1.8-6.4c-3.1-2-5-5.5-5-9.5z"/><circle class="st2" cx="89.7" cy="48.7" r="4.7"/></svg>