<svg version="1.1" id="Слой_1" xmlns="http://www.w3.org/2000/svg" x="0" y="0" viewBox="0 0 204.7 179.5" style="enable-background:new 0 0 204.7 179.5" xml:space="preserve"><style>.st1{fill:#0082ff}</style><path d="M17.6 116.4c4.6 0 8.5 2.2 10.9 4.7l-4.6 5c-1.9-1.7-3.6-2.7-6.2-2.7-5.2 0-9.2 4.4-9.2 11.7 0 7.4 3.6 11.8 9 11.8 3.1 0 5.2-1.3 7-3.2l4.6 4.9c-3.1 3.5-7.1 5.3-11.7 5.3-9.6 0-17.4-6.4-17.4-18.5 0-12 8.1-19 17.6-19zM30.8 135c0-11.8 6.9-18.6 16.8-18.6 10 0 16.8 6.8 16.8 18.6s-6.8 18.9-16.8 18.9c-9.9 0-16.8-7.1-16.8-18.9zm25 0c0-7.2-3.2-11.5-8.2-11.5-5 0-8.2 4.3-8.2 11.5 0 7.3 3.2 11.9 8.2 11.9 5 0 8.2-4.6 8.2-11.9zm13.7 0c0-11.8 6.9-18.6 16.8-18.6 10 0 16.8 6.8 16.8 18.6s-6.8 18.9-16.8 18.9c-9.9 0-16.8-7.1-16.8-18.9zm25.1 0c0-7.2-3.2-11.5-8.2-11.5-5 0-8.2 4.3-8.2 11.5 0 7.3 3.2 11.9 8.2 11.9 5 0 8.2-4.6 8.2-11.9zm15.4-17.9h13.5c8.1 0 14.5 2.9 14.5 11.7 0 8.5-6.6 12.3-14.5 12.3h-5.1v12.3H110v-36.3zm13 17.4c4.6 0 6.8-2 6.8-5.8s-2.4-5.2-6.8-5.2h-4.6v10.9h4.6zm21.4-17.4h23.2v6.9h-14.8v7.3h12.6v6.8h-12.6v8.3h15.4v6.9h-23.8v-36.2zm51 36.1-7.1-13h-4.5v13h-8.4V117h13.3c7.8 0 14.3 2.7 14.3 11.3 0 5.3-2.7 8.7-6.6 10.4l8.3 14.5h-9.3zm-11.7-19.5h4.3c4.4 0 6.8-1.8 6.8-5.4s-2.4-4.8-6.8-4.8h-4.3v10.2z" style="fill:#010000"/><path class="st1" d="M36.9 163.6h3.6v15.6h-3.6v-15.6zm7.3 0H48l2.7 7 1 2.7h.1l1-2.7 2.6-7h3.8v15.6h-3.4v-5.7c0-1.5.3-3.8.5-5.3h-.1l-1.3 3.6-2.5 6.1H51l-2.5-6.1-1.3-3.6h-.1c.2 1.5.5 3.8.5 5.3v5.7h-3.3v-15.6zm18.7 0h3.8l2.7 7 1 2.7h.1l1-2.7 2.6-7h3.8v15.6h-3.4v-5.7c0-1.5.3-3.8.5-5.3h-.1l-1.3 3.6-2.5 6.1h-1.4l-2.5-6.1-1.3-3.6h-.1c.2 1.5.5 3.8.5 5.3v5.7H63v-15.6zm17.9 7.7c0-5.1 3-8 7.3-8s7.3 3 7.3 8c0 5.1-2.9 8.2-7.3 8.2-4.3 0-7.3-3-7.3-8.2zm10.8 0c0-3.1-1.4-5-3.6-5s-3.6 1.9-3.6 5 1.4 5.1 3.6 5.1c2.3.1 3.6-1.9 3.6-5.1zm6.7-7.7h5.5c3.3 0 5.9.9 5.9 3.9 0 1.4-.8 2.9-2.7 3.4v.1c2.3.4 3.5 1.6 3.5 3.7 0 3.2-2.7 4.6-6.2 4.6h-5.9v-15.7zm5.3 6.3c1.8 0 2.6-.7 2.6-1.9s-.8-1.7-2.5-1.7H102v3.6h1.6zm.4 6.6c2 0 3-.7 3-2.1 0-1.4-1-2-3-2h-2v4.1h2zm9.1-12.9h3.6v15.6h-3.6v-15.6zm7.4 0h3.6v12.7h6.3v3h-9.9v-15.7zm12.7 0h3.6v15.6h-3.6v-15.6zm7.3 0h10v3h-6.4v3.1h5.4v3h-5.4v3.6h6.6v3h-10.3v-15.7zm13.4 0h3.7l4.2 7.8 1.6 3.5h.1c-.2-1.7-.5-3.9-.5-5.7v-5.5h3.4v15.6h-3.7l-4.2-7.8-1.5-3.5h-.1c.2 1.7.5 3.8.5 5.7v5.5h-3.5v-15.6zM102.8 84l6.5-40.2c-2 .7-4.2 1-6.5 1s-4.5-.4-6.5-1l6.5 40.2z"/><path d="M85.1 27.3c0-9.8 7.9-17.7 17.7-17.7 9.8 0 17.7 7.9 17.7 17.7 0 6.1-3.1 11.5-7.8 14.6l2.8 9.7c8.7-4.6 14.7-13.7 14.7-24.3 0-15.1-12.3-27.4-27.4-27.4-15.2.1-27.5 12.4-27.5 27.5 0 10.5 5.9 19.6 14.5 24.2l2.8-9.8c-4.5-3.1-7.5-8.5-7.5-14.5z"/><circle class="st1" cx="102.8" cy="27.3" r="7.2"/></svg>