<svg version="1.1" id="Слой_1" xmlns="http://www.w3.org/2000/svg" x="0" y="0" viewBox="0 0 276 63.9" style="enable-background:new 0 0 276 63.9" xml:space="preserve"><style>.st1{fill:#0082ff}</style><path d="M89 .3c4.6 0 8.5 2.2 10.9 4.7l-4.6 5c-1.9-1.7-3.6-2.7-6.2-2.7-5.2 0-9.2 4.4-9.2 11.7 0 7.4 3.6 11.8 9 11.8 3.1 0 5.2-1.3 7-3.2l4.6 4.9c-3.1 3.5-7.1 5.3-11.7 5.3-9.6 0-17.4-6.4-17.4-18.5-.1-12 8-19 17.6-19zm13.1 18.6C102.1 7.1 109 .3 118.9.3c10 0 16.8 6.8 16.8 18.6s-6.8 18.9-16.8 18.9c-9.9.1-16.8-7-16.8-18.9zm25 0c0-7.2-3.2-11.5-8.2-11.5-5 0-8.2 4.3-8.2 11.5 0 7.3 3.2 11.9 8.2 11.9 5.1 0 8.2-4.6 8.2-11.9zm13.8 0c0-11.8 6.9-18.6 16.8-18.6 10 0 16.8 6.8 16.8 18.6s-6.8 18.9-16.8 18.9c-10 .1-16.8-7-16.8-18.9zm25 0c0-7.2-3.2-11.5-8.2-11.5-5 0-8.2 4.3-8.2 11.5 0 7.3 3.2 11.9 8.2 11.9 5 0 8.2-4.6 8.2-11.9zM181.4 1h13.5c8.1 0 14.5 2.9 14.5 11.7 0 8.5-6.6 12.3-14.5 12.3h-5.1v12.3h-8.4V1zm13 17.4c4.6 0 6.8-2 6.8-5.8s-2.4-5.2-6.8-5.2h-4.6v10.9h4.6zM215.7 1h23.2v6.9h-14.8v7.3h12.6V22h-12.6v8.3h15.4v6.9h-23.8V1zm51 36.2-7.1-13h-4.5v13h-8.4V1H260c7.8 0 14.3 2.7 14.3 11.3 0 5.3-2.7 8.7-6.6 10.4l8.3 14.5h-9.3zm-11.6-19.5h4.3c4.4 0 6.8-1.8 6.8-5.4s-2.4-4.8-6.8-4.8h-4.3v10.2z" style="fill:#010000"/><path class="st1" d="M108.2 47.5h3.6v15.6h-3.6V47.5zm7.4 0h3.8l2.7 7 1 2.7h.1l1-2.7 2.6-7h3.8v15.6h-3.4v-5.7c0-1.5.3-3.8.5-5.3h-.1l-1.3 3.6-2.5 6.1h-1.4l-2.5-6.1-1.3-3.6h-.1c.2 1.5.5 3.8.5 5.3v5.7h-3.3V47.5zm18.6 0h3.8l2.7 7 1 2.7h.1l1-2.7 2.6-7h3.8v15.6h-3.4v-5.7c0-1.5.3-3.8.5-5.3h-.1l-1.3 3.6-2.5 6.1H141l-2.5-6.1-1.3-3.6h-.1c.2 1.5.5 3.8.5 5.3v5.7h-3.3V47.5zm17.9 7.8c0-5.1 3-8 7.3-8s7.3 3 7.3 8c0 5.1-2.9 8.2-7.3 8.2-4.3 0-7.3-3.1-7.3-8.2zm10.9 0c0-3.1-1.4-5-3.6-5s-3.6 1.9-3.6 5 1.4 5.1 3.6 5.1 3.6-2 3.6-5.1zm6.7-7.8h5.5c3.3 0 5.9.9 5.9 3.9 0 1.4-.8 2.9-2.7 3.4v.1c2.3.4 3.5 1.6 3.5 3.7 0 3.2-2.7 4.6-6.2 4.6h-5.9V47.5zm5.3 6.4c1.8 0 2.6-.7 2.6-1.9s-.8-1.7-2.5-1.7h-1.7v3.6h1.6zm.3 6.6c2 0 3-.7 3-2.1 0-1.4-1-2-3-2h-2v4.1h2zm9.2-13h3.6v15.6h-3.6V47.5zm7.3 0h3.6v12.7h6.3v3h-9.9V47.5zm12.7 0h3.6v15.6h-3.6V47.5zm7.3 0h10v3h-6.4v3.1h5.4v3h-5.4v3.6h6.6v3h-10.3V47.5zm13.4 0h3.7l4.2 7.8 1.6 3.5h.1c-.2-1.7-.5-3.9-.5-5.7v-5.5h3.4v15.6H234l-4.2-7.8-1.6-3.4h-.1c.2 1.7.5 3.8.5 5.7v5.5h-3.5V47.5zM20.8 63.9l4.9-30.6c-1.5.5-3.2.8-4.9.8-1.7 0-3.4-.3-4.9-.8l4.9 30.6z"/><path d="M7.4 20.8c0-7.4 6-13.4 13.4-13.4s13.4 6 13.4 13.4c0 4.6-2.3 8.7-5.9 11.1l2.1 7.4c6.6-3.5 11.2-10.5 11.2-18.5C41.7 9.4 32.3 0 20.8 0 9.4 0 0 9.4 0 20.8c0 8 4.5 14.9 11.1 18.4l2.1-7.4c-3.5-2.4-5.8-6.4-5.8-11z"/><circle class="st1" cx="20.8" cy="20.8" r="5.5"/></svg>