<svg version="1.1" id="Слой_1" xmlns="http://www.w3.org/2000/svg" xmlns:xlink="http://www.w3.org/1999/xlink" x="0" y="0" viewBox="0 0 381.5 143.3" style="enable-background:new 0 0 381.5 143.3" xml:space="preserve"><style>.st0{fill:#0082ff}.st0,.st1{clip-path:url(#SVGID_2_)}</style><defs><path id="SVGID_1_" d="M0 0h381.5v143.3H0z"/></defs><clipPath id="SVGID_2_"><use xlink:href="#SVGID_1_" style="overflow:visible"/></clipPath><path class="st0" d="M105.5 100.7c-.4.4-1 .7-1.6.7-.7 0-1.2-.2-1.7-.7-.5-.4-.7-1-.7-1.6 0-.6.2-1.1.7-1.6.5-.4 1-.7 1.7-.7.6 0 1.2.2 1.6.7.4.4.7 1 .7 1.6 0 .6-.3 1.2-.7 1.6m-3.7 2.3h4.2v15.3h-4.2V103zm44.1 1.4c1.1 1.2 1.6 2.8 1.6 4.8v9.1h-4.2v-9.1c0-1.1-.3-1.9-.8-2.4-.6-.5-1.3-.7-2.2-.7-.7 0-1.4.3-2 .8-.6.6-.9 1.5-.9 2.8v8.6h-4.2v-9.1c0-1.1-.3-1.9-.8-2.4s-1.3-.7-2.1-.7-1.5.3-2.1.9c-.6.6-.9 1.6-.9 3.2v8.1H123V103h4.2v1.4c.5-.5 1.2-.9 2-1.2.8-.3 1.5-.5 2.1-.5 2.2 0 3.8.7 4.9 2.1.6-.7 1.3-1.2 2.2-1.5.9-.4 1.8-.6 2.8-.6 2 0 3.6.6 4.7 1.7m41.7 0c1.1 1.2 1.6 2.8 1.6 4.8v9.1H185v-9.1c0-1.1-.3-1.9-.8-2.4-.6-.5-1.3-.7-2.2-.7-.7 0-1.4.3-2 .8-.6.6-.9 1.5-.9 2.8v8.6h-4.2v-9.1c0-1.1-.3-1.9-.8-2.4s-1.3-.7-2.1-.7-1.5.3-2.1.9c-.6.6-.9 1.6-.9 3.2v8.1h-4.2V103h4.2v1.4c.5-.5 1.2-.9 2-1.2.8-.3 1.5-.5 2.1-.5 2.2 0 3.8.7 4.9 2.1.6-.7 1.3-1.2 2.2-1.5.9-.4 1.8-.6 2.8-.6 2 0 3.6.6 4.6 1.7m22.2 13.2c-1.3-.7-2.3-1.7-3-2.9-.7-1.2-1.1-2.6-1.1-4s.4-2.8 1.1-4c.7-1.2 1.8-2.2 3-2.9 1.3-.7 2.7-1.1 4.2-1.1s2.9.4 4.2 1.1c1.3.7 2.3 1.7 3.1 2.9.8 1.2 1.1 2.6 1.1 4 0 1.5-.4 2.8-1.1 4-.8 1.2-1.8 2.2-3.1 2.9-1.3.7-2.7 1.1-4.2 1.1s-2.9-.3-4.2-1.1m2.1-10.7c-.7.4-1.2.9-1.5 1.6-.4.7-.6 1.4-.6 2.2 0 .8.2 1.6.5 2.3.4.7.9 1.2 1.5 1.6.6.4 1.4.6 2.2.6.8 0 1.5-.2 2.1-.6.6-.4 1.1-.9 1.5-1.6.4-.7.6-1.4.6-2.2 0-.8-.2-1.5-.6-2.2-.4-.7-.9-1.2-1.5-1.6-.6-.4-1.4-.6-2.1-.6-.8 0-1.5.2-2.1.5m26.8 11.5V97.2h4.1v7.4c.4-.6 1-1 1.9-1.4.8-.4 1.7-.5 2.8-.5 1.6 0 3 .4 4.1 1.1 1.2.7 2.1 1.7 2.7 2.9.6 1.2.9 2.6.9 4.1 0 1.5-.3 2.8-.9 4.1-.6 1.2-1.5 2.2-2.7 2.9-1.2.7-2.5 1.1-4.1 1.1-1 0-2-.2-2.8-.6-.9-.4-1.5-.8-1.8-1.3v1.5h-4.2zm5.1-4.6c.8.8 1.8 1.2 3.1 1.2s2.3-.4 3.1-1.2c.8-.8 1.2-1.9 1.2-3.1 0-1.3-.4-2.3-1.1-3.1-.8-.8-1.8-1.2-3.1-1.2s-2.3.4-3.1 1.2c-.8.8-1.1 1.9-1.1 3.1-.2 1.3.2 2.4 1 3.1m31.6-13.1c-.4.4-1 .7-1.6.7-.7 0-1.2-.2-1.7-.7-.5-.4-.7-1-.7-1.6 0-.6.2-1.1.7-1.6.5-.4 1-.7 1.7-.7.6 0 1.2.2 1.6.7.4.4.7 1 .7 1.6-.1.6-.3 1.2-.7 1.6m-3.8 2.3h4.2v15.3h-4.2V103zm21.3-5.8h4.2v21.1h-4.2zm24.9 3.5c-.4.4-1 .7-1.6.7-.7 0-1.2-.2-1.7-.7-.5-.4-.7-1-.7-1.6 0-.6.2-1.1.7-1.6.5-.4 1-.7 1.7-.7.6 0 1.2.2 1.6.7.4.4.7 1 .7 1.6 0 .6-.2 1.2-.7 1.6m-3.7 2.3h4.2v15.3h-4.2V103zm25.1 15c-1.3-.5-2.4-1.4-3.3-2.6-.9-1.2-1.4-2.8-1.4-4.7 0-1.9.5-3.5 1.4-4.7.9-1.2 2-2 3.3-2.5 1.3-.5 2.5-.8 3.7-.8 1.3 0 2.6.3 3.8.9 1.2.6 2.2 1.5 3 2.6.8 1.2 1.2 2.5 1.2 4.1v1.3c0 .4 0 .6-.1.7h-12.1c.2 1.1.8 1.8 1.7 2.2.9.4 1.7.6 2.5.6 1 0 1.8-.2 2.4-.5s1.1-.8 1.5-1.2l3.2 1.9c-1.8 2.4-4.1 3.6-7.2 3.6-1.1-.1-2.3-.4-3.6-.9m.9-10.8c-.7.6-1.1 1.3-1.2 2.1h7.7c-.1-.5-.2-1-.6-1.4-.3-.4-.7-.8-1.3-1.1-.5-.3-1.1-.4-1.8-.4-1.1 0-2.1.3-2.8.8m40-2.8c1 1.1 1.4 2.8 1.4 4.9v9.1h-4.3v-9.1c0-2.1-1-3.1-3-3.1-.8 0-1.5.3-2.1.9-.6.6-.9 1.7-.9 3.1v8.1H367V103h4.2v1.4c.5-.5 1.1-.9 1.9-1.2.8-.3 1.5-.4 2.2-.4 2.3-.1 3.8.5 4.8 1.6"/><path class="st1" d="M136.2 85.9c-3.8 2.2-7.8 3.3-12.3 3.3-4.3 0-8.4-1-12-3.1-3.7-2.1-6.6-4.9-8.7-8.4-2.2-3.5-3.2-7.4-3.2-11.6 0-4.1 1.1-8 3.2-11.5 2.2-3.5 5.1-6.3 8.7-8.4 3.7-2.1 7.7-3.1 12-3.1 4.4 0 8.5 1.1 12.2 3.3 3.8 2.2 6.7 5.2 8.9 8.9l-8.9 3.5c-1.4-2-3.2-3.7-5.4-5-2.2-1.3-4.4-1.9-6.8-1.9-2.6 0-5 .7-7.2 2s-3.9 3.1-5.2 5.3c-1.3 2.2-1.9 4.5-1.9 7.1 0 2.5.6 4.9 1.9 7.1 1.3 2.2 3 4 5.2 5.3 2.2 1.3 4.6 2 7.2 2 2.4 0 4.6-.7 6.8-2s4-3 5.4-5.1l8.9 3.5c-2.1 3.6-5 6.6-8.8 8.8m25.2.3c-3.7-2.1-6.6-4.9-8.7-8.4-2.2-3.6-3.2-7.4-3.2-11.6 0-4.1 1.1-8 3.2-11.5 2.2-3.6 5.1-6.4 8.7-8.4 3.7-2.1 7.7-3.1 12-3.1s8.4 1 12.1 3.1c3.7 2.1 6.6 4.9 8.8 8.4 2.2 3.6 3.2 7.4 3.2 11.5 0 4.2-1.1 8-3.2 11.6-2.2 3.6-5.1 6.4-8.8 8.4-3.7 2.1-7.7 3.1-12.1 3.1-4.4 0-8.4-1.1-12-3.1m4.8-32.4c-2.2 1.3-3.9 3.1-5.2 5.3-1.3 2.2-1.9 4.5-1.9 7.1 0 2.5.6 4.9 1.9 7.1 1.3 2.2 3 4 5.2 5.3 2.2 1.3 4.6 2 7.2 2s5-.7 7.2-2 4-3.1 5.2-5.3c1.3-2.2 1.9-4.6 1.9-7.1s-.6-4.9-1.9-7.1c-1.3-2.2-3-3.9-5.2-5.3-2.2-1.3-4.6-2-7.2-2s-5 .7-7.2 2M215 86.2c-3.7-2.1-6.6-4.9-8.7-8.4-2.2-3.6-3.2-7.4-3.2-11.6 0-4.1 1.1-8 3.2-11.5 2.2-3.6 5.1-6.4 8.7-8.4 3.7-2.1 7.7-3.1 12-3.1s8.4 1 12.1 3.1c3.7 2.1 6.6 4.9 8.8 8.4 2.2 3.6 3.2 7.4 3.2 11.5 0 4.2-1.1 8-3.2 11.6-2.2 3.6-5.1 6.4-8.8 8.4-3.7 2.1-7.7 3.1-12.1 3.1-4.4 0-8.4-1.1-12-3.1m4.8-32.4c-2.2 1.3-3.9 3.1-5.2 5.3-1.3 2.2-1.9 4.5-1.9 7.1 0 2.5.6 4.9 1.9 7.1 1.3 2.2 3 4 5.2 5.3 2.2 1.3 4.6 2 7.2 2s5-.7 7.2-2 4-3.1 5.2-5.3c1.3-2.2 1.9-4.6 1.9-7.1s-.6-4.9-1.9-7.1c-1.3-2.2-3-3.9-5.2-5.3-2.2-1.3-4.6-2-7.2-2s-5 .7-7.2 2m66.7-7.7c2.7 1.4 4.8 3.3 6.2 5.8 1.5 2.4 2.2 5.1 2.2 8.1s-.7 5.6-2 8c-1.4 2.4-3.4 4.2-6.1 5.6-2.7 1.4-6 2-9.9 2h-8.4v13h-9.6V43.9H277c3.6 0 6.8.7 9.5 2.2M283.4 65c1.2-1.4 1.8-3.1 1.8-5.1 0-1.3-.3-2.5-.9-3.7-.6-1.2-1.5-2.1-2.7-2.8-1.2-.7-2.6-1.1-4.3-1.1h-8.8v14.9h9.8c2.2-.1 4-.8 5.1-2.2m26.8-2.8h21.3v8.4h-21.3v9.5h24.1v8.3h-33.7V43.9h33.7v8.4h-24.1zm33 26.2V43.9H363c3.2 0 6 .7 8.4 1.9 2.4 1.3 4.3 3.1 5.7 5.5 1.3 2.4 2 5 2 8 0 3.2-.8 6.1-2.4 8.6-1.6 2.5-3.8 4.4-6.6 5.5 2.9 3.7 6.7 8.6 11.5 14.9H370c-2.6-3.2-6.1-7.9-10.7-13.9h-6.6v13.9h-9.5zM363 66.2c1.7 0 3.2-.6 4.5-1.8 1.3-1.2 2-2.9 2-5 0-1.7-.5-3.4-1.4-4.9-.9-1.5-2.6-2.3-5.1-2.3h-10.2v13.9H363z"/><path class="st0" d="m43.4 143.3 10.2-74c-3.2 1.2-6.6 1.9-10.2 1.9-3.6 0-7-.7-10.2-1.9l10.2 74z"/><path class="st1" d="M15.4 43.2c0-15.4 12.5-28 28-28 15.4 0 28 12.5 28 28 0 9.6-4.9 18.1-12.3 23.2l4.4 15.4C77.3 74.5 86.7 60 86.7 43.4 86.7 19.5 67.3 0 43.4 0S0 19.5 0 43.4c0 16.5 9.3 31 23 38.3l4.4-15.4c-7.2-5.2-12-13.6-12-23.1"/><path class="st0" d="M43.4 54.6c-6.3 0-11.4-5.1-11.4-11.4 0-6.3 5.1-11.4 11.4-11.4s11.4 5.1 11.4 11.4c0 6.3-5.1 11.4-11.4 11.4"/></svg>