<svg xmlns="http://www.w3.org/2000/svg" viewBox="0 0 40 35.7" style="enable-background:new 0 0 40 35.7" xml:space="preserve"><path d="M35.9 13.3h-3.6v-2.9H3.8V22c0 3.3 1.6 6.2 4.7 8.2.3.2.7.4 1 .6H0l2.6 3c1.5 1.2 3.1 1.9 4.9 1.9h21.1c1.7 0 3.4-.6 4.9-1.9l2.6-3h-9.5c.3-.2.7-.4 1-.6 2.4-1.5 3.9-3.6 4.5-6h3.8c1.7 0 4.1-1.6 4.1-4.1v-2.4c0-2.5-1.8-4.4-4.1-4.4zm-3.6 4.4h3c.2 0 .5.2.5.5v1.3c0 .2-.2.5-.5.5h-3v-2.3zm.2 15c-1.2 1-2.5 1.5-3.9 1.5H7.5c-1.4 0-2.7-.5-3.9-1.5l-.5-.6H33l-.5.6zM30.9 22c0 2.9-1.4 5.2-4 7-1.8 1.2-3.7 1.7-4.1 1.8h-9.4c-.8-.2-8.1-2.2-8.1-8.8V11.9H31L30.9 22zm7.7-2c0 1.6-1.6 2.7-2.7 2.7h-3.6v-1.5h3c1 0 1.9-.8 1.9-1.9V18c0-1-.8-1.9-1.9-1.9h-3v-1.5h3.6c1.5 0 2.7 1.2 2.7 2.9V20zM16.7 6.6c0 .1.1.2.1.3.1 0 .2.1.2.2.2.3.4.6.7.9l1-1c-.2-.2-.4-.5-.5-.7 0-.1-.1-.1-.1-.2S18 6 18 5.9c-.1-.1-.1-.2-.1-.3v-.4s0-.1.1-.1l.1-.1.1-.1.1-.1.1-.1s.1 0 .1-.1l.1-.1c.2-.2.3-.3.4-.5v-.4c.1-.1.1-.2.2-.4 0-.1.1-.3.1-.4v-.4c0-.3-.1-.6-.2-.8-.1-.2-.2-.4-.3-.7-.1-.2-.3-.4-.4-.5-.1-.1-.2-.1-.3-.2-.1-.1-.2-.1-.3-.2l-.7 1.3.1.1.1.1c.1.1.2.2.2.3.1.1.1.2.2.3 0 .1.1.2.1.4v.4c0 .1 0 .1-.1.2l-.1.2-.3.3-.1.1-.1.1s-.1 0-.1.1l-.2.2-.1.1v.1l-.2.3c-.1.1-.1.2-.1.3-.1.2-.1.4-.2.6 0 .2 0 .4.1.7.3 0 .3.2.4.4zm5.9 0c0 .1.1.2.1.3 0 .1.1.2.2.3.2.3.4.6.7.9l1-1c-.2-.2-.4-.5-.5-.7-.1-.1-.1-.2-.1-.2 0-.1-.1-.1-.1-.2-.1-.1-.1-.2-.1-.3v-.4s0-.1.1-.1l.1-.3.1-.1.1-.1s.1 0 .1-.1l.1-.1c.2-.2.3-.3.4-.5v-.4c.1-.1.1-.2.2-.4 0-.1.1-.3.1-.4v-.4c0-.3-.1-.6-.2-.8-.1-.2-.2-.4-.3-.7-.1-.2-.3-.4-.4-.5-.1-.1-.2-.1-.3-.2.3-.1.2-.1.1-.2l-.7 1.3.1.1.1.1c.1.1.2.2.2.3.1.1.1.2.2.3.1.1.1.2.1.3v.4c0 .1 0 .1-.1.2l-.1.2-.3.3-.1.1-.1.1-.1.1c-.1 0-.2.1-.2.2l-.1.1v.1l-.2.3c-.1.1-.1.2-.1.3-.1.2-.1.4-.2.6 0 .2 0 .4.1.7-.1.1 0 .3.1.5zm-11.7 0c0 .1.1.2.1.3 0 .1.1.2.2.3.2.3.4.6.7.9l1-1c-.2-.2-.4-.5-.5-.7 0-.1-.1-.1-.1-.2s-.1-.1-.1-.2c-.1-.1-.1-.2-.1-.3v-.4s0-.1.1-.1l.2-.2.1-.1.1-.1s.1 0 .1-.1l.1-.1c.2-.2.3-.3.4-.5v-.4c.1-.1.1-.2.2-.4 0-.1.1-.3.1-.4v-.4c0-.3-.1-.6-.2-.8-.1-.2-.2-.4-.3-.7-.1-.2-.3-.4-.4-.5-.1-.1-.2-.1-.3-.2-.1-.1-.2-.1-.3-.2l-.7 1.3.1.1.1.1c.1.1.2.2.2.3.1.1.1.2.2.3 0 .1.1.2.1.4V3c0 .1 0 .1-.1.2l-.1.2-.3.3-.1.1-.1.1s-.1 0-.1.1l-.2.2-.1.1v.1l-.2.3c-.1.1-.1.2-.1.3-.1.2-.1.4-.2.6 0 .2 0 .4.1.7.2-.1.3.1.4.3z"/></svg>