<svg width="106" height="127" viewBox="0 0 700 700" xmlns="http://www.w3.org/2000/svg"><path d="M409.79 527.19H147.64a4.335 4.335 0 0 1-4.34-4.34V179.72c0-2.394 1.93-4.34 4.34-4.34h194.45c2.395 0 4.34 1.946 4.34 4.34s-1.945 4.332-4.34 4.332H151.98v334.46h253.48v-271.1a4.336 4.336 0 0 1 8.672 0v275.44a4.339 4.339 0 0 1-4.332 4.34z"/><path d="M346.43 243.08h52.895l-52.895-52.895zm63.363 8.672h-67.699a4.334 4.334 0 0 1-4.332-4.34v-67.695a4.316 4.316 0 0 1 2.676-4.004 4.314 4.314 0 0 1 4.715.938l67.699 67.699a4.31 4.31 0 0 1 .937 4.722 4.317 4.317 0 0 1-3.996 2.676zM276.91 226.95h-95.953a4.337 4.337 0 1 1 0-8.676h95.953a4.333 4.333 0 0 1 4.34 4.34 4.33 4.33 0 0 1-4.34 4.336zm41.15 42.89h-137.1a4.34 4.34 0 0 1-4.34-4.34 4.334 4.334 0 0 1 4.34-4.332h137.1a4.339 4.339 0 0 1 4.34 4.332 4.343 4.343 0 0 1-4.34 4.34zm58.42 42.89H180.96a4.337 4.337 0 1 1 0-8.676h195.52a4.339 4.339 0 0 1 0 8.676zm0 42.89H180.96a4.336 4.336 0 1 1 0-8.672h195.52a4.336 4.336 0 0 1 0 8.672zm0 42.89H180.96a4.336 4.336 0 1 1 0-8.672h195.52a4.336 4.336 0 0 1 0 8.672zm0 42.89H180.96a4.338 4.338 0 0 1-4.34-4.34 4.334 4.334 0 0 1 4.34-4.332h195.52a4.336 4.336 0 0 1 0 8.672zm0 42.9H180.96a4.339 4.339 0 0 1-4.34-4.332 4.338 4.338 0 0 1 4.34-4.34h195.52a4.334 4.334 0 0 1 4.332 4.34 4.334 4.334 0 0 1-4.332 4.332z"/><path d="M481.06 455.91h-71.266c-2.394 0-4.34-1.945-4.34-4.34s1.945-4.34 4.34-4.34h66.934v-269.3l-65.148-65.156-188.32.086v66.855a4.326 4.326 0 0 1-4.34 4.332 4.332 4.332 0 0 1-4.332-4.332V108.52a4.332 4.332 0 0 1 4.332-4.332l194.45-.086h.008c1.14 0 2.246.457 3.059 1.27l67.699 67.695a4.327 4.327 0 0 1 1.265 3.066v275.43c0 2.395-1.93 4.34-4.34 4.34z"/><path d="M481.07 180.47h-67.699a4.339 4.339 0 0 1-4.34-4.332v-67.699a4.343 4.343 0 0 1 4.34-4.34 4.343 4.343 0 0 1 4.34 4.34v63.363h63.363a4.336 4.336 0 1 1 0 8.672z"/><path d="M552.34 384.62h-71.281a4.336 4.336 0 0 1 0-8.672h66.969v-269.3l-65.172-65.16h-188.32v67.008a4.334 4.334 0 0 1-4.34 4.332 4.334 4.334 0 0 1-4.332-4.332V37.148a4.341 4.341 0 0 1 4.332-4.34h194.45c1.156 0 2.258.457 3.07 1.27l67.715 67.699a4.346 4.346 0 0 1 1.258 3.066v275.43c0 2.395-1.93 4.34-4.355 4.34z"/><path d="M552.34 109.18h-67.688a4.339 4.339 0 0 1-4.34-4.332V37.149a4.343 4.343 0 0 1 4.34-4.34 4.338 4.338 0 0 1 4.34 4.34v63.363h63.348a4.334 4.334 0 0 1 4.355 4.34 4.33 4.33 0 0 1-4.355 4.332z"/></svg>