<svg width="146" height="141" viewBox="0 0 700 700" xmlns="http://www.w3.org/2000/svg" xmlns:xlink="http://www.w3.org/1999/xlink"><defs><symbol id="a" overflow="visible"><path d="M.031 0H0v-.031a.045.045 0 0 1 .031-.016v.016H.016V0H.03v-.016z"/></symbol><symbol id="b" overflow="visible"><path d="M.031-.016A.017.017 0 0 0 .016-.03V0H0v-.031h.031z"/></symbol><symbol id="c" overflow="visible"><path d="M.031-.016H.016V0H.03v-.016V0H0v-.016L.016-.03c.007 0 .015.008.015.015zm0 0H.016V-.03v.015z"/></symbol><symbol id="d" overflow="visible"><path d="M.016-.016V0L.03-.016zm.015 0V0H0v-.016h.031-.015V-.03H0v.015-.015h.031v.015z"/></symbol><symbol id="e" overflow="visible"><path d="M.016-.047v.016H.03.016V0H.03 0v-.046z"/></symbol><symbol id="f" overflow="visible"><path d="M.031-.031v-.016V0H0v-.016L.016-.03H.03zM.016 0 .03-.016H.016V-.03 0z"/></symbol><symbol id="g" overflow="visible"><path d="M.016 0H.03v-.016A.017.017 0 0 0 .016-.03V0zm0-.031H.03V0H0v-.047h.016z"/></symbol><symbol id="h" overflow="visible"><path d="M0-.031h.016v.015L.03-.03.016 0v.016H0V0h.016z"/></symbol><symbol id="i" overflow="visible"><path d="M.031-.031H.016V0H.03v-.031zm0-.016v.016c.008 0 .016.008.016.015L.03 0H0v-.031a.045.045 0 0 1 .031-.016z"/></symbol><symbol id="j" overflow="visible"><path d="M0-.047h.016V0H0z"/></symbol><symbol id="k" overflow="visible"><path d="M0-.047h.016v.031L.03-.03l-.015.015L.03 0 .016-.016V0H0z"/></symbol><symbol id="l" overflow="visible"><path d="M.031-.031v.015A.017.017 0 0 0 .016-.03v.015H.03V0H0v-.016V0h.016v-.016H0V-.03h.031z"/></symbol><symbol id="m" overflow="visible"><path d="M.031-.016V0v-.016H.016V-.03 0H0v-.031h.031v.015z"/></symbol><symbol id="n" overflow="visible"><path d="M0-.047h.016c.007 0 .015.008.015.016v.015H.016V0H0zm.016.016v.015H.03V-.03H.016z"/></symbol><symbol id="o" overflow="visible"><path d="M.016-.031V0L.03-.016H.016V-.03zm0 0c.007 0 .015.008.015.015V0H0v-.016L.016-.03z"/></symbol><symbol id="p" overflow="visible"><path d="M0-.031h.016v.015L.03-.03V0H.016z"/></symbol><symbol id="q" overflow="visible"><path d="M0-.031h.016V0H0zm0-.016h.016v.016H0z"/></symbol><symbol id="r" overflow="visible"><path d="M.031-.047v.016H.016.03.016V0H0v-.031l.016-.016z"/></symbol><symbol id="s" overflow="visible"><path d="M.031-.031h.016V0v-.031c-.012 0-.016.008-.016.015V0v-.016H.016V-.03 0H0v-.031h.031z"/></symbol><symbol id="t" overflow="visible"><path d="M.031-.016V0v-.016H.016V-.03 0H0v-.047h.016v.016H.03v.015z"/></symbol><symbol id="u" overflow="visible"><path d="M0-.047h.016l.015.031v-.03h.016V0H.03L.016-.031V0H0z"/></symbol><symbol id="v" overflow="visible"><path d="M0-.016V-.03h.016V0L.03-.016V-.03 0H0v-.016z"/></symbol><symbol id="w" overflow="visible"><path d="M0-.031h.016V0A.017.017 0 0 1 0 .016zm0-.016h.016v.016H0z"/></symbol><symbol id="x" overflow="visible"><path d="M.031-.031v.015A.017.017 0 0 0 .016-.03V0H.03v-.016V0H0v-.016L.016-.03H.03z"/></symbol></defs><path d="M169.45 346.45c3.195-1.813 5.95 3.043 2.758 4.856l-72.25 41.266c-1.989 1.136-4.531 2.46-6.32 3.769-4.231 3.102-.774 5.856 2.011 8.707 10.398 10.633 44.93 33.832 80.516 54.266 29.301 16.824 59.191 31.695 76.7 36 12.913 3.176 20.565 2.2 32.374-4.242l310.43-182.59c5.926-3.473 9.867-6.516 11.574-9.559 4.488-8.02-9.05-16.004-14.46-19.312-42.13-25.758-85.743-51.598-129.67-74.156-2.747-1.41-5.665-2.848-8.536-4.015-3.41-1.383-1.309-6.567 2.102-5.184 3.172 1.29 5.636 2.508 8.675 4.07 44.156 22.648 88.016 48.641 130.36 74.523 9.415 5.754 19.281 12.293 19.258 24.844l-.03 16.273c-.028 11.32-6.45 14.453-16.302 20.227l-310.47 181.92c-13.03 7.117-22.129 8.293-36.406 4.781-18.309-4.503-49.34-19.625-79.438-36.59-35.594-20.062-70.05-42.812-80.668-53.672-6.781-6.937-6.738-8.789-6.574-15.703.113-4.714.043-9.468.043-14.188 0-6.414.633-8.12 4.453-10.594 2.195-1.421 4.625-2.722 6.918-4.03l72.969-41.673zM93.598 35.15h149.06c4.625 0 8.398 3.773 8.398 8.398v24.953c0 2.536.176 2.442 2.317 3.848l24.18 15.887c.941.621 1.703 1.238 2.273 1.86 2.43 2.652 1.2 5.597-2.336 6.183-1.254.207-2.62.172-3.742.172h-20.52c-1.586 0-2.172.68-2.172 2.203v22.832c0 4.625-3.773 8.398-8.398 8.398H93.598c-4.625 0-8.399-3.773-8.399-8.398V43.548c0-4.625 3.774-8.398 8.399-8.398zm149.06 5.602H93.598a2.816 2.816 0 0 0-2.8 2.8v77.938a2.815 2.815 0 0 0 2.8 2.801h149.06c1.535 0 2.8-1.265 2.8-2.8V98.778c0-6.297 1.563-7.906 7.966-7.906h15.469c3.379 0 2.629.07.007-1.652l-18.586-12.207c-3.714-2.442-4.855-3.918-4.855-8.508V43.553c0-1.535-1.266-2.8-2.8-2.8zm194.34 105.84h-149.06a2.816 2.816 0 0 0-2.8 2.8v24.953c0 4.59-1.141 6.067-4.856 8.508l-17.422 11.445c-3.84 2.524-4.926 2.414.015 2.414h14.59c6.176-.144 7.672 1.332 7.672 6.906v23.707a2.816 2.816 0 0 0 2.801 2.801h149.06c1.535 0 2.8-1.265 2.8-2.8v-77.939c0-1.535-1.265-2.8-2.8-2.8zm-149.06-5.602h149.06c4.625 0 8.398 3.773 8.398 8.398v77.938c0 4.625-3.773 8.399-8.398 8.399h-149.06c-4.625 0-8.398-3.774-8.398-8.399v-23.289c0-1.437-.399-1.75-1.844-1.75H256.36c-2.465.028-6.2.02-6.781-3.05-.48-2.524 2.21-4.34 4.027-5.532l23.617-15.516c2.14-1.406 2.316-1.312 2.316-3.847v-24.953c0-4.625 3.774-8.399 8.399-8.399zM93.598 246.63h149.06c4.625 0 8.398 3.773 8.398 8.398v24.953c0 2.559.172 2.442 2.317 3.848l24.18 15.887c2.586 1.7 3.8 3.39 3.465 5.164-.575 3.02-4.13 3.051-6.59 3.051h-20.52c-2.086-.059-2.856.492-2.864 2.148-.046 7.95.012 14.938.012 22.887 0 4.625-3.773 8.399-8.398 8.399H93.598c-4.625 0-8.399-3.774-8.399-8.399v-77.938c0-4.625 3.774-8.398 8.399-8.398zm149.06 5.602H93.598a2.816 2.816 0 0 0-2.8 2.8v77.938a2.815 2.815 0 0 0 2.8 2.801h149.06c1.535 0 2.8-1.265 2.8-2.8v-23.325c-.058-5.941 2.38-7.382 8.184-7.293h14.422c4.598 0 3.38.02-.129-2.285l-17.62-11.574c-3.723-2.445-4.856-3.922-4.856-8.508v-24.953c0-1.535-1.266-2.8-2.8-2.8zm-90.098 210.49c-2.54-1.461-.316-5.329 2.223-3.868l16.68 9.621c2.539 1.461.316 5.329-2.223 3.868zm370.81-193.91c-1.918-1.086-.262-4 1.652-2.915l3.649 2.086c1.918 1.086.261 4-1.653 2.914zm-33.297-19.527c-1.906-1.106-.227-4.004 1.68-2.903l22.812 13.297c1.906 1.106.226 4.004-1.68 2.903zm-251.2 217.46c-2.21 0-2.21-3.36 0-3.36h51.344c2.21 0 2.21 3.36 0 3.36zm13.051 11.5c-2.21 0-2.21-3.36 0-3.36h25.457c2.21 0 2.21 3.36 0 3.36zm-161.21-67.238a283.98 283.98 0 0 1-.063 6.046c-.12 5.055-.152 6.407 5 11.676 10.27 10.504 44.195 32.844 79.398 52.688 29.738 16.762 60.27 31.672 78.035 36.043 12.918 3.18 20.57 2.2 32.375-4.242l309.88-181.57c7.239-4.242 13.734-7.004 14.02-15.69l.016-8.075c.008-3.305.363-2.77-1.871-.824-2.355 2.055-5.371 4.094-9.004 6.226l-310.56 182.66c-13.03 7.118-22.129 8.293-36.406 4.782-18.074-4.446-48.477-19.54-78.145-36.57-34.602-19.867-68.37-42.48-80.43-53.938-2.535-2.41-2.238-3.305-2.246.789zm259.72-167.99c3.195-1.813 5.95 3.043 2.758 4.855l-71.496 40.832c-3.196 1.813-5.95-3.043-2.758-4.855z"/><use x="70" y="560.168" xlink:href="#a"/><use x="70.043" y="560.168" xlink:href="#b"/><use x="70.07" y="560.168" xlink:href="#c"/><use x="70.105" y="560.168" xlink:href="#d"/><use x="70.145" y="560.168" xlink:href="#e"/><use x="70.172" y="560.168" xlink:href="#c"/><use x="70.211" y="560.168" xlink:href="#f"/><use x="70.27" y="560.168" xlink:href="#g"/><use x="70.309" y="560.168" xlink:href="#h"/><use x="70.363" y="560.168" xlink:href="#i"/><use x="70.414" y="560.168" xlink:href="#j"/><use x="70.434" y="560.168" xlink:href="#c"/><use x="70.469" y="560.168" xlink:href="#k"/><use x="70.508" y="560.168" xlink:href="#l"/><use x="70.539" y="560.168" xlink:href="#d"/><use x="70.578" y="560.168" xlink:href="#m"/><use x="70.617" y="560.168" xlink:href="#f"/><use x="70.656" y="560.168" xlink:href="#b"/><use x="70.707" y="560.168" xlink:href="#n"/><use x="70.746" y="560.168" xlink:href="#d"/><use x="70.785" y="560.168" xlink:href="#m"/><use x="70.824" y="560.168" xlink:href="#d"/><use x="70.863" y="560.168" xlink:href="#l"/><use x="70.895" y="560.168" xlink:href="#o"/><use x="70.934" y="560.168" xlink:href="#p"/><use x="70.969" y="560.168" xlink:href="#l"/><use x="71.004" y="560.168" xlink:href="#k"/><use x="71.039" y="560.168" xlink:href="#h"/><use x="71.078" y="560.168" xlink:href="#q"/><use x="70" y="560.223" xlink:href="#r"/><use x="70.023" y="560.223" xlink:href="#b"/><use x="70.051" y="560.223" xlink:href="#o"/><use x="70.09" y="560.223" xlink:href="#s"/><use x="70.168" y="560.223" xlink:href="#e"/><use x="70.195" y="560.223" xlink:href="#t"/><use x="70.234" y="560.223" xlink:href="#c"/><use x="70.293" y="560.223" xlink:href="#u"/><use x="70.34" y="560.223" xlink:href="#o"/><use x="70.379" y="560.223" xlink:href="#v"/><use x="70.418" y="560.223" xlink:href="#m"/><use x="70.477" y="560.223" xlink:href="#n"/><use x="70.52" y="560.223" xlink:href="#b"/><use x="70.547" y="560.223" xlink:href="#o"/><use x="70.586" y="560.223" xlink:href="#w"/><use x="70.602" y="560.223" xlink:href="#c"/><use x="70.641" y="560.223" xlink:href="#x"/><use x="70.676" y="560.223" xlink:href="#e"/></svg>