<svg width="150" height="140" viewBox="0 0 700 700" xmlns="http://www.w3.org/2000/svg" xmlns:xlink="http://www.w3.org/1999/xlink"><defs><symbol id="a" overflow="visible"><path d="M.031 0H0v-.031h.031-.015V0H.03v-.016z"/></symbol><symbol id="b" overflow="visible"><path d="M.016-.016V0H0v-.031h.016v.015-.015z"/></symbol><symbol id="c" overflow="visible"><path d="M.031-.016H.016V0C.023 0 .03-.004.03-.016V0H0v-.016L.016-.03v.015H.03z"/></symbol><symbol id="d" overflow="visible"><path d="M.016-.016V0v-.016zm.015 0V0H0v-.016h.016H0V-.03h.016v.015H.03z"/></symbol><symbol id="e" overflow="visible"><path d="M.016-.031V0H0v-.031z"/></symbol><symbol id="f" overflow="visible"><path d="M.016-.016V-.03H.03V0H0v-.016L.016-.03v.015zm0 .016v-.016V0z"/></symbol><symbol id="g" overflow="visible"><path d="M.016 0v-.016V0zm0-.016V-.03c.007 0 .015.008.015.015V0H0v-.031h.016z"/></symbol><symbol id="h" overflow="visible"><path d="M0-.031h.016v.015-.015H.03L.016 0v.016H0V0h.016z"/></symbol><symbol id="i" overflow="visible"><path d="M.016-.031V0H.03v-.016A.017.017 0 0 0 .016-.03zm0 0H.03V0H0v-.031h.016z"/></symbol><symbol id="j" overflow="visible"><path d="M0-.031h.016V0H0z"/></symbol><symbol id="k" overflow="visible"><path d="M.031-.016V0H.016v-.016V0H0v-.031h.016v.015-.015c.007 0 .015.008.015.015z"/></symbol><symbol id="l" overflow="visible"><path d="M0-.031h.031v.015H.016V0H0zm.016 0v.015-.015z"/></symbol><symbol id="m" overflow="visible"><path d="M.031-.031v.015H.016C.023-.016.03-.008.03 0H0h.016v-.016H0L.016-.03H.03z"/></symbol><symbol id="n" overflow="visible"><path d="M.016-.016V0v-.016zm0-.015v.015H.03C.031-.004.023 0 .016 0H0v-.016L.016-.03z"/></symbol><symbol id="o" overflow="visible"><path d="M0-.031h.016v.015-.015H.03L.016 0z"/></symbol><symbol id="p" overflow="visible"><path d="M0-.031h.016v.015-.015H.03l-.015.015L.03 0H.016v-.016V0H0z"/></symbol><symbol id="q" overflow="visible"><path d="M.016-.031V0H0v-.031h.016z"/></symbol><symbol id="r" overflow="visible"><path d="M.031-.016V-.03c.008 0 .016.008.016.015V0H.03v-.016V0H.016v-.016V0H0v-.031h.016v.015-.015.015H.03z"/></symbol><symbol id="s" overflow="visible"><path d="M.031-.016V0H.016v-.016V0H0v-.031h.016v.015-.015c.007 0 .015.008.015.015z"/></symbol><symbol id="t" overflow="visible"><path d="M0-.031h.016l.015.015V-.03 0L.016-.016V0H0z"/></symbol><symbol id="u" overflow="visible"><path d="M0-.016V-.03h.016V0v-.031H.03V0H0v-.016z"/></symbol><symbol id="v" overflow="visible"><path d="M0-.031h.016V0H0v.016zm0 0h.016z"/></symbol><symbol id="w" overflow="visible"><path d="M.031-.031v.015H.016V0H.03 0v-.016L.016-.03H.03z"/></symbol></defs><path d="M202.88 137.8c.129-.383.328-.746.59-1.074a3.32 3.32 0 0 1 .402-.438l1.156-1.765c.907-1.371 1.102-2.438.758-3.278-.496-1.195-1.902-2.406-3.965-3.64l-27.516-16.465-39.5 65.023 26.355 13.168c1.961.953 3.828 1.605 5.32 1.578.942-.02 1.782-.422 2.426-1.43l33.953-51.699zm339.23 223.56 18.816 53.238 56.438 1.445a3.719 3.719 0 0 1 2.164 6.676l-44.809 34.348 16.07 54.145a3.726 3.726 0 0 1-2.52 4.621 3.699 3.699 0 0 1-3.265-.578l-46.406-31.938-46.508 32.004a3.72 3.72 0 0 1-5.18-.953 3.7 3.7 0 0 1-.504-3.164l16.07-54.145-44.809-34.348a3.723 3.723 0 0 1-.699-5.219 3.722 3.722 0 0 1 3.051-1.465l56.254-1.437 18.816-53.238a3.725 3.725 0 0 1 7.027 0zm12.637 58.137-16.156-45.707-16.156 45.707h-.008a3.724 3.724 0 0 1-3.426 2.484l-48.469 1.243 38.492 29.492a3.736 3.736 0 0 1 1.317 4.011l-13.805 46.5 39.883-27.449a3.71 3.71 0 0 1 4.285-.039l39.945 27.488-13.777-46.387a3.719 3.719 0 0 1 1.277-4.125l38.492-29.492-48.234-1.23a3.723 3.723 0 0 1-3.66-2.485zm-175.7-108.62 5.777 16.055 56.422.309a3.721 3.721 0 0 1 3.707 3.734c0 1.176-.55 2.223-1.398 2.894v.008l-44.117 35.242 17.156 53.797a3.72 3.72 0 0 1-2.418 4.668 3.71 3.71 0 0 1-3.203-.465l-47.113-31.043-45.863 32.945a3.71 3.71 0 0 1-5.188-.847 3.72 3.72 0 0 1-.543-3.246l14.953-54.348-42.758-31.426c-1.949 1.324-4.011 2.164-6.086 2.344-2.687.222-5.234-.606-7.464-2.836-2.13-2.13-3.864-5.61-4.957-10.828l-.02-.047c-.605-3.063-1.148-6.254-1.7-9.473-2.284-13.41-4.694-27.504-13.12-39.648l.008-.008c-5.817-8.062-17.797-16.512-30.586-25.527-22.352-15.766-47.04-33.172-49.45-55.777-1.37.68-2.874 1-4.46 1.028-2.848.054-5.824-.907-8.7-2.317l-26.983-13.477-.422.7c-2.66 4.515-6.442 6.421-10.79 6.656-3.769.207-7.847-.98-11.882-2.762l-.055-.028v.008l-26.617-12.266a3.72 3.72 0 0 1-1.82-4.945 3.72 3.72 0 0 1 4.945-1.82l26.617 12.266v.008c3.035 1.343 5.984 2.23 8.438 2.101 1.894-.101 3.554-.953 4.75-2.976l1.847-3.043c.055-.149.114-.31.188-.458a3.57 3.57 0 0 1 .644-.914l46.5-76.55c1.551-2.547 1.801-4.61 1.028-6.29-.934-2.035-3.258-3.937-6.598-5.777l-64.297-35.449a3.731 3.731 0 0 1-1.477-5.059 3.731 3.731 0 0 1 5.059-1.476l64.297 35.449c4.695 2.586 8.11 5.59 9.773 9.223 1.828 3.976 1.54 8.343-1.437 13.234l-1.446 2.39 27.47 16.438c3.406 2.035 5.863 4.379 7.027 7.168 1.27 3.043 1.008 6.29-1.176 9.82 16.418 11.945 36.672 18.93 56.094 25.61 21.16 7.289 41.367 14.241 55.578 27.104 3.277 2.957 5.18 5.434 6.309 8.168 10.828 3.762 23.352 9.082 34.059 15.008 9.23 5.106 17.145 10.707 21.605 16.203.086.102.16.215.234.317 2.406 3.574 1.531 13.074.383 25.379-1.223 13.12-2.762 29.699-1.465 43.727.066.7.14 1.324.215 1.867.68 5.434.867 6.898-5.469 9.27zm-98.652 22.008c.121-.336.29-.664.512-.96a3.706 3.706 0 0 1 2.136-1.419c2.09-2.285 3.957-5.328 5.207-8.398 2.305-5.657 3.098-12.227 2.836-18.824-.28-7.149-1.812-14.316-4.023-20.402-3.957-.438-7.793-2.13-11.238-4.442-5.328-3.586-9.762-8.8-12.02-12.918a81.026 81.026 0 0 1-3.09-.773l-.726-.195c-5.954-1.625-9.332-2.547-12.805-9.063-2.95-5.543-3.668-12.48-4.293-18.547l-.122-1.129c-.523-2.93-.316-6.422.97-9.613-32.704 3.37-49.122-4.75-60.313-16.008 8.336 13.57 25.47 25.656 41.355 36.855 13.328 9.398 25.824 18.199 32.38 27.328l.046.047c9.379 13.504 11.93 28.438 14.355 42.652.531 3.125 1.063 6.214 1.672 9.304h-.008c.766 3.66 1.781 5.899 2.93 7.047.504.504 1.035.7 1.578.653.785-.067 1.687-.485 2.652-1.168zm12.207-2.883 47.555-2.176 14.27-42.129a118.53 118.53 0 0 1 .074-12.562c.363-6.18 1.215-12.227 2.559-16.762-2.164-1.585-6.012-2.773-10.211-4.07-5.031-1.55-10.48-3.23-15.148-6.168.16 5.535.008 10.984-.738 16.25-1.016 7.215-3.145 14.055-7.094 20.29-7.504 11.862-19.73 5.542-28.785.663 1.894 6.047 3.164 12.844 3.433 19.648.297 7.606-.644 15.25-3.36 21.926a37.377 37.377 0 0 1-2.565 5.106zm69.254-44.305c.04.223.047.457.04.692.241 4.043.737 7.543 1.503 9.847.047.149.113.317.176.512 1.035 2.895 2.613 5.387 4.695 6.813 1.848 1.261 4.273 1.671 7.309.664.086-.028.187-.067.328-.114 1.37-.496 1.344-.71 1.23-1.566-.074-.617-.168-1.316-.242-2.129-1.363-14.699.215-31.648 1.465-45.062 1.015-10.938 1.793-19.301 1.137-20.188-.04-.047-.086-.094-.122-.14-3.828-4.731-10.977-9.727-19.422-14.403-9.015-4.992-19.48-9.566-29.035-13.086.02.961.008 1.989 0 3.098-.054 5.602-.093 10.258-.027 14.941.04 3.266.129 6.59.309 10.34 3.996 5.02 11.32 7.281 17.836 9.285 4.258 1.309 8.222 2.531 11.3 4.434a21.01 21.01 0 0 1 2.11-2.305c1-.953 2.016-1.754 2.91-2.426a3.723 3.723 0 0 1 5.207.746 3.723 3.723 0 0 1-.746 5.207 24.875 24.875 0 0 0-2.238 1.875c-.727.692-1.43 1.477-2.008 2.352-1.933 2.93-3.164 10.414-3.629 18.48-.242 4.145-.27 8.371-.074 12.16zM357.18 300.8l-10.78 31.828a3.714 3.714 0 0 1-3.372 2.52l-48.43 2.21 39.07 28.712v.007a3.733 3.733 0 0 1 1.39 3.977l-12.87 46.777 39.395-28.297a3.71 3.71 0 0 1 4.21-.094l40.509 26.691-14.664-45.965a3.724 3.724 0 0 1 1.136-4.293l37.883-30.258-48.488-.261a3.735 3.735 0 0 1-3.492-2.465l-7.074-19.648c-2.848-.114-5.367-1.028-7.57-2.531-3.043-2.082-5.328-5.266-6.887-8.922zm-164.75 60.574 18.816 53.238 56.438 1.446a3.719 3.719 0 0 1 2.164 6.675L225.04 457.08l16.07 54.145a3.726 3.726 0 0 1-2.52 4.621 3.699 3.699 0 0 1-3.265-.578l-46.406-31.938-46.508 32.004a3.72 3.72 0 0 1-5.18-.953 3.7 3.7 0 0 1-.503-3.164l16.07-54.145-44.81-34.348a3.723 3.723 0 0 1-.699-5.219 3.722 3.722 0 0 1 3.051-1.465l56.254-1.437 18.816-53.238a3.725 3.725 0 0 1 7.027 0zm12.637 58.137-16.156-45.707-16.156 45.707h-.008a3.724 3.724 0 0 1-3.425 2.485l-48.47 1.242 38.493 29.492a3.736 3.736 0 0 1 1.316 4.012l-13.805 46.5 39.883-27.45a3.71 3.71 0 0 1 4.285-.039l39.945 27.488-13.766-46.387a3.719 3.719 0 0 1 1.277-4.125l38.492-29.492-48.234-1.23a3.723 3.723 0 0 1-3.66-2.484zm-102.99-347.8a2.331 2.331 0 0 1-.867-3.183c.633-1.122 2.063-1.504 3.184-.868l26.973 15.477a2.333 2.333 0 0 1 .867 3.184 2.332 2.332 0 0 1-3.184.867zm2.614 10.574c-1.122-.633-1.504-2.062-.868-3.183.633-1.122 2.063-1.504 3.184-.868l15.102 8.66a2.332 2.332 0 0 1 .867 3.184 2.33 2.33 0 0 1-3.183.867zm72.53 108.14c11.892 16.883 24.845 34.625 73.689 27.348.625-.094 1.43-.254 2.269-.41 5.422-1.062 12.402-2.426 16.164 3.398 1.887 2.922 2.438 6.598 3.004 10.38.644 4.273 1.316 8.746 4.023 10.171a3.724 3.724 0 0 1 1.559 5.032 3.723 3.723 0 0 1-5.031 1.558c-3.707-1.949-5.496-5.097-6.543-8.633l-3.11 2.559a.927.927 0 0 1-1.308-.129.927.927 0 0 1 .129-1.308l3.78-3.11c-.093-.422-.175-.848-.26-1.277l-2.93 2.418a.927.927 0 0 1-1.31-.13.927.927 0 0 1 .13-1.308l3.754-3.09c-.086-.558-.168-1.109-.254-1.671-.45-2.977-.88-5.864-1.895-7.438-.933-1.437-4.574-.848-7.691-.254a5.458 5.458 0 0 1-.543.281c-1.895.786-3.145 2.102-3.89 3.594-.99 1.989-1.157 4.293-.802 6.18.02.121.04.242.047.363l.13 1.23c.55 5.368 1.195 11.509 3.48 15.802 1.969 3.695 4.21 4.312 8.168 5.386l.726.196c1.29.355 2.668.691 4.117.988.188.02.375.066.56.113 2.94.57 6.12.942 9.257.832 4.453-.16 8.82-1.316 12.199-4.34 9.855-11.93 8.445-28.68 7.355-41.663l-.113-1.297a3.733 3.733 0 0 1 3.414-4.024 3.733 3.733 0 0 1 4.024 3.414l.113 1.297c1.215 14.375 2.781 32.938-9.211 47.227a3.723 3.723 0 0 1-.316.336c-4.91 4.563-11.043 6.274-17.191 6.496-.98.04-1.95.028-2.922-.008 1.699 1.903 3.77 3.782 6.047 5.313 3.714 2.5 7.933 4.004 11.797 2.867a4.24 4.24 0 0 1 1.128-.422c.27-.12.477-.215.598-.281 19.125-10.004 17.062-37.379 15.598-56.887l-.027-.344a3.734 3.734 0 0 1 3.445-3.996 3.734 3.734 0 0 1 3.996 3.445l.028.344c1.503 20.066 3.574 47.664-15.148 61.273 5.984 3.051 12.863 5.649 16.148.45 3.324-5.254 5.132-11.118 6.011-17.34.906-6.43.84-13.29.43-20.302-.074-1.222-.14-2.406-.195-3.554-.008-.067-.008-.14-.008-.207a305.512 305.512 0 0 1-.356-11.637c-.054-4.742-.02-9.446.028-15.094.039-3.574 0-6.067-.664-8.055-.633-1.875-1.98-3.66-4.63-6.066-13.03-11.797-32.561-18.516-53.011-25.562-19.844-6.832-40.516-13.953-57.773-26.434L177.25 190.4z"/><use x="70" y="560.141" xlink:href="#a"/><use x="70.035" y="560.141" xlink:href="#b"/><use x="70.059" y="560.141" xlink:href="#c"/><use x="70.09" y="560.141" xlink:href="#d"/><use x="70.121" y="560.141" xlink:href="#e"/><use x="70.145" y="560.141" xlink:href="#c"/><use x="70.176" y="560.141" xlink:href="#f"/><use x="70.223" y="560.141" xlink:href="#g"/><use x="70.258" y="560.141" xlink:href="#h"/><use x="70.305" y="560.141" xlink:href="#i"/><use x="70.344" y="560.141" xlink:href="#j"/><use x="70.359" y="560.141" xlink:href="#c"/><use x="70.391" y="560.141" xlink:href="#k"/><use x="70.426" y="560.141" xlink:href="#d"/><use x="70.473" y="560.141" xlink:href="#l"/><use x="70.508" y="560.141" xlink:href="#d"/><use x="70.539" y="560.141" xlink:href="#k"/><use x="70.57" y="560.141" xlink:href="#d"/><use x="70.602" y="560.141" xlink:href="#m"/><use x="70.629" y="560.141" xlink:href="#n"/><use x="70.664" y="560.141" xlink:href="#o"/><use x="70.691" y="560.141" xlink:href="#m"/><use x="70.723" y="560.141" xlink:href="#p"/><use x="70.75" y="560.141" xlink:href="#d"/><use x="70" y="560.188" xlink:href="#q"/><use x="70.02" y="560.188" xlink:href="#b"/><use x="70.043" y="560.188" xlink:href="#n"/><use x="70.074" y="560.188" xlink:href="#r"/><use x="70.141" y="560.188" xlink:href="#e"/><use x="70.164" y="560.188" xlink:href="#s"/><use x="70.195" y="560.188" xlink:href="#c"/><use x="70.242" y="560.188" xlink:href="#t"/><use x="70.281" y="560.188" xlink:href="#n"/><use x="70.316" y="560.188" xlink:href="#u"/><use x="70.348" y="560.188" xlink:href="#k"/><use x="70.398" y="560.188" xlink:href="#l"/><use x="70.434" y="560.188" xlink:href="#b"/><use x="70.453" y="560.188" xlink:href="#n"/><use x="70.488" y="560.188" xlink:href="#v"/><use x="70.504" y="560.188" xlink:href="#c"/><use x="70.535" y="560.188" xlink:href="#w"/><use x="70.563" y="560.188" xlink:href="#e"/></svg>