<svg width="106" height="105" viewBox="0 0 700 700" xmlns="http://www.w3.org/2000/svg"><path d="M349.3 41.988c-41.402 0-74.898 33.496-74.898 74.898v204.23c0 41.402 33.496 74.898 74.898 74.898h1.398c41.402 0 74.898-33.496 74.898-74.898v-204.23c0-41.402-33.496-74.898-74.898-74.898zm0 8.398h1.398a66.286 66.286 0 0 1 66.5 66.5v204.23a66.286 66.286 0 0 1-66.5 66.5H349.3a66.286 66.286 0 0 1-66.5-66.5v-204.23a66.286 66.286 0 0 1 66.5-66.5zm-208.25 102.55a4.193 4.193 0 0 0-3.148 2.278c-16.586 32.453-25.898 69.215-25.898 108.15 0 38.93 9.312 75.695 25.898 108.15v-.004a4.226 4.226 0 1 0 7.523-3.848c-15.992-31.359-25.02-66.64-25.02-104.21 0-37.586 9.027-72.996 25.023-104.3a4.204 4.204 0 0 0-.285-4.422 4.207 4.207 0 0 0-4.09-1.703zm416.33 0a4.212 4.212 0 0 0-2.938 2.36 4.206 4.206 0 0 0 .137 3.765c16 31.305 25.023 66.711 25.023 104.3 0 37.586-9.027 72.996-25.023 104.3a4.195 4.195 0 0 0 1.422 6.227 4.195 4.195 0 0 0 5.926-2.379C578.513 339.056 588 302.294 588 263.36c0-38.93-9.488-75.695-26.074-108.15v.004a4.196 4.196 0 0 0-4.547-2.277zm-387.97 28.56-.004.003a4.188 4.188 0 0 0-3.148 2.45 199.564 199.564 0 0 0-16.45 79.453c0 28.23 5.9 55.094 16.45 79.453a4.201 4.201 0 1 0 7.7-3.328c-10.114-23.34-15.751-49.067-15.751-76.126 0-27.047 5.644-52.793 15.75-76.125a4.201 4.201 0 0 0-4.55-5.777zm359.45 0-.004.003a4.18 4.18 0 0 0-2.852 2.184 4.189 4.189 0 0 0-.12 3.59c10.104 23.332 15.75 49.078 15.75 76.125 0 27.059-5.637 52.785-15.75 76.125v.004a4.206 4.206 0 0 0 2.09 5.738 4.201 4.201 0 0 0 5.609-2.414c10.55-24.355 16.449-51.22 16.449-79.453 0-28.22-5.907-55.102-16.45-79.453a4.202 4.202 0 0 0-4.726-2.45zm-326.03 33.073v.004a4.192 4.192 0 0 0-3.5 2.973 157.683 157.683 0 0 0-6.824 45.852 157.73 157.73 0 0 0 6.824 45.852 4.207 4.207 0 1 0 8.047-2.45c-4.168-13.71-6.477-28.3-6.477-43.397s2.309-29.688 6.477-43.398V220a4.204 4.204 0 0 0-.79-3.961 4.196 4.196 0 0 0-3.757-1.465zm293.3 0-.004.004a4.19 4.19 0 0 0-3.02 1.89 4.215 4.215 0 0 0-.48 3.536c4.168 13.711 6.3 28.301 6.3 43.398 0 15.102-2.132 29.688-6.3 43.398a4.208 4.208 0 0 0 2.8 5.25 4.203 4.203 0 0 0 5.25-2.797c4.407-14.504 6.65-29.93 6.65-45.852 0-15.918-2.243-31.344-6.65-45.852a4.194 4.194 0 0 0-4.55-2.972zM229.95 322.2l-.004.004a4.202 4.202 0 0 0-4.023 4.375c0 66.664 53.148 120.51 119.88 122.67a1.32 1.32 0 0 0 0 .176v60.2h-115.33a4.095 4.095 0 0 0-.875 0 4.219 4.219 0 0 0-3.77 4.636 4.218 4.218 0 0 0 4.645 3.762h239.05a4.199 4.199 0 1 0 0-8.399h-115.33v-60.375c66.73-2.16 119.88-56.012 119.88-122.67a4.195 4.195 0 0 0-1.211-3.011 4.2 4.2 0 0 0-7.191 3.012c0 63.487-51.474 114.45-115.67 114.45-64.204 0-115.67-50.962-115.67-114.45h-.005a4.206 4.206 0 0 0-1.222-3.149 4.204 4.204 0 0 0-3.153-1.227z"/></svg>