<?xml version="1.0" encoding="UTF-8"?>
<svg width="125" height="125" version="1.1" viewBox="0 0 700 700" xmlns="http://www.w3.org/2000/svg" xmlns:xlink="http://www.w3.org/1999/xlink">
  <path d="m471.8 240.85h43.625c2.6289 13.633 14.617 23.973 29.004 23.973 16.305 0 29.57-13.266 29.57-29.57s-13.266-29.57-29.57-29.57c-14.387 0-26.375 10.34-29.004 23.969h-43.625v-65.848c0-3.0938-2.5078-5.6016-5.6016-5.6016h-6.3867v-14.934c0-3.0938-2.5078-5.6016-5.6016-5.6016s-5.6016 2.5078-5.6016 5.6016l0.003906 14.934h-18.691v-14.934c0-3.0938-2.5078-5.6016-5.6016-5.6016s-5.6016 2.5078-5.6016 5.6016v14.934h-18.371v-27.824c13.633-2.6289 23.969-14.617 23.969-29.008 0-16.305-13.266-29.57-29.57-29.57-16.305 0-29.57 13.266-29.57 29.57 0 14.387 10.34 26.379 23.973 29.008l0.003906 27.824h-18.648v-14.934c0-3.0938-2.5078-5.6016-5.6016-5.6016s-5.6016 2.5078-5.6016 5.6016v14.934h-18.648v-14.934c0-3.0938-2.5078-5.6016-5.6016-5.6016s-5.6016 2.5078-5.6016 5.6016l0.003906 14.934h-18.605v-43.625c13.633-2.6289 23.973-14.617 23.973-29.004 0-16.305-13.266-29.57-29.57-29.57s-29.57 13.266-29.57 29.57c0 14.387 10.34 26.375 23.969 29.004v43.625h-18.691v-14.934c0-3.0938-2.5078-5.6016-5.6016-5.6016s-5.6016 2.5078-5.6016 5.6016l0.003906 14.934h-18.688v-14.934c0-3.0938-2.5078-5.6016-5.6016-5.6016s-5.6016 2.5078-5.6016 5.6016v14.934h-6.0664c-3.0938 0-5.6016 2.5078-5.6016 5.6016v65.848h-43.625c-2.6289-13.633-14.617-23.969-29.004-23.969-16.305 0-29.57 13.266-29.57 29.57s13.266 29.57 29.57 29.57c14.387 0 26.375-10.34 29.004-23.973h43.625v78.301h-43.625c-2.6289-13.633-14.617-23.973-29.004-23.973-16.305 0.003907-29.57 13.27-29.57 29.574s13.266 29.57 29.57 29.57c14.387 0 26.375-10.34 29.004-23.969h43.625v65.848c0 3.0938 2.5078 5.6016 5.6016 5.6016h6.3867v14.934c0 3.0938 2.5078 5.6016 5.6016 5.6016s5.6016-2.5078 5.6016-5.6016l-0.003906-14.934h18.691v14.934c0 3.0938 2.5078 5.6016 5.6016 5.6016s5.6016-2.5078 5.6016-5.6016v-14.934h18.371v27.824c-13.633 2.6289-23.969 14.617-23.969 29.008 0 16.305 13.266 29.57 29.57 29.57 16.305 0 29.57-13.266 29.57-29.57 0-14.387-10.34-26.379-23.973-29.008l-0.003906-27.824h18.648v14.934c0 3.0938 2.5078 5.6016 5.6016 5.6016s5.6016-2.5078 5.6016-5.6016v-14.934h18.648v14.934c0 3.0938 2.5078 5.6016 5.6016 5.6016s5.6016-2.5078 5.6016-5.6016l-0.003906-14.934h18.605v43.625c-13.633 2.6289-23.973 14.617-23.973 29.004 0 16.305 13.266 29.57 29.57 29.57s29.57-13.266 29.57-29.57c0-14.387-10.34-26.375-23.969-29.004v-43.625h18.691v14.934c0 3.0938 2.5078 5.6016 5.6016 5.6016s5.6016-2.5078 5.6016-5.6016l-0.003906-14.934h18.688v14.934c0 3.0938 2.5078 5.6016 5.6016 5.6016s5.6016-2.5078 5.6016-5.6016v-14.934h6.0664c3.0938 0 5.6016-2.5078 5.6016-5.6016v-65.848h43.625c2.6289 13.633 14.617 23.969 29.004 23.969 16.305 0 29.57-13.266 29.57-29.57s-13.266-29.57-29.57-29.57c-14.387 0-26.375 10.34-29.004 23.973h-43.625zm72.629-23.969c10.129 0 18.371 8.2422 18.371 18.371s-8.2422 18.371-18.371 18.371c-10.129 0-18.371-8.2422-18.371-18.371s8.2422-18.371 18.371-18.371zm-168.05-115.51c0-10.129 8.2422-18.371 18.371-18.371s18.371 8.2422 18.371 18.371c0 10.129-8.2422 18.371-18.371 18.371-10.129 0.003907-18.371-8.2383-18.371-18.371zm-89.5-15.797c0-10.129 8.2422-18.371 18.371-18.371s18.371 8.2422 18.371 18.371c0 10.129-8.2422 18.371-18.371 18.371s-18.371-8.2422-18.371-18.371zm-131.31 168.05c-10.129 0-18.371-8.2422-18.371-18.371s8.2422-18.371 18.371-18.371c10.129 0 18.371 8.2422 18.371 18.371s-8.2422 18.371-18.371 18.371zm0 89.5c-10.129 0-18.371-8.2422-18.371-18.371s8.2422-18.371 18.371-18.371c10.129 0 18.371 8.2422 18.371 18.371s-8.2422 18.371-18.371 18.371zm168.05 115.51c0 10.129-8.2422 18.371-18.371 18.371s-18.371-8.2422-18.371-18.371c0-10.129 8.2422-18.371 18.371-18.371 10.129-0.003907 18.371 8.2383 18.371 18.371zm89.5 15.797c0 10.129-8.2422 18.371-18.371 18.371s-18.371-8.2422-18.371-18.371c0-10.129 8.2422-18.371 18.371-18.371s18.371 8.2422 18.371 18.371zm131.31-168.05c10.129 0 18.371 8.2422 18.371 18.371s-8.2422 18.371-18.371 18.371c-10.129 0-18.371-8.2422-18.371-18.371s8.2422-18.371 18.371-18.371zm-83.828 84.223h-221.2v-221.2h221.2z"/>
  <path d="m284.18 351.42h131.64c3.0938 0 5.6016-2.5078 5.6016-5.6016l-0.003906-131.64c0-3.0938-2.5078-5.6016-5.6016-5.6016l-131.64 0.003906c-3.0938 0-5.6016 2.5078-5.6016 5.6016l0.003906 131.64c0 3.0898 2.5078 5.5977 5.5977 5.5977zm5.6016-131.64h120.44v120.44h-120.44z"/>
</svg>
