<?xml version="1.0" encoding="UTF-8"?>
<svg width="125" height="125" version="1.1" viewBox="0 0 700 700" xmlns="http://www.w3.org/2000/svg" xmlns:xlink="http://www.w3.org/1999/xlink">
  <path d="m136.14 235.11c0.43359 0.097657 0.86328 0.14844 1.2891 0.14844 2.5391 0 4.8359-1.7383 5.4453-4.3164 1.2617-5.3359 2.7422-10.68 4.4102-15.883 0.94531-2.9492-0.67969-6.0977-3.625-7.043-2.9414-0.92578-6.0977 0.68359-7.0391 3.6211-1.7578 5.4805-3.3203 11.113-4.6445 16.734-0.71094 3.0078 1.1523 6.0273 4.1641 6.7383z"/>
  <path d="m133.45 309.13c-3.0547 0.48828-5.1367 3.3594-4.6445 6.4102 0.90625 5.6914 2.0508 11.426 3.3984 17.023 0.61719 2.5703 2.9102 4.293 5.4375 4.293 0.43359 0 0.875-0.050781 1.3164-0.15234 3.0078-0.72656 4.8594-3.75 4.1328-6.7539-1.2812-5.3281-2.3672-10.762-3.2305-16.172-0.48438-3.0586-3.375-5.1562-6.4102-4.6484z"/>
  <path d="m165.85 162.41c-2.6445-1.6016-6.0859-0.75391-7.6875 1.8906-2.9883 4.9375-5.8164 10.051-8.4062 15.203-1.3906 2.7617-0.27344 6.1289 2.4883 7.5195 0.80859 0.40625 1.6641 0.59766 2.5117 0.59766 2.0508 0 4.0234-1.125 5.0078-3.0859 2.457-4.8906 5.1445-9.75 7.9805-14.438 1.5977-2.6445 0.75-6.0859-1.8945-7.6875z"/>
  <path d="m572.45 253.51c-0.35938-3.0742-3.2148-5.2617-6.2188-4.9062-3.0703 0.35938-5.2656 3.1445-4.9062 6.2188 0.64062 5.4141 1.0742 10.949 1.3008 16.445 0.12109 3.0117 2.6016 5.375 5.5938 5.375 0.074219 0 0.15234 0 0.23047-0.003906 3.0898-0.125 5.4922-2.7305 5.3672-5.8203-0.23438-5.7852-0.69531-11.609-1.3672-17.309z"/>
  <path d="m131.6 286.54c3.0938 0 5.6016-2.5039 5.6016-5.6016l-0.003906-0.9375c0-5.4805 0.21094-11.023 0.62891-16.488 0.23438-3.0859-2.0742-5.7734-5.1562-6.0117-3.0859-0.26953-5.7734 2.0742-6.0117 5.1562-0.4375 5.75-0.66016 11.586-0.66016 17.344v0.94141c0 3.0938 2.5078 5.5977 5.6016 5.5977z"/>
  <path d="m264.18 486.5c2.1758 0 4.2422-1.2734 5.1523-3.4023 1.2188-2.8438-0.10547-6.1289-2.9492-7.3516-5.0508-2.1562-10.066-4.5352-14.906-7.0703-2.7422-1.4453-6.125-0.37891-7.5586 2.3633-1.4375 2.7383-0.37891 6.125 2.3633 7.5586 5.0977 2.6758 10.383 5.1797 15.699 7.4531 0.71875 0.30469 1.4648 0.44922 2.1992 0.44922z"/>
  <path d="m150.18 381.33c0.98828 1.9414 2.957 3.0625 5 3.0625 0.85156 0 1.7188-0.19531 2.5312-0.60547 2.7578-1.3984 3.8555-4.7734 2.457-7.5312-2.4766-4.8711-4.7969-9.9102-6.8906-14.969-1.1836-2.8555-4.457-4.2148-7.3164-3.0312-2.8555 1.1797-4.2148 4.457-3.0312 7.3164 2.2031 5.3203 4.6406 10.621 7.25 15.758z"/>
  <path d="m464.6 466.04c-1.5586-2.6758-4.9805-3.5781-7.6602-2.0234-4.7617 2.7734-9.6562 5.375-14.551 7.7383-2.7852 1.3398-3.957 4.6836-2.6133 7.4727 0.96484 2 2.9688 3.168 5.0469 3.168 0.81641 0 1.6445-0.17578 2.4297-0.55859 5.1562-2.4844 10.312-5.2227 15.328-8.1445 2.6719-1.5547 3.5742-4.9844 2.0195-7.6523z"/>
  <path d="m503.46 116.83c-2.2461-2.1172-5.793-2.0117-7.9141 0.24219-2.1211 2.2539-2.0078 5.7969 0.24219 7.918 4 3.7617 7.8906 7.7148 11.562 11.754 1.1055 1.2148 2.6211 1.832 4.1445 1.832 1.3438 0 2.6914-0.48047 3.7695-1.4609 2.2852-2.0781 2.4531-5.6211 0.37109-7.9062-3.8711-4.25-7.9648-8.418-12.176-12.379z"/>
  <path d="m169.51 403.13c-2.5117 1.8086-3.0742 5.3086-1.2656 7.8164 3.3672 4.6719 6.9648 9.2695 10.691 13.668 1.1055 1.3125 2.6836 1.9844 4.2773 1.9844 1.2773 0 2.5625-0.4375 3.6133-1.3242 2.3594-2 2.6562-5.5352 0.65625-7.8906-3.5391-4.1836-6.957-8.5547-10.156-12.988-1.8047-2.5117-5.3047-3.0742-7.8164-1.2656z"/>
  <path d="m197.94 123.13c-2.2109-2.1719-5.7539-2.1211-7.918 0.078126-4.0312 4.1133-7.957 8.4375-11.672 12.863-1.9883 2.3672-1.6797 5.9023 0.6875 7.8867 1.0508 0.87891 2.3281 1.3125 3.5977 1.3125 1.5977 0 3.1875-0.67969 4.293-2 3.5234-4.1992 7.2578-8.3125 11.086-12.219 2.168-2.2109 2.1328-5.7539-0.074219-7.9219z"/>
  <path d="m553.21 199.61c-2.9062 1.0664-4.3984 4.2812-3.332 7.1875 1.8867 5.1523 3.5898 10.434 5.0625 15.691 0.69141 2.4727 2.9414 4.0898 5.3906 4.0898 0.5 0 1.0078-0.066406 1.5117-0.20703 2.9766-0.83203 4.7188-3.9258 3.8828-6.9023-1.5508-5.5391-3.3438-11.098-5.332-16.52-1.0664-2.9062-4.2812-4.3906-7.1836-3.3398z"/>
  <path d="m564.45 327.17c2.6328 0 4.9805-1.8633 5.4922-4.543 1.0898-5.6758 1.9727-11.445 2.6211-17.156 0.34766-3.0742-1.8594-5.8438-4.9336-6.1914-3.0664-0.36719-5.8477 1.8555-6.1953 4.9336-0.61719 5.418-1.4531 10.906-2.4883 16.301-0.58594 3.0352 1.4062 5.9727 4.4414 6.5586 0.35938 0.066406 0.71484 0.097656 1.0625 0.097656z"/>
  <path d="m210.65 440.84c-2.3398-2.0273-5.875-1.7656-7.8984 0.5625-2.0234 2.3398-1.7734 5.8789 0.56641 7.9023 4.3516 3.7695 8.9062 7.4219 13.543 10.855 1.0039 0.74219 2.1719 1.0977 3.3281 1.0977 1.7148 0 3.4062-0.78125 4.5078-2.2695 1.8398-2.4844 1.3164-5.9883-1.168-7.832-4.4102-3.2617-8.7422-6.7344-12.879-10.316z"/>
  <path d="m350 504c4.5977-0.003906 9.2188-0.14844 13.746-0.42188 3.0859-0.1875 5.4375-2.8398 5.25-5.9297-0.1875-3.0898-2.8203-5.4688-5.9297-5.25-4.3008 0.25781-8.6992 0.39453-13.07 0.40234l-3.4375-0.027343c-3.0781 0.042968-5.6367 2.4297-5.6797 5.5234-0.042968 3.0898 2.4297 5.6328 5.5195 5.6758z"/>
  <path d="m313.75 489.73c-5.4375-0.93359-10.863-2.0898-16.133-3.4219-3.0195-0.75391-6.0469 1.0625-6.8047 4.0586-0.76172 2.9961 1.0547 6.043 4.0508 6.8047 5.5469 1.4062 11.262 2.6133 16.984 3.5977 0.32031 0.054687 0.64063 0.082031 0.95313 0.082031 2.6758 0 5.043-1.9258 5.5117-4.6484 0.53125-3.0547-1.5156-5.9492-4.5625-6.4727z"/>
  <path d="m238.17 92.289c-1.6523-2.6133-5.1211-3.3945-7.7227-1.7461-4.7812 3.0234-9.5078 6.2734-14.062 9.6641h-45.848c-3.0938 0-5.6016 2.5039-5.6016 5.6016 0 3.0938 2.5078 5.6016 5.6016 5.6016h43.199v43.199c0 3.0938 2.5078 5.6016 5.6016 5.6016s5.6016-2.5039 5.6016-5.6016l-0.003906-46.75c3.7578-2.7305 7.5977-5.3789 11.496-7.8398 2.6133-1.6523 3.3945-5.1133 1.7383-7.7305z"/>
  <path d="m410.77 76.004c5.2656 1.5703 10.52 3.3594 15.617 5.3203 0.66016 0.25 1.3398 0.37109 2.0078 0.37109 2.2461 0 4.3711-1.3633 5.2266-3.5859 1.1094-2.8867-0.33203-6.1289-3.2188-7.2422-5.3633-2.0625-10.898-3.9414-16.438-5.5938-2.957-0.88672-6.0859 0.79687-6.9688 3.7695-0.87891 2.9648 0.80859 6.082 3.7734 6.9609z"/>
  <path d="m398.11 498.82c5.6484-1.2344 11.301-2.707 16.805-4.3711 2.9609-0.89062 4.6367-4.0195 3.7422-6.9766-0.89062-2.9648-4.0234-4.6328-6.9766-3.7422-5.2266 1.582-10.598 2.9766-15.961 4.1523-3.0234 0.66016-4.9375 3.6484-4.2734 6.668 0.57422 2.6211 2.8945 4.4023 5.4648 4.4023 0.39453-0.003907 0.79688-0.046875 1.1992-0.13281z"/>
  <path d="m311.85 70.523c0.32422 0 0.64844-0.027344 0.98047-0.085938 5.3945-0.95312 10.891-1.6992 16.336-2.2266 3.0781-0.29688 5.332-3.0352 5.0352-6.1133-0.29688-3.0742-3.0039-5.3203-6.1133-5.0312-5.7344 0.55078-11.523 1.3398-17.203 2.3477-3.0469 0.53516-5.0781 3.4414-4.543 6.4844 0.47656 2.7188 2.8398 4.625 5.5078 4.625z"/>
  <path d="m546.79 374.99c0.75 0.33984 1.5312 0.49609 2.3047 0.49609 2.1289 0 4.168-1.2266 5.1055-3.293 2.3828-5.2617 4.582-10.68 6.5391-16.102 1.0508-2.9102-0.45703-6.1211-3.3672-7.168-2.9062-1.0703-6.1172 0.44922-7.168 3.3633-1.8594 5.1523-3.9492 10.293-6.2109 15.289-1.2734 2.8203-0.023438 6.1406 2.7969 7.4141z"/>
  <path d="m263.33 85.07c0.74219 0 1.4961-0.14844 2.2188-0.46094 5.043-2.1836 10.215-4.1836 15.363-5.9453 2.9258-1 4.4883-4.1836 3.4883-7.1133-1.0039-2.9258-4.1914-4.4688-7.1133-3.4844-5.4258 1.8594-10.871 3.9648-16.184 6.2617-2.8398 1.2305-4.1445 4.5273-2.918 7.3672 0.91797 2.1133 2.9805 3.375 5.1445 3.375z"/>
  <path d="m535.87 394.87c-2.5898-1.6953-6.0547-0.96875-7.75 1.6172-2.9883 4.5625-6.207 9.082-9.5703 13.438-1.8906 2.4492-1.4375 5.9648 1.0078 7.8594 1.0195 0.78125 2.2227 1.1641 3.4219 1.1641 1.6719 0 3.332-0.75 4.4336-2.1758 3.5391-4.5898 6.9297-9.3477 10.074-14.148 1.6914-2.5859 0.96875-6.0586-1.6172-7.7539z"/>
  <path d="m543.79 179.02c2.7031-1.5 3.6797-4.9102 2.1758-7.6133-2.7891-5.0273-5.8203-10.012-9.0078-14.836-1.7031-2.582-5.1719-3.2852-7.7617-1.582-2.5781 1.707-3.2852 5.1797-1.582 7.7617 3.0273 4.5781 5.9062 9.3242 8.5586 14.094 1.0234 1.8438 2.9297 2.8828 4.8984 2.8828 0.92578 0 1.8555-0.22656 2.7188-0.70703z"/>
  <path d="m362.13 67.535c5.4844 0.30469 11.008 0.83203 16.41 1.5625 0.25391 0.03125 0.50391 0.050782 0.75781 0.050782 2.7578 0 5.1641-2.0391 5.543-4.8516 0.41406-3.0664-1.7383-5.8828-4.8008-6.3008-5.6914-0.76562-11.508-1.3164-17.285-1.6406-3.0273-0.14844-5.7266 2.1875-5.9023 5.2773-0.17578 3.0898 2.1875 5.7305 5.2773 5.9023z"/>
  <path d="m473.27 105.29c1.7891 0 3.5469-0.85156 4.6289-2.4453 1.7461-2.5547 1.0898-6.0391-1.4648-7.7812-4.8086-3.2812-9.75-6.3945-14.691-9.2422-2.6875-1.5469-6.1094-0.625-7.6523 2.0508-1.543 2.6797-0.625 6.1016 2.0508 7.6523 4.6992 2.7109 9.4023 5.6719 13.977 8.793 0.96875 0.65625 2.0625 0.97266 3.1523 0.97266z"/>
  <path d="m479.97 401.33c-3.0938 0-5.6016 2.5039-5.6016 5.6016v48.797c0 3.0938 2.5078 5.6016 5.6016 5.6016h48.797c3.0938 0 5.6016-2.5039 5.6016-5.6016 0-3.0938-2.5078-5.6016-5.6016-5.6016h-33.105c2.8945-2.4844 5.7539-5.0117 8.4883-7.6055 2.2461-2.1289 2.3398-5.6719 0.21094-7.918-2.1289-2.2422-5.6719-2.3359-7.9141-0.20703-3.4727 3.2891-7.1523 6.4648-10.875 9.5469v-37.008c0-3.0977-2.5078-5.6055-5.6016-5.6055z"/>
  <path d="m350 165.63c-63.016 0-114.28 51.27-114.28 114.29s51.266 114.28 114.28 114.28 114.28-51.266 114.28-114.28-51.266-114.29-114.28-114.29zm-63.047 195.66c0.44531-27.527 18.273-51.289 44.695-59.309 2.1602-0.65625 3.7148-2.543 3.9414-4.7891 0.23047-2.2422-0.91016-4.4062-2.8906-5.4844-12.605-6.8672-20.438-20.039-20.438-34.367 0-21.562 17.539-39.102 39.098-39.102 21.562 0 39.098 17.539 39.098 39.102 0 14.762-8.2031 28.109-21.41 34.832-2.0156 1.0273-3.2148 3.1602-3.043 5.4141 0.16797 2.2539 1.6797 4.1836 3.8242 4.8945 25.543 8.4609 42.777 32.012 43.219 58.812-17.449 13.547-39.293 21.707-63.047 21.707s-45.598-8.1602-63.047-21.711zm136.61-9.3008c-3.3672-24.109-18.363-45.02-40.102-55.953 11.426-9.4336 18.195-23.477 18.195-38.695 0-27.738-22.562-50.301-50.301-50.301-27.734-0.003906-50.297 22.562-50.297 50.297 0 14.668 6.375 28.387 17.148 37.832-22.711 10.656-38.355 31.926-41.781 56.816-18.227-18.602-29.512-44.031-29.512-72.07 0-56.844 46.242-103.09 103.08-103.09s103.08 46.242 103.08 103.09c0 28.043-11.285 53.473-29.516 72.074z"/>
</svg>
