<?xml version="1.0" encoding="UTF-8"?>
<svg width="125" height="125" version="1.1" viewBox="0 0 700 700" xmlns="http://www.w3.org/2000/svg" xmlns:xlink="http://www.w3.org/1999/xlink">
  <path d="m595.84 360.64-20.16-67.199c10.082-19.602 15.121-41.441 15.121-63.84 0-80.078-65.52-145.6-145.6-145.6-67.762 0-124.88 46.48-141.12 109.2-15.68-5.6016-31.922-8.3984-49.281-8.3984-80.078 0-145.6 65.52-145.6 145.6 0 22.398 5.0391 44.238 15.121 63.84l-20.16 67.199c-1.1211 3.9219 0 8.3984 2.8008 11.199 2.2383 2.2422 5.0391 3.3633 7.8398 3.3633 1.1211 0 2.2383 0 3.3594-0.55859l63.84-19.043c22.398 12.879 47.039 19.602 72.801 19.602 67.762 0 124.88-46.48 141.12-109.2 15.68 5.6016 31.922 8.3984 49.281 8.3984 25.762 0 50.398-6.7188 72.801-19.602l63.84 19.039c1.1211 0 2.2383 0.55859 3.3594 0.55859 2.8008 0 5.6016-1.1211 7.8398-3.3594 2.7969-2.7969 3.918-7.2773 2.7969-11.195zm-341.04 92.961c-22.961 0-45.922-6.7188-65.52-19.039-1.6797-1.1211-3.9219-1.6797-6.1602-1.6797-1.1211 0-2.2383 0-3.3594 0.55859l-48.16 14.559 15.121-51.52c0.55859-2.8008 0.55859-5.6016-1.1211-8.3984-8.9609-17.922-14-37.523-14-57.684 0-67.762 55.441-123.2 123.2-123.2 67.762 0 123.2 55.441 123.2 123.2 0 67.762-55.441 123.2-123.2 123.2zm264.88-120.96c-2.8008-1.1211-6.1602-0.55859-8.9609 1.1211-19.598 12.316-42.559 19.039-65.52 19.039-16.238 0-31.359-3.3594-45.359-8.9609 0.55859-4.4805 0.55859-8.9609 0.55859-13.441 0-54.879-30.801-102.48-75.602-127.68 12.324-54.879 61.602-96.32 120.4-96.32 67.762 0 123.2 55.441 123.2 123.2 0 20.16-5.0391 39.762-14.559 57.68-1.1211 2.8008-1.6797 5.6016-1.1211 8.3984l15.68 51.523zm-309.68-2.2422c0 6.1602-5.0391 11.199-11.199 11.199-6.1602 0-11.199-5.0391-11.199-11.199 0-6.1602 5.0391-11.199 11.199-11.199 6.1602 0 11.199 5.0391 11.199 11.199zm56 0c0 6.1602-5.0391 11.199-11.199 11.199-6.1602 0-11.199-5.0391-11.199-11.199 0-6.1602 5.0391-11.199 11.199-11.199 6.1602 0 11.199 5.0391 11.199 11.199zm56 0c0 6.1602-5.0391 11.199-11.199 11.199-6.1602 0-11.199-5.0391-11.199-11.199 0-6.1602 5.0391-11.199 11.199-11.199 6.1602 0 11.199 5.0391 11.199 11.199z"/>
</svg>
