<?xml version="1.0" encoding="utf-8"?>
<svg version="1.1" id="Слой_1" xmlns="http://www.w3.org/2000/svg" xmlns:xlink="http://www.w3.org/1999/xlink" x="0px" y="0px"
	 viewBox="0 0 70.5 99.8" style="enable-background:new 0 0 70.5 99.8;" xml:space="preserve">
<style type="text/css">
	.st0{clip-path:url(#SVGID_2_);fill:#FFFFFF;}
</style>
<g>
	<defs>
		<rect id="SVGID_1_" x="0" y="0" width="70.5" height="99.8"/>
	</defs>
	<clipPath id="SVGID_2_">
		<use xlink:href="#SVGID_1_"  style="overflow:visible;"/>
	</clipPath>
	<path class="st0" d="M1.3,32.6c-1.5,1.3-1.7,3.5-0.5,5c1.3,1.5,3.5,1.7,5,0.5c0.2-0.1,0.3-0.3,0.5-0.5l25.5-25.5v84.3
		c0.1,2,1.8,3.5,3.7,3.4c1.8-0.1,3.3-1.5,3.4-3.4V12.1l25.5,25.5c1.4,1.3,3.6,1.3,5,0c1.4-1.4,1.4-3.6,0-5c0,0,0,0,0,0L37.8,1.1
		c-1.3-1.4-3.5-1.4-4.9-0.1c0,0-0.1,0.1-0.1,0.1L1.3,32.6z"/>
</g>
</svg>
