<?xml version="1.0" encoding="UTF-8"?>
<svg width="700pt" height="700pt" version="1.1" viewBox="0 0 700 700" xmlns="http://www.w3.org/2000/svg" xmlns:xlink="http://www.w3.org/1999/xlink">
 <g>
  <path d="m109.2 134.4c-6.1094 0-11.199 5.0938-11.199 11.199v268.8c0 6.1094 5.0938 11.199 11.199 11.199h481.6c6.1094 0 11.199-5.0938 11.199-11.199v-268.8c0-6.1094-5.0898-11.199-11.199-11.199zm3.3242 11.199h474.95l-237.48 188.82-237.48-188.82zm-3.3242 11.551 141.93 112.88-141.93 136.68zm481.6 0v249.55l-141.93-136.68zm-330.93 119.88 86.625 68.949c2.0469 1.6367 4.9531 1.6367 7 0l86.625-68.949 142.62 137.38h-465.5z"/>
 </g>
</svg>
