<?xml version="1.0" encoding="utf-8"?>
<!-- Generator: Adobe Illustrator 25.0.1, SVG Export Plug-In . SVG Version: 6.00 Build 0)  -->
<svg version="1.1" id="Слой_1" xmlns="http://www.w3.org/2000/svg" xmlns:xlink="http://www.w3.org/1999/xlink" x="0px" y="0px"
	 viewBox="0 0 175.2 175.2" style="enable-background:new 0 0 175.2 175.2;" xml:space="preserve">
<style type="text/css">
	.st0{fill:#0082FF;}
	.st1{fill:#010000;}
	.st2{fill:#FFFFFF;}
</style>
<path class="st0" d="M112.6,175.2H62.5C28,175.2,0,147.2,0,112.6V62.5C0,28,28,0,62.5,0h50.1c34.5,0,62.5,28,62.5,62.5v50.1
	C175.2,147.2,147.2,175.2,112.6,175.2z"/>
<g>
	<g>
		<path class="st1" d="M34,93c3,0,5.5,1.5,7.2,3.1l-3,3.3c-1.2-1.1-2.4-1.8-4.1-1.8c-3.4,0-6,2.9-6,7.6c0,4.9,2.3,7.7,5.9,7.7
			c2,0,3.4-0.8,4.6-2.1l3,3.2c-2,2.3-4.7,3.5-7.7,3.5c-6.3,0-11.4-4.2-11.4-12.1C22.5,97.6,27.8,93,34,93z"/>
		<path class="st1" d="M42.6,105.2c0-7.7,4.5-12.2,11-12.2c6.5,0,11,4.5,11,12.2c0,7.7-4.5,12.4-11,12.4
			C47.1,117.6,42.6,112.9,42.6,105.2z M59,105.2c0-4.7-2.1-7.6-5.4-7.6c-3.3,0-5.4,2.8-5.4,7.6c0,4.8,2.1,7.8,5.4,7.8
			C56.9,113,59,110,59,105.2z"/>
		<path class="st1" d="M68,105.2C68,97.5,72.5,93,79,93c6.5,0,11,4.5,11,12.2c0,7.7-4.5,12.4-11,12.4C72.5,117.6,68,112.9,68,105.2z
			 M84.4,105.2c0-4.7-2.1-7.6-5.4-7.6c-3.3,0-5.4,2.8-5.4,7.6c0,4.8,2.1,7.8,5.4,7.8C82.3,113,84.4,110,84.4,105.2z"/>
		<path class="st1" d="M94.5,93.5h8.8c5.3,0,9.5,1.9,9.5,7.6c0,5.6-4.3,8-9.5,8H100v8h-5.5V93.5z M103,104.9c3,0,4.5-1.3,4.5-3.8
			c0-2.5-1.6-3.4-4.5-3.4h-3v7.2H103z"/>
		<path class="st1" d="M117,93.5h15.2V98h-9.7v4.8h8.2v4.5h-8.2v5.4h10.1v4.5H117V93.5z"/>
		<path class="st1" d="M150.3,117.1l-4.6-8.5h-3v8.5h-5.5V93.5h8.7c5.1,0,9.4,1.7,9.4,7.4c0,3.5-1.7,5.7-4.3,6.8l5.5,9.5H150.3z
			 M142.7,104.4h2.8c2.9,0,4.4-1.2,4.4-3.5c0-2.3-1.6-3.1-4.4-3.1h-2.8V104.4z"/>
		<path class="st2" d="M46.6,123.9H49v10.2h-2.4V123.9z"/>
		<path class="st2" d="M51.4,123.9h2.5l1.7,4.6l0.6,1.8h0.1l0.6-1.8l1.7-4.6h2.5v10.2H59v-3.8c0-1,0.2-2.5,0.3-3.5h-0.1l-0.9,2.4
			l-1.6,4h-0.9l-1.6-4l-0.8-2.4h-0.1c0.1,1,0.3,2.5,0.3,3.5v3.8h-2.2V123.9z"/>
		<path class="st2" d="M63.7,123.9h2.5l1.7,4.6l0.6,1.8h0.1l0.6-1.8l1.7-4.6h2.5v10.2h-2.2v-3.8c0-1,0.2-2.5,0.3-3.5h-0.1l-0.9,2.4
			l-1.6,4H68l-1.6-4l-0.8-2.4h-0.1c0.1,1,0.3,2.5,0.3,3.5v3.8h-2.2V123.9z"/>
		<path class="st2" d="M75.4,129c0-3.3,1.9-5.3,4.8-5.3c2.8,0,4.8,1.9,4.8,5.3c0,3.3-1.9,5.4-4.8,5.4
			C77.3,134.4,75.4,132.3,75.4,129z M82.5,129c0-2-0.9-3.3-2.3-3.3c-1.4,0-2.3,1.2-2.3,3.3c0,2.1,0.9,3.4,2.3,3.4
			C81.6,132.4,82.5,131.1,82.5,129z"/>
		<path class="st2" d="M86.8,123.9h3.6c2.2,0,3.9,0.6,3.9,2.5c0,0.9-0.5,1.9-1.8,2.2v0.1c1.5,0.3,2.3,1,2.3,2.4c0,2.1-1.8,3-4.1,3
			h-3.9V123.9z M90.3,128.1c1.2,0,1.7-0.5,1.7-1.3c0-0.8-0.5-1.1-1.6-1.1h-1.1v2.3H90.3z M90.5,132.4c1.3,0,2-0.5,2-1.4
			c0-0.9-0.7-1.3-2-1.3h-1.3v2.7H90.5z"/>
		<path class="st2" d="M96.5,123.9h2.4v10.2h-2.4V123.9z"/>
		<path class="st2" d="M101.3,123.9h2.4v8.3h4.1v1.9h-6.5V123.9z"/>
		<path class="st2" d="M109.6,123.9h2.4v10.2h-2.4V123.9z"/>
		<path class="st2" d="M114.4,123.9h6.6v1.9h-4.2v2.1h3.6v1.9h-3.6v2.4h4.4v1.9h-6.7V123.9z"/>
		<path class="st2" d="M123.2,123.9h2.4l2.7,5.1l1,2.3h0.1c-0.1-1.1-0.3-2.5-0.3-3.7v-3.6h2.2v10.2H129l-2.7-5.1l-1-2.2h-0.1
			c0.1,1.1,0.3,2.5,0.3,3.7v3.6h-2.3V123.9z"/>
	</g>
	<g>
		<path class="st2" d="M89.7,85.8L94,59.5c-1.3,0.4-2.7,0.7-4.2,0.7s-2.9-0.2-4.2-0.7L89.7,85.8z"/>
		<path d="M78.2,48.7c0-6.4,5.2-11.6,11.6-11.6c6.4,0,11.6,5.2,11.6,11.6c0,4-2,7.5-5.1,9.6l1.8,6.4c5.7-3,9.6-9,9.6-15.9
			c0-9.9-8-17.9-17.9-17.9c-9.9,0-17.9,8-17.9,17.9c0,6.8,3.9,12.8,9.5,15.8l1.8-6.4C80.1,56.2,78.2,52.7,78.2,48.7z"/>
		<circle class="st2" cx="89.7" cy="48.7" r="4.7"/>
	</g>
</g>
</svg>
