<svg xmlns="http://www.w3.org/2000/svg" viewBox="0 0 24.93 24.93"><defs><style>.cls-1{fill:#5e5e5e;}</style></defs><g id="Layer_2" data-name="Layer 2"><g id="Layer_1-2" data-name="Layer 1"><path class="cls-1" d="M19.93,0H5A5,5,0,0,0,0,5V19.93a5,5,0,0,0,5,5H19.93a5,5,0,0,0,5-5V5A5,5,0,0,0,19.93,0Zm3,19.93a3,3,0,0,1-3,3H5a3,3,0,0,1-3-3V5A3,3,0,0,1,5,2H19.93a3,3,0,0,1,3,3ZM12.47,7.36a5.11,5.11,0,1,0,5.1,5.12h0A5.11,5.11,0,0,0,12.47,7.36Zm0,8.21a3.11,3.11,0,1,1,3.1-3.12v0h0a3.1,3.1,0,0,1-3.1,3.08ZM21,4.67a1,1,0,0,1-1,1H19a1,1,0,0,1,0-2h1A1,1,0,0,1,21,4.67Z"/></g></g></svg>
