<?xml version="1.0" encoding="utf-8"?>
<!-- Generator: Adobe Illustrator 25.0.1, SVG Export Plug-In . SVG Version: 6.00 Build 0)  -->
<svg version="1.1" id="Слой_1" xmlns="http://www.w3.org/2000/svg" xmlns:xlink="http://www.w3.org/1999/xlink" x="0px" y="0px"
	 viewBox="0 0 204.7 179.5" style="enable-background:new 0 0 204.7 179.5;" xml:space="preserve">
<style type="text/css">
	.st0{fill:#010000;}
	.st1{fill:#0082FF;}
</style>
<g>
	<g>
		<path class="st0" d="M17.6,116.4c4.6,0,8.5,2.2,10.9,4.7l-4.6,5c-1.9-1.7-3.6-2.7-6.2-2.7c-5.2,0-9.2,4.4-9.2,11.7
			c0,7.4,3.6,11.8,9,11.8c3.1,0,5.2-1.3,7-3.2l4.6,4.9c-3.1,3.5-7.1,5.3-11.7,5.3c-9.6,0-17.4-6.4-17.4-18.5
			C0,123.4,8.1,116.4,17.6,116.4z"/>
		<path class="st0" d="M30.8,135c0-11.8,6.9-18.6,16.8-18.6c10,0,16.8,6.8,16.8,18.6c0,11.8-6.8,18.9-16.8,18.9
			C37.7,153.9,30.8,146.8,30.8,135z M55.8,135c0-7.2-3.2-11.5-8.2-11.5c-5,0-8.2,4.3-8.2,11.5c0,7.3,3.2,11.9,8.2,11.9
			C52.6,146.9,55.8,142.3,55.8,135z"/>
		<path class="st0" d="M69.5,135c0-11.8,6.9-18.6,16.8-18.6c10,0,16.8,6.8,16.8,18.6c0,11.8-6.8,18.9-16.8,18.9
			C76.4,153.9,69.5,146.8,69.5,135z M94.6,135c0-7.2-3.2-11.5-8.2-11.5c-5,0-8.2,4.3-8.2,11.5c0,7.3,3.2,11.9,8.2,11.9
			C91.4,146.9,94.6,142.3,94.6,135z"/>
		<path class="st0" d="M110,117.1h13.5c8.1,0,14.5,2.9,14.5,11.7c0,8.5-6.6,12.3-14.5,12.3h-5.1v12.3H110V117.1z M123,134.5
			c4.6,0,6.8-2,6.8-5.8c0-3.8-2.4-5.2-6.8-5.2h-4.6v10.9H123z"/>
		<path class="st0" d="M144.4,117.1h23.2v6.9h-14.8v7.3h12.6v6.8h-12.6v8.3h15.4v6.9h-23.8V117.1z"/>
		<path class="st0" d="M195.4,153.2l-7.1-13h-4.5v13h-8.4v-36.2h13.3c7.8,0,14.3,2.7,14.3,11.3c0,5.3-2.7,8.7-6.6,10.4l8.3,14.5
			H195.4z M183.7,133.7h4.3c4.4,0,6.8-1.8,6.8-5.4s-2.4-4.8-6.8-4.8h-4.3V133.7z"/>
		<path class="st1" d="M36.9,163.6h3.6v15.6h-3.6V163.6z"/>
		<path class="st1" d="M44.2,163.6h3.8l2.7,7l1,2.7h0.1l1-2.7l2.6-7h3.8v15.6h-3.4v-5.7c0-1.5,0.3-3.8,0.5-5.3h-0.1l-1.3,3.6
			l-2.5,6.1h-1.4l-2.5-6.1l-1.3-3.6h-0.1c0.2,1.5,0.5,3.8,0.5,5.3v5.7h-3.3V163.6z"/>
		<path class="st1" d="M62.9,163.6h3.8l2.7,7l1,2.7h0.1l1-2.7l2.6-7h3.8v15.6h-3.4v-5.7c0-1.5,0.3-3.8,0.5-5.3h-0.1l-1.3,3.6
			l-2.5,6.1h-1.4l-2.5-6.1l-1.3-3.6h-0.1c0.2,1.5,0.5,3.8,0.5,5.3v5.7h-3.3V163.6z"/>
		<path class="st1" d="M80.8,171.3c0-5.1,3-8,7.3-8c4.3,0,7.3,3,7.3,8c0,5.1-2.9,8.2-7.3,8.2C83.8,179.5,80.8,176.5,80.8,171.3z
			 M91.6,171.3c0-3.1-1.4-5-3.6-5c-2.2,0-3.6,1.9-3.6,5c0,3.1,1.4,5.1,3.6,5.1C90.3,176.5,91.6,174.5,91.6,171.3z"/>
		<path class="st1" d="M98.3,163.6h5.5c3.3,0,5.9,0.9,5.9,3.9c0,1.4-0.8,2.9-2.7,3.4v0.1c2.3,0.4,3.5,1.6,3.5,3.7
			c0,3.2-2.7,4.6-6.2,4.6h-5.9V163.6z M103.6,169.9c1.8,0,2.6-0.7,2.6-1.9s-0.8-1.7-2.5-1.7H102v3.6H103.6z M104,176.5
			c2,0,3-0.7,3-2.1c0-1.4-1-2-3-2h-2v4.1H104z"/>
		<path class="st1" d="M113.1,163.6h3.6v15.6h-3.6V163.6z"/>
		<path class="st1" d="M120.5,163.6h3.6v12.7h6.3v3h-9.9V163.6z"/>
		<path class="st1" d="M133.2,163.6h3.6v15.6h-3.6V163.6z"/>
		<path class="st1" d="M140.5,163.6h10v3h-6.4v3.1h5.4v3h-5.4v3.6h6.6v3h-10.3V163.6z"/>
		<path class="st1" d="M153.9,163.6h3.7l4.2,7.8l1.6,3.5h0.1c-0.2-1.7-0.5-3.9-0.5-5.7v-5.5h3.4v15.6h-3.7l-4.2-7.8L157,168h-0.1
			c0.2,1.7,0.5,3.8,0.5,5.7v5.5h-3.5V163.6z"/>
	</g>
	<g>
		<path class="st1" d="M102.8,84l6.5-40.2c-2,0.7-4.2,1-6.5,1c-2.3,0-4.5-0.4-6.5-1L102.8,84z"/>
		<path d="M85.1,27.3c0-9.8,7.9-17.7,17.7-17.7c9.8,0,17.7,7.9,17.7,17.7c0,6.1-3.1,11.5-7.8,14.6l2.8,9.7
			c8.7-4.6,14.7-13.7,14.7-24.3c0-15.1-12.3-27.4-27.4-27.4C87.6,0,75.3,12.3,75.3,27.4c0,10.5,5.9,19.6,14.5,24.2l2.8-9.8
			C88.1,38.7,85.1,33.3,85.1,27.3z"/>
		<circle class="st1" cx="102.8" cy="27.3" r="7.2"/>
	</g>
</g>
</svg>
