<?xml version="1.0" encoding="utf-8"?>
<!-- Generator: Adobe Illustrator 25.0.1, SVG Export Plug-In . SVG Version: 6.00 Build 0)  -->
<svg version="1.1" id="Слой_1" xmlns="http://www.w3.org/2000/svg" xmlns:xlink="http://www.w3.org/1999/xlink" x="0px" y="0px"
	 viewBox="0 0 276 63.9" style="enable-background:new 0 0 276 63.9;" xml:space="preserve">
<style type="text/css">
	.st0{fill:#010000;}
	.st1{fill:#0082FF;}
</style>
<g>
	<g>
		<path class="st0" d="M89,0.3c4.6,0,8.5,2.2,10.9,4.7l-4.6,5c-1.9-1.7-3.6-2.7-6.2-2.7c-5.2,0-9.2,4.4-9.2,11.7
			c0,7.4,3.6,11.8,9,11.8c3.1,0,5.2-1.3,7-3.2l4.6,4.9c-3.1,3.5-7.1,5.3-11.7,5.3c-9.6,0-17.4-6.4-17.4-18.5
			C71.3,7.3,79.4,0.3,89,0.3z"/>
		<path class="st0" d="M102.1,18.9c0-11.8,6.9-18.6,16.8-18.6c10,0,16.8,6.8,16.8,18.6c0,11.8-6.8,18.9-16.8,18.9
			C109,37.9,102.1,30.8,102.1,18.9z M127.1,18.9c0-7.2-3.2-11.5-8.2-11.5c-5,0-8.2,4.3-8.2,11.5c0,7.3,3.2,11.9,8.2,11.9
			C124,30.8,127.1,26.2,127.1,18.9z"/>
		<path class="st0" d="M140.9,18.9c0-11.8,6.9-18.6,16.8-18.6c10,0,16.8,6.8,16.8,18.6c0,11.8-6.8,18.9-16.8,18.9
			C147.7,37.9,140.9,30.8,140.9,18.9z M165.9,18.9c0-7.2-3.2-11.5-8.2-11.5c-5,0-8.2,4.3-8.2,11.5c0,7.3,3.2,11.9,8.2,11.9
			C162.7,30.8,165.9,26.2,165.9,18.9z"/>
		<path class="st0" d="M181.4,1h13.5c8.1,0,14.5,2.9,14.5,11.7c0,8.5-6.6,12.3-14.5,12.3h-5.1v12.3h-8.4V1z M194.4,18.4
			c4.6,0,6.8-2,6.8-5.8c0-3.8-2.4-5.2-6.8-5.2h-4.6v10.9H194.4z"/>
		<path class="st0" d="M215.7,1h23.2v6.9h-14.8v7.3h12.6V22h-12.6v8.3h15.4v6.9h-23.8V1z"/>
		<path class="st0" d="M266.7,37.2l-7.1-13h-4.5v13h-8.4V1H260c7.8,0,14.3,2.7,14.3,11.3c0,5.3-2.7,8.7-6.6,10.4l8.3,14.5H266.7z
			 M255.1,17.7h4.3c4.4,0,6.8-1.8,6.8-5.4s-2.4-4.8-6.8-4.8h-4.3V17.7z"/>
		<path class="st1" d="M108.2,47.5h3.6v15.6h-3.6V47.5z"/>
		<path class="st1" d="M115.6,47.5h3.8l2.7,7l1,2.7h0.1l1-2.7l2.6-7h3.8v15.6h-3.4v-5.7c0-1.5,0.3-3.8,0.5-5.3h-0.1l-1.3,3.6
			l-2.5,6.1h-1.4l-2.5-6.1l-1.3-3.6h-0.1c0.2,1.5,0.5,3.8,0.5,5.3v5.7h-3.3V47.5z"/>
		<path class="st1" d="M134.2,47.5h3.8l2.7,7l1,2.7h0.1l1-2.7l2.6-7h3.8v15.6h-3.4v-5.7c0-1.5,0.3-3.8,0.5-5.3h-0.1l-1.3,3.6
			l-2.5,6.1h-1.4l-2.5-6.1l-1.3-3.6h-0.1c0.2,1.5,0.5,3.8,0.5,5.3v5.7h-3.3V47.5z"/>
		<path class="st1" d="M152.1,55.3c0-5.1,3-8,7.3-8c4.3,0,7.3,3,7.3,8c0,5.1-2.9,8.2-7.3,8.2C155.1,63.5,152.1,60.4,152.1,55.3z
			 M163,55.3c0-3.1-1.4-5-3.6-5c-2.2,0-3.6,1.9-3.6,5c0,3.1,1.4,5.1,3.6,5.1C161.6,60.4,163,58.4,163,55.3z"/>
		<path class="st1" d="M169.7,47.5h5.5c3.3,0,5.9,0.9,5.9,3.9c0,1.4-0.8,2.9-2.7,3.4v0.1c2.3,0.4,3.5,1.6,3.5,3.7
			c0,3.2-2.7,4.6-6.2,4.6h-5.9V47.5z M175,53.9c1.8,0,2.6-0.7,2.6-1.9s-0.8-1.7-2.5-1.7h-1.7v3.6H175z M175.3,60.5c2,0,3-0.7,3-2.1
			c0-1.4-1-2-3-2h-2v4.1H175.3z"/>
		<path class="st1" d="M184.5,47.5h3.6v15.6h-3.6V47.5z"/>
		<path class="st1" d="M191.8,47.5h3.6v12.7h6.3v3h-9.9V47.5z"/>
		<path class="st1" d="M204.5,47.5h3.6v15.6h-3.6V47.5z"/>
		<path class="st1" d="M211.8,47.5h10v3h-6.4v3.1h5.4v3h-5.4v3.6h6.6v3h-10.3V47.5z"/>
		<path class="st1" d="M225.2,47.5h3.7l4.2,7.8l1.6,3.5h0.1c-0.2-1.7-0.5-3.9-0.5-5.7v-5.5h3.4v15.6h-3.7l-4.2-7.8l-1.6-3.4h-0.1
			c0.2,1.7,0.5,3.8,0.5,5.7v5.5h-3.5V47.5z"/>
	</g>
	<g>
		<path class="st1" d="M20.8,63.9l4.9-30.6c-1.5,0.5-3.2,0.8-4.9,0.8c-1.7,0-3.4-0.3-4.9-0.8L20.8,63.9z"/>
		<path d="M7.4,20.8c0-7.4,6-13.4,13.4-13.4c7.4,0,13.4,6,13.4,13.4c0,4.6-2.3,8.7-5.9,11.1l2.1,7.4c6.6-3.5,11.2-10.5,11.2-18.5
			C41.7,9.4,32.3,0,20.8,0C9.4,0,0,9.4,0,20.8c0,8,4.5,14.9,11.1,18.4l2.1-7.4C9.7,29.4,7.4,25.4,7.4,20.8z"/>
		<circle class="st1" cx="20.8" cy="20.8" r="5.5"/>
	</g>
</g>
</svg>
