<?xml version="1.0" encoding="UTF-8"?>
<svg width="700pt" height="700pt" version="1.1" viewBox="0 0 700 700" xmlns="http://www.w3.org/2000/svg" xmlns:xlink="http://www.w3.org/1999/xlink">
 <g>
  <path d="m445.2 28c21.621 0 39.199 17.578 39.199 39.199v425.6c0 21.621-17.578 39.199-39.199 39.199h-190.4c-21.621 0-39.199-17.582-39.199-39.199v-425.6c0-21.621 17.578-39.199 39.199-39.199zm0 11.199h-21l-12.602 16.801h-123.2l-12.602-16.801h-21c-15.609 0-28 12.391-28 28v425.6c0 15.609 12.391 28 28 28h190.4c15.609 0 28-12.391 28-28v-425.6c0-15.609-12.391-28-28-28z"/>
 </g>
</svg>
