<?xml version="1.0" encoding="utf-8"?>
<!-- Generator: Adobe Illustrator 25.0.1, SVG Export Plug-In . SVG Version: 6.00 Build 0)  -->
<svg version="1.1" id="Слой_1" xmlns="http://www.w3.org/2000/svg" xmlns:xlink="http://www.w3.org/1999/xlink" x="0px" y="0px"
	 viewBox="0 0 40 35.7" style="enable-background:new 0 0 40 35.7;" xml:space="preserve">
<g>
	<path d="M35.9,13.3h-3.6v-2.9H3.8V22c0,3.3,1.6,6.2,4.7,8.2c0.3,0.2,0.7,0.4,1,0.6H0l2.6,3l0,0c1.5,1.2,3.1,1.9,4.9,1.9h21.1
		c1.7,0,3.4-0.6,4.9-1.9l0,0l2.6-3h-9.5c0.3-0.2,0.7-0.4,1-0.6c2.4-1.5,3.9-3.6,4.5-6h3.8c1.7,0,4.1-1.6,4.1-4.1v-2.4
		C40,15.2,38.2,13.3,35.9,13.3L35.9,13.3z M32.3,17.7h3c0.2,0,0.5,0.2,0.5,0.5v1.3c0,0.2-0.2,0.5-0.5,0.5h-3V17.7z M32.5,32.7
		c-1.2,1-2.5,1.5-3.9,1.5l-21.1,0c-1.4,0-2.7-0.5-3.9-1.5l-0.5-0.6l10,0H33L32.5,32.7z M30.9,22c0,2.9-1.4,5.2-4,7
		c-1.8,1.2-3.7,1.7-4.1,1.8l-9.4,0c-0.8-0.2-8.1-2.2-8.1-8.8l0-10.1h25.7L30.9,22z M38.6,20c0,1.6-1.6,2.7-2.7,2.7h-3.6
		c0-0.3,0-0.5,0-0.8v-0.7h3c1,0,1.9-0.8,1.9-1.9v-1.3c0-1-0.8-1.9-1.9-1.9h-3v-1.5h3.6c1.5,0,2.7,1.2,2.7,2.9L38.6,20z"/>
	<path d="M16.7,6.6c0,0.1,0.1,0.2,0.1,0.3C16.9,6.9,17,7,17,7.1c0.2,0.3,0.4,0.6,0.7,0.9l1-1c-0.2-0.2-0.4-0.5-0.5-0.7
		c0-0.1-0.1-0.1-0.1-0.2c0-0.1-0.1-0.1-0.1-0.2c-0.1-0.1-0.1-0.2-0.1-0.3c0-0.1,0-0.2,0-0.2c0-0.1,0-0.1,0-0.2c0,0,0-0.1,0.1-0.1
		L18.1,5l0.1-0.1c0,0,0.1-0.1,0.1-0.1c0,0,0,0,0,0l0.1-0.1c0,0,0.1,0,0.1-0.1l0,0c0,0,0.1-0.1,0.1-0.1l0,0c0.2-0.2,0.3-0.3,0.4-0.5
		c0,0,0,0,0-0.1l0,0c0,0,0,0,0-0.1l0-0.1c0,0,0-0.1,0-0.1l0,0c0.1-0.1,0.1-0.2,0.2-0.4c0-0.1,0.1-0.3,0.1-0.4c0-0.1,0-0.3,0-0.4
		c0-0.3-0.1-0.6-0.2-0.8c-0.1-0.2-0.2-0.4-0.3-0.7c-0.1-0.2-0.3-0.4-0.4-0.5c-0.1-0.1-0.2-0.1-0.3-0.2c-0.1-0.1-0.2-0.1-0.3-0.2
		l-0.7,1.3c0,0,0.1,0.1,0.1,0.1c0,0,0.1,0.1,0.1,0.1c0.1,0.1,0.2,0.2,0.2,0.3c0.1,0.1,0.1,0.2,0.2,0.3c0,0.1,0.1,0.2,0.1,0.4
		c0,0.1,0,0.1,0,0.2c0,0.1,0,0.1,0,0.2c0,0.1,0,0.1-0.1,0.2l-0.1,0.2c-0.1,0.1-0.2,0.2-0.3,0.3l0,0c0,0,0,0-0.1,0.1l0,0c0,0,0,0,0,0
		l-0.1,0.1c0,0-0.1,0-0.1,0.1c-0.1,0.1-0.1,0.1-0.2,0.2l0,0c0,0,0,0-0.1,0.1l0,0c0,0,0,0,0,0.1l0,0l-0.2,0.3
		c-0.1,0.1-0.1,0.2-0.1,0.3c-0.1,0.2-0.1,0.4-0.2,0.6c0,0.2,0,0.4,0.1,0.7C16.6,6.2,16.6,6.4,16.7,6.6L16.7,6.6z"/>
	<path d="M22.6,6.6c0,0.1,0.1,0.2,0.1,0.3c0,0.1,0.1,0.2,0.2,0.3c0.2,0.3,0.4,0.6,0.7,0.9l1-1c-0.2-0.2-0.4-0.5-0.5-0.7
		C24,6.3,24,6.2,24,6.2c0-0.1-0.1-0.1-0.1-0.2c-0.1-0.1-0.1-0.2-0.1-0.3c0-0.1,0-0.2,0-0.2c0-0.1,0-0.1,0-0.2c0,0,0-0.1,0.1-0.1
		L24,4.9c0,0,0.1-0.1,0.1-0.1c0,0,0,0,0,0l0.1-0.1c0,0,0.1,0,0.1-0.1l0,0c0,0,0.1-0.1,0.1-0.1l0,0c0.2-0.2,0.3-0.3,0.4-0.5
		c0,0,0,0,0-0.1l0,0c0,0,0,0,0-0.1l0-0.1c0,0,0-0.1,0-0.1l0,0c0.1-0.1,0.1-0.2,0.2-0.4c0-0.1,0.1-0.3,0.1-0.4c0-0.1,0-0.3,0-0.4
		c0-0.3-0.1-0.6-0.2-0.8c-0.1-0.2-0.2-0.4-0.3-0.7c-0.1-0.2-0.3-0.4-0.4-0.5c-0.1-0.1-0.2-0.1-0.3-0.2C24.2,0.1,24.1,0.1,24,0
		l-0.7,1.3c0,0,0.1,0.1,0.1,0.1c0,0,0.1,0.1,0.1,0.1c0.1,0.1,0.2,0.2,0.2,0.3c0.1,0.1,0.1,0.2,0.2,0.3C24,2.2,24,2.3,24,2.4
		c0,0.1,0,0.1,0,0.2c0,0.1,0,0.1,0,0.2c0,0.1,0,0.1-0.1,0.2l-0.1,0.2c-0.1,0.1-0.2,0.2-0.3,0.3l0,0c0,0,0,0-0.1,0.1l0,0c0,0,0,0,0,0
		l-0.1,0.1c0,0,0,0-0.1,0.1C23.1,3.8,23,3.9,23,4l0,0c0,0,0,0-0.1,0.1l0,0c0,0,0,0,0,0.1l0,0l-0.2,0.3c-0.1,0.1-0.1,0.2-0.1,0.3
		c-0.1,0.2-0.1,0.4-0.2,0.6c0,0.2,0,0.4,0.1,0.7C22.4,6.2,22.5,6.4,22.6,6.6L22.6,6.6z"/>
	<path d="M10.9,6.6c0,0.1,0.1,0.2,0.1,0.3c0,0.1,0.1,0.2,0.2,0.3c0.2,0.3,0.4,0.6,0.7,0.9l1-1c-0.2-0.2-0.4-0.5-0.5-0.7
		c0-0.1-0.1-0.1-0.1-0.2c0-0.1-0.1-0.1-0.1-0.2c-0.1-0.1-0.1-0.2-0.1-0.3c0-0.1,0-0.2,0-0.2c0-0.1,0-0.1,0-0.2c0,0,0-0.1,0.1-0.1
		l0.2-0.2c0,0,0.1-0.1,0.1-0.1c0,0,0,0,0,0l0.1-0.1c0,0,0.1,0,0.1-0.1l0,0c0,0,0.1-0.1,0.1-0.1l0,0c0.2-0.2,0.3-0.3,0.4-0.5
		c0,0,0-0.1,0-0.1l0,0c0,0,0,0,0-0.1l0-0.1c0,0,0-0.1,0-0.1l0,0c0.1-0.1,0.1-0.2,0.2-0.4c0-0.1,0.1-0.3,0.1-0.4c0-0.1,0-0.3,0-0.4
		c0-0.3-0.1-0.6-0.2-0.8c-0.1-0.2-0.2-0.4-0.3-0.7c-0.1-0.2-0.3-0.4-0.4-0.5c-0.1-0.1-0.2-0.1-0.3-0.2c-0.1-0.1-0.2-0.1-0.3-0.2
		l-0.7,1.3c0,0,0.1,0.1,0.1,0.1c0,0,0.1,0.1,0.1,0.1c0.1,0.1,0.2,0.2,0.2,0.3c0.1,0.1,0.1,0.2,0.2,0.3c0,0.1,0.1,0.2,0.1,0.4
		c0,0.1,0,0.1,0,0.2c0,0.1,0,0.1,0,0.2c0,0.1,0,0.1-0.1,0.2l-0.1,0.2c-0.1,0.1-0.2,0.2-0.3,0.3l0,0c0,0,0,0-0.1,0.1l0,0c0,0,0,0,0,0
		l-0.1,0.1c0,0-0.1,0-0.1,0.1c-0.1,0.1-0.1,0.1-0.2,0.2l0,0c0,0,0,0-0.1,0.1l0,0c0,0,0,0,0,0.1l0,0l-0.2,0.3
		c-0.1,0.1-0.1,0.2-0.1,0.3c-0.1,0.2-0.1,0.4-0.2,0.6c0,0.2,0,0.4,0.1,0.7C10.7,6.2,10.8,6.4,10.9,6.6L10.9,6.6z"/>
</g>
</svg>
