<?xml version="1.0" encoding="UTF-8"?>
<svg width="146px" height="141px" version="1.1" viewBox="0 0 700 700" xmlns="http://www.w3.org/2000/svg" xmlns:xlink="http://www.w3.org/1999/xlink">
 <defs>
  <symbol id="x" overflow="visible">
   <path d="m0.03125 0h-0.03125v-0.015625-0.015625c0.0078125-0.0078125 0.019531-0.015625 0.03125-0.015625v0.015625h-0.015625v0.015625 0.015625h0.015625v-0.015625z"/>
  </symbol>
  <symbol id="c" overflow="visible">
   <path d="m0.03125-0.015625c0-0.0078125-0.0078125-0.015625-0.015625-0.015625v0.015625 0.015625h-0.015625v-0.03125h0.015625 0.015625z"/>
  </symbol>
  <symbol id="a" overflow="visible">
   <path d="m0.03125-0.015625h-0.015625v0.015625h0.015625v-0.015625 0.015625h-0.015625-0.015625v-0.015625l0.015625-0.015625c0.0078125 0 0.015625 0.0078125 0.015625 0.015625zm0 0h-0.015625v-0.015625 0.015625z"/>
  </symbol>
  <symbol id="b" overflow="visible">
   <path d="m0.015625-0.015625v0.015625l0.015625-0.015625zm0.015625 0v0.015625h-0.015625-0.015625v-0.015625h0.015625 0.015625-0.015625v-0.015625h-0.015625v0.015625-0.015625h0.015625 0.015625v0.015625z"/>
  </symbol>
  <symbol id="e" overflow="visible">
   <path d="m0.015625-0.046875v0.015625h0.015625-0.015625v0.015625 0.015625h0.015625-0.015625-0.015625v-0.015625-0.03125z"/>
  </symbol>
  <symbol id="i" overflow="visible">
   <path d="m0.03125-0.03125v-0.015625 0.046875h-0.015625-0.015625v-0.015625l0.015625-0.015625h0.015625zm-0.015625 0.03125 0.015625-0.015625h-0.015625v-0.015625 0.015625 0.015625z"/>
  </symbol>
  <symbol id="m" overflow="visible">
   <path d="m0.015625 0h0.015625v-0.015625c0-0.0078125-0.0078125-0.015625-0.015625-0.015625v0.015625 0.015625zm0-0.03125h0.015625v0.015625 0.015625h-0.015625-0.015625v-0.046875h0.015625z"/>
  </symbol>
  <symbol id="h" overflow="visible">
   <path d="m0-0.03125h0.015625v0.015625l0.015625-0.015625-0.015625 0.03125v0.015625h-0.015625v-0.015625h0.015625z"/>
  </symbol>
  <symbol id="l" overflow="visible">
   <path d="m0.03125-0.03125h-0.015625v0.015625 0.015625h0.015625v-0.015625-0.015625zm0-0.015625v0.015625c0.0078125 0 0.015625 0.0078125 0.015625 0.015625l-0.015625 0.015625h-0.03125v-0.015625-0.015625c0.0078125-0.0078125 0.019531-0.015625 0.03125-0.015625z"/>
  </symbol>
  <symbol id="w" overflow="visible">
   <path d="m0-0.046875h0.015625v0.046875h-0.015625z"/>
  </symbol>
  <symbol id="k" overflow="visible">
   <path d="m0-0.046875h0.015625v0.03125l0.015625-0.015625-0.015625 0.015625 0.015625 0.015625-0.015625-0.015625v0.015625h-0.015625z"/>
  </symbol>
  <symbol id="g" overflow="visible">
   <path d="m0.03125-0.03125v0.015625c0-0.0078125-0.0078125-0.015625-0.015625-0.015625v0.015625h0.015625v0.015625h-0.015625-0.015625v-0.015625 0.015625h0.015625v-0.015625h-0.015625v-0.015625h0.015625 0.015625z"/>
  </symbol>
  <symbol id="f" overflow="visible">
   <path d="m0.03125-0.015625v0.015625-0.015625h-0.015625v-0.015625 0.015625 0.015625h-0.015625v-0.03125h0.015625 0.015625v0.015625z"/>
  </symbol>
  <symbol id="j" overflow="visible">
   <path d="m0-0.046875h0.015625c0.0078125 0 0.015625 0.0078125 0.015625 0.015625v0.015625h-0.015625v0.015625h-0.015625zm0.015625 0.015625v0.015625h0.015625v-0.015625h-0.015625z"/>
  </symbol>
  <symbol id="d" overflow="visible">
   <path d="m0.015625-0.03125v0.015625 0.015625l0.015625-0.015625h-0.015625v-0.015625zm0 0c0.0078125 0 0.015625 0.0078125 0.015625 0.015625v0.015625h-0.015625-0.015625v-0.015625l0.015625-0.015625z"/>
  </symbol>
  <symbol id="v" overflow="visible">
   <path d="m0-0.03125h0.015625v0.015625l0.015625-0.015625v0.03125h-0.015625z"/>
  </symbol>
  <symbol id="u" overflow="visible">
   <path d="m0-0.03125h0.015625v0.03125h-0.015625zm0-0.015625h0.015625v0.015625h-0.015625z"/>
  </symbol>
  <symbol id="t" overflow="visible">
   <path d="m0.03125-0.046875v0.015625h-0.015625 0.015625-0.015625v0.03125h-0.015625v-0.03125l0.015625-0.015625z"/>
  </symbol>
  <symbol id="s" overflow="visible">
   <path d="m0.03125-0.03125h0.015625v0.015625 0.015625-0.015625-0.015625c-0.011719 0-0.015625 0.0078125-0.015625 0.015625v0.015625-0.015625h-0.015625v-0.015625 0.015625 0.015625h-0.015625v-0.03125h0.015625 0.015625z"/>
  </symbol>
  <symbol id="r" overflow="visible">
   <path d="m0.03125-0.015625v0.015625-0.015625h-0.015625v-0.015625 0.015625 0.015625h-0.015625v-0.046875h0.015625v0.015625h0.015625v0.015625z"/>
  </symbol>
  <symbol id="q" overflow="visible">
   <path d="m0-0.046875h0.015625l0.015625 0.03125v-0.03125h0.015625v0.046875h-0.015625l-0.015625-0.03125v0.03125h-0.015625z"/>
  </symbol>
  <symbol id="p" overflow="visible">
   <path d="m0-0.015625v-0.015625h0.015625v0.015625 0.015625l0.015625-0.015625v-0.015625 0.03125h-0.015625-0.015625v-0.015625z"/>
  </symbol>
  <symbol id="o" overflow="visible">
   <path d="m0-0.03125h0.015625v0.03125c0 0.0078125-0.0078125 0.015625-0.015625 0.015625zm0-0.015625h0.015625v0.015625h-0.015625z"/>
  </symbol>
  <symbol id="n" overflow="visible">
   <path d="m0.03125-0.03125v0.015625c0-0.0078125-0.0078125-0.015625-0.015625-0.015625v0.015625 0.015625h0.015625v-0.015625 0.015625h-0.015625-0.015625v-0.015625l0.015625-0.015625h0.015625z"/>
  </symbol>
 </defs>
 <g>
  <path d="m169.45 346.45c3.1953-1.8125 5.9492 3.043 2.7578 4.8555l-72.25 41.266c-1.9883 1.1367-4.5312 2.4609-6.3203 3.7695-4.2305 3.1016-0.77344 5.8555 2.0117 8.707 10.398 10.633 44.93 33.832 80.516 54.266 29.301 16.824 59.191 31.695 76.699 36 12.914 3.1758 20.566 2.1992 32.375-4.2422l310.43-182.59c5.9258-3.4727 9.8672-6.5156 11.574-9.5586 4.4883-8.0195-9.0508-16.004-14.461-19.312-42.129-25.758-85.742-51.598-129.67-74.156-2.7461-1.4102-5.6641-2.8477-8.5352-4.0156-3.4102-1.3828-1.3086-6.5664 2.1016-5.1836 3.1719 1.2891 5.6367 2.5078 8.6758 4.0703 44.156 22.648 88.016 48.641 130.36 74.523 9.4141 5.7539 19.281 12.293 19.258 24.844l-0.03125 16.273c-0.027343 11.32-6.4492 14.453-16.301 20.227l-310.47 181.92c-13.031 7.1172-22.129 8.293-36.406 4.7812-18.309-4.5039-49.34-19.625-79.438-36.59-35.594-20.062-70.051-42.812-80.668-53.672-6.7812-6.9375-6.7383-8.7891-6.5742-15.703 0.11328-4.7148 0.042968-9.4688 0.042968-14.188 0-6.4141 0.63281-8.1211 4.4531-10.594 2.1953-1.4219 4.625-2.7227 6.918-4.0312l72.969-41.672zm-75.852-311.3h149.06c4.625 0 8.3984 3.7734 8.3984 8.3984v24.953c0 2.5352 0.17578 2.4414 2.3164 3.8477l24.18 15.887c0.94141 0.62109 1.7031 1.2383 2.2734 1.8594 2.4297 2.6523 1.1992 5.5977-2.3359 6.1836-1.2539 0.20703-2.6211 0.17188-3.7422 0.17188h-20.52c-1.5859 0-2.1719 0.67969-2.1719 2.2031v22.832c0 4.625-3.7734 8.3984-8.3984 8.3984h-149.06c-4.625 0-8.3984-3.7734-8.3984-8.3984v-77.938c0-4.625 3.7734-8.3984 8.3984-8.3984zm149.06 5.6016h-149.06c-1.5352 0-2.8008 1.2656-2.8008 2.8008v77.938c0 1.5352 1.2656 2.8008 2.8008 2.8008h149.06c1.5352 0 2.8008-1.2656 2.8008-2.8008v-22.711c0-6.2969 1.5625-7.9062 7.9648-7.9062h15.469c3.3789 0 2.6289 0.070312 0.007813-1.6523l-18.586-12.207c-3.7148-2.4414-4.8555-3.918-4.8555-8.5078v-24.953c0-1.5352-1.2656-2.8008-2.8008-2.8008zm194.34 105.84h-149.06c-1.5352 0-2.8008 1.2656-2.8008 2.8008v24.953c0 4.5898-1.1406 6.0664-4.8555 8.5078l-17.422 11.445c-3.8398 2.5234-4.9258 2.4141 0.015625 2.4141h14.59c6.1758-0.14453 7.6719 1.332 7.6719 6.9062v23.707c0 1.5352 1.2656 2.8008 2.8008 2.8008h149.06c1.5352 0 2.8008-1.2656 2.8008-2.8008v-77.938c0-1.5352-1.2656-2.8008-2.8008-2.8008zm-149.06-5.6016h149.06c4.625 0 8.3984 3.7734 8.3984 8.3984v77.938c0 4.625-3.7734 8.3984-8.3984 8.3984h-149.06c-4.625 0-8.3984-3.7734-8.3984-8.3984v-23.289c0-1.4375-0.39844-1.75-1.8438-1.75h-21.336c-2.4648 0.027344-6.1992 0.019532-6.7812-3.0508-0.48047-2.5234 2.2109-4.3398 4.0273-5.5312l23.617-15.516c2.1406-1.4062 2.3164-1.3125 2.3164-3.8477v-24.953c0-4.625 3.7734-8.3984 8.3984-8.3984zm-194.34 105.64h149.06c4.625 0 8.3984 3.7734 8.3984 8.3984v24.953c0 2.5586 0.17188 2.4414 2.3164 3.8477l24.18 15.887c2.5859 1.6992 3.8008 3.3906 3.4648 5.1641-0.57422 3.0195-4.1289 3.0508-6.5898 3.0508h-20.52c-2.0859-0.058594-2.8555 0.49219-2.8633 2.1484-0.046875 7.9492 0.011719 14.938 0.011719 22.887 0 4.625-3.7734 8.3984-8.3984 8.3984h-149.06c-4.625 0-8.3984-3.7734-8.3984-8.3984v-77.938c0-4.625 3.7734-8.3984 8.3984-8.3984zm149.06 5.6016h-149.06c-1.5352 0-2.8008 1.2656-2.8008 2.8008v77.938c0 1.5352 1.2656 2.8008 2.8008 2.8008h149.06c1.5352 0 2.8008-1.2656 2.8008-2.8008v-23.324c-0.058594-5.9414 2.3789-7.3828 8.1836-7.293h14.422c4.5977 0 3.3789 0.019531-0.12891-2.2852l-17.621-11.574c-3.7227-2.4453-4.8555-3.9219-4.8555-8.5078v-24.953c0-1.5352-1.2656-2.8008-2.8008-2.8008zm-90.098 210.49c-2.5391-1.4609-0.31641-5.3281 2.2227-3.8672l16.68 9.6211c2.5391 1.4609 0.31641 5.3281-2.2227 3.8672zm370.81-193.91c-1.918-1.0859-0.26172-4 1.6523-2.9141l3.6484 2.0859c1.918 1.0859 0.26172 4-1.6523 2.9141zm-33.297-19.527c-1.9062-1.1055-0.22656-4.0039 1.6797-2.9023l22.812 13.297c1.9062 1.1055 0.22656 4.0039-1.6797 2.9023zm-251.2 217.46c-2.2109 0-2.2109-3.3594 0-3.3594h51.344c2.2109 0 2.2109 3.3594 0 3.3594zm13.051 11.5c-2.2109 0-2.2109-3.3594 0-3.3594h25.457c2.2109 0 2.2109 3.3594 0 3.3594zm-161.21-67.238c-0.003906 2.0156-0.015625 4.0273-0.0625 6.0469-0.12109 5.0547-0.15234 6.4062 5 11.676 10.27 10.504 44.195 32.844 79.398 52.688 29.738 16.762 60.27 31.672 78.035 36.043 12.918 3.1797 20.57 2.1992 32.375-4.2422l309.88-181.57c7.2383-4.2422 13.734-7.0039 14.02-15.691l0.015625-8.0742c0.007812-3.3047 0.36328-2.7695-1.8711-0.82422-2.3555 2.0547-5.3711 4.0938-9.0039 6.2266l-310.56 182.66c-13.031 7.1172-22.129 8.293-36.406 4.7812-18.074-4.4453-48.477-19.539-78.145-36.57-34.602-19.867-68.371-42.48-80.43-53.938-2.5352-2.4102-2.2383-3.3047-2.2461 0.78906zm259.72-167.99c3.1953-1.8125 5.9492 3.043 2.7578 4.8555l-71.496 40.832c-3.1953 1.8125-5.9492-3.043-2.7578-4.8555z"/>
  <use x="70" y="560.167969" xlink:href="#x"/>
  <use x="70.042969" y="560.167969" xlink:href="#c"/>
  <use x="70.070312" y="560.167969" xlink:href="#a"/>
  <use x="70.105469" y="560.167969" xlink:href="#b"/>
  <use x="70.144531" y="560.167969" xlink:href="#e"/>
  <use x="70.171875" y="560.167969" xlink:href="#a"/>
  <use x="70.210938" y="560.167969" xlink:href="#i"/>
  <use x="70.269531" y="560.167969" xlink:href="#m"/>
  <use x="70.308594" y="560.167969" xlink:href="#h"/>
  <use x="70.363281" y="560.167969" xlink:href="#l"/>
  <use x="70.414063" y="560.167969" xlink:href="#w"/>
  <use x="70.433594" y="560.167969" xlink:href="#a"/>
  <use x="70.46875" y="560.167969" xlink:href="#k"/>
  <use x="70.507812" y="560.167969" xlink:href="#g"/>
  <use x="70.539062" y="560.167969" xlink:href="#b"/>
  <use x="70.578125" y="560.167969" xlink:href="#f"/>
  <use x="70.617188" y="560.167969" xlink:href="#i"/>
  <use x="70.65625" y="560.167969" xlink:href="#c"/>
  <use x="70.707031" y="560.167969" xlink:href="#j"/>
  <use x="70.746094" y="560.167969" xlink:href="#b"/>
  <use x="70.785156" y="560.167969" xlink:href="#f"/>
  <use x="70.824219" y="560.167969" xlink:href="#b"/>
  <use x="70.863281" y="560.167969" xlink:href="#g"/>
  <use x="70.894531" y="560.167969" xlink:href="#d"/>
  <use x="70.933594" y="560.167969" xlink:href="#v"/>
  <use x="70.96875" y="560.167969" xlink:href="#g"/>
  <use x="71.003906" y="560.167969" xlink:href="#k"/>
  <use x="71.039062" y="560.167969" xlink:href="#h"/>
  <use x="71.078125" y="560.167969" xlink:href="#u"/>
  <use x="70" y="560.222656" xlink:href="#t"/>
  <use x="70.023438" y="560.222656" xlink:href="#c"/>
  <use x="70.050781" y="560.222656" xlink:href="#d"/>
  <use x="70.089844" y="560.222656" xlink:href="#s"/>
  <use x="70.167969" y="560.222656" xlink:href="#e"/>
  <use x="70.195313" y="560.222656" xlink:href="#r"/>
  <use x="70.234375" y="560.222656" xlink:href="#a"/>
  <use x="70.292969" y="560.222656" xlink:href="#q"/>
  <use x="70.339844" y="560.222656" xlink:href="#d"/>
  <use x="70.378906" y="560.222656" xlink:href="#p"/>
  <use x="70.417969" y="560.222656" xlink:href="#f"/>
  <use x="70.476562" y="560.222656" xlink:href="#j"/>
  <use x="70.519531" y="560.222656" xlink:href="#c"/>
  <use x="70.546875" y="560.222656" xlink:href="#d"/>
  <use x="70.585938" y="560.222656" xlink:href="#o"/>
  <use x="70.601562" y="560.222656" xlink:href="#a"/>
  <use x="70.640625" y="560.222656" xlink:href="#n"/>
  <use x="70.675781" y="560.222656" xlink:href="#e"/>
 </g>
</svg>
