<?xml version="1.0" encoding="UTF-8"?>
<svg width="106px" height="127px" version="1.1" viewBox="0 0 700 700" xmlns="http://www.w3.org/2000/svg" xmlns:xlink="http://www.w3.org/1999/xlink">
 <g>
  <path d="m409.79 527.19h-262.15c-2.4062 0-4.3398-1.9453-4.3398-4.3398v-343.13c0-2.3945 1.9297-4.3398 4.3398-4.3398h194.45c2.3945 0 4.3398 1.9453 4.3398 4.3398s-1.9453 4.332-4.3398 4.332h-190.11v334.46h253.48v-271.1c0-2.3945 1.9453-4.332 4.3398-4.332s4.332 1.9414 4.332 4.332v275.44c0 2.3945-1.9414 4.3398-4.332 4.3398z"/>
  <path d="m346.43 243.08h52.895l-52.895-52.895zm63.363 8.6719h-67.699c-2.3945 0-4.332-1.9414-4.332-4.3398v-67.695c0-1.7539 1.0469-3.3359 2.6758-4.0039 1.625-0.67188 3.4883-0.30078 4.7148 0.9375l67.699 67.699c1.2422 1.2383 1.6172 3.1016 0.9375 4.7227-0.66406 1.6211-2.2461 2.6758-3.9961 2.6758z"/>
  <path d="m276.91 226.95h-95.953c-2.3984 0-4.3398-1.9414-4.3398-4.3359 0-2.3984 1.9414-4.3398 4.3398-4.3398h95.953c2.4062 0 4.3398 1.9414 4.3398 4.3398 0 2.3945-1.9297 4.3359-4.3398 4.3359z"/>
  <path d="m318.06 269.84h-137.1c-2.3984 0-4.3398-1.9453-4.3398-4.3398 0-2.3945 1.9414-4.332 4.3398-4.332h137.1c2.3945 0 4.3398 1.9414 4.3398 4.332 0 2.3945-1.9453 4.3398-4.3398 4.3398z"/>
  <path d="m376.48 312.73h-195.52c-2.3984 0-4.3398-1.9453-4.3398-4.3398s1.9414-4.3359 4.3398-4.3359h195.52c2.3945 0 4.332 1.9414 4.332 4.3359s-1.9414 4.3398-4.332 4.3398z"/>
  <path d="m376.48 355.62h-195.52c-2.3984 0-4.3398-1.9414-4.3398-4.332 0-2.3945 1.9414-4.3398 4.3398-4.3398h195.52c2.3945 0 4.332 1.9453 4.332 4.3398 0 2.3945-1.9414 4.332-4.332 4.332z"/>
  <path d="m376.48 398.51h-195.52c-2.3984 0-4.3398-1.9414-4.3398-4.332 0-2.3945 1.9414-4.3398 4.3398-4.3398h195.52c2.3945 0 4.332 1.9453 4.332 4.3398 0 2.3945-1.9414 4.332-4.332 4.332z"/>
  <path d="m376.48 441.4h-195.52c-2.3984 0-4.3398-1.9414-4.3398-4.3398 0-2.3945 1.9414-4.332 4.3398-4.332h195.52c2.3945 0 4.332 1.9414 4.332 4.332 0 2.3984-1.9414 4.3398-4.332 4.3398z"/>
  <path d="m376.48 484.3h-195.52c-2.3984 0-4.3398-1.9453-4.3398-4.332 0-2.3984 1.9414-4.3398 4.3398-4.3398h195.52c2.3945 0 4.332 1.9414 4.332 4.3398 0 2.3906-1.9414 4.332-4.332 4.332z"/>
  <path d="m481.06 455.91h-71.266c-2.3945 0-4.3398-1.9453-4.3398-4.3398s1.9453-4.3398 4.3398-4.3398h66.934v-269.3l-65.148-65.156-188.32 0.085937v66.855c0 2.3945-1.9297 4.332-4.3398 4.332-2.3945 0-4.332-1.9414-4.332-4.332v-71.195c0-2.3945 1.9414-4.332 4.332-4.332l194.45-0.085937h0.007812c1.1406 0 2.2461 0.45703 3.0586 1.2695l67.699 67.695c0.81641 0.81641 1.2656 1.918 1.2656 3.0664v275.43c0 2.3945-1.9297 4.3398-4.3398 4.3398z"/>
  <path d="m481.07 180.47h-67.699c-2.3945 0-4.3398-1.9414-4.3398-4.332v-67.699c0-2.3945 1.9453-4.3398 4.3398-4.3398 2.3945 0 4.3398 1.9453 4.3398 4.3398v63.363h63.363c2.3945 0 4.3398 1.9414 4.3398 4.3398 0 2.3945-1.9453 4.332-4.3398 4.332z"/>
  <path d="m552.34 384.62h-71.281c-2.3945 0-4.332-1.9453-4.332-4.3398s1.9414-4.332 4.332-4.332h66.969v-269.3l-65.172-65.16h-188.32v67.008c0 2.3945-1.9414 4.332-4.3398 4.332-2.3906 0-4.332-1.9414-4.332-4.332v-71.348c0-2.3945 1.9453-4.3398 4.332-4.3398h194.45c1.1562 0 2.2578 0.45703 3.0703 1.2695l67.715 67.699c0.80859 0.8125 1.2578 1.918 1.2578 3.0664v275.43c0 2.3945-1.9297 4.3398-4.3555 4.3398z"/>
  <path d="m552.34 109.18h-67.688c-2.3945 0-4.3398-1.9414-4.3398-4.332v-67.699c0-2.3945 1.9453-4.3398 4.3398-4.3398 2.4023 0 4.3398 1.9453 4.3398 4.3398v63.363h63.348c2.4258 0 4.3555 1.9414 4.3555 4.3398 0 2.3945-1.9297 4.332-4.3555 4.332z"/>
 </g>
</svg>
