<?xml version="1.0" encoding="UTF-8"?>
<svg width="150px" height="140px" version="1.1" viewBox="0 0 700 700" xmlns="http://www.w3.org/2000/svg" xmlns:xlink="http://www.w3.org/1999/xlink">
 <defs>
  <symbol id="w" overflow="visible">
   <path d="m0.03125 0h-0.015625-0.015625v-0.015625-0.015625h0.015625 0.015625-0.015625v0.015625 0.015625h0.015625v-0.015625z"/>
  </symbol>
  <symbol id="e" overflow="visible">
   <path d="m0.015625-0.015625v0.015625h-0.015625v-0.03125h0.015625v0.015625-0.015625z"/>
  </symbol>
  <symbol id="b" overflow="visible">
   <path d="m0.03125-0.015625h-0.015625v0.015625c0.0078125 0 0.015625-0.0039062 0.015625-0.015625v0.015625h-0.015625-0.015625v-0.015625l0.015625-0.015625v0.015625h0.015625z"/>
  </symbol>
  <symbol id="a" overflow="visible">
   <path d="m0.015625-0.015625v0.015625-0.015625zm0.015625 0v0.015625h-0.015625-0.015625v-0.015625h0.015625-0.015625v-0.015625h0.015625v0.015625h0.015625z"/>
  </symbol>
  <symbol id="d" overflow="visible">
   <path d="m0.015625-0.03125v0.015625 0.015625h-0.015625v-0.015625-0.015625z"/>
  </symbol>
  <symbol id="l" overflow="visible">
   <path d="m0.015625-0.015625v-0.015625h0.015625v0.03125h-0.015625-0.015625v-0.015625l0.015625-0.015625v0.015625zm0 0.015625v-0.015625 0.015625z"/>
  </symbol>
  <symbol id="k" overflow="visible">
   <path d="m0.015625 0v-0.015625 0.015625zm0-0.015625v-0.015625c0.0078125 0 0.015625 0.0078125 0.015625 0.015625v0.015625h-0.015625-0.015625v-0.03125h0.015625z"/>
  </symbol>
  <symbol id="j" overflow="visible">
   <path d="m0-0.03125h0.015625v0.015625-0.015625h0.015625l-0.015625 0.03125v0.015625h-0.015625v-0.015625h0.015625z"/>
  </symbol>
  <symbol id="i" overflow="visible">
   <path d="m0.015625-0.03125v0.015625 0.015625h0.015625v-0.015625c0-0.0078125-0.0078125-0.015625-0.015625-0.015625zm0 0h0.015625v0.015625 0.015625h-0.015625-0.015625v-0.015625-0.015625h0.015625z"/>
  </symbol>
  <symbol id="v" overflow="visible">
   <path d="m0-0.03125h0.015625v0.03125h-0.015625z"/>
  </symbol>
  <symbol id="f" overflow="visible">
   <path d="m0.03125-0.015625v0.015625h-0.015625v-0.015625 0.015625h-0.015625v-0.03125h0.015625v0.015625-0.015625c0.0078125 0 0.015625 0.0078125 0.015625 0.015625z"/>
  </symbol>
  <symbol id="h" overflow="visible">
   <path d="m0-0.03125h0.015625 0.015625v0.015625h-0.015625v0.015625h-0.015625zm0.015625 0v0.015625-0.015625z"/>
  </symbol>
  <symbol id="g" overflow="visible">
   <path d="m0.03125-0.03125v0.015625h-0.015625c0.0078125 0 0.015625 0.0078125 0.015625 0.015625h-0.015625-0.015625 0.015625v-0.015625h-0.015625l0.015625-0.015625h0.015625z"/>
  </symbol>
  <symbol id="c" overflow="visible">
   <path d="m0.015625-0.015625v0.015625-0.015625zm0-0.015625v0.015625h0.015625c0 0.011719-0.0078125 0.015625-0.015625 0.015625h-0.015625v-0.015625l0.015625-0.015625z"/>
  </symbol>
  <symbol id="u" overflow="visible">
   <path d="m0-0.03125h0.015625v0.015625-0.015625h0.015625l-0.015625 0.03125z"/>
  </symbol>
  <symbol id="t" overflow="visible">
   <path d="m0-0.03125h0.015625v0.015625-0.015625h0.015625l-0.015625 0.015625 0.015625 0.015625h-0.015625v-0.015625 0.015625h-0.015625z"/>
  </symbol>
  <symbol id="s" overflow="visible">
   <path d="m0.015625-0.03125v0.03125h-0.015625v-0.03125h0.015625z"/>
  </symbol>
  <symbol id="r" overflow="visible">
   <path d="m0.03125-0.015625v-0.015625c0.0078125 0 0.015625 0.0078125 0.015625 0.015625v0.015625h-0.015625v-0.015625 0.015625h-0.015625v-0.015625 0.015625h-0.015625v-0.03125h0.015625v0.015625-0.015625 0.015625h0.015625z"/>
  </symbol>
  <symbol id="q" overflow="visible">
   <path d="m0.03125-0.015625v0.015625h-0.015625v-0.015625 0.015625h-0.015625v-0.03125h0.015625v0.015625-0.015625c0.0078125 0 0.015625 0.0078125 0.015625 0.015625z"/>
  </symbol>
  <symbol id="p" overflow="visible">
   <path d="m0-0.03125h0.015625l0.015625 0.015625v-0.015625 0.03125l-0.015625-0.015625v0.015625h-0.015625z"/>
  </symbol>
  <symbol id="o" overflow="visible">
   <path d="m0-0.015625v-0.015625h0.015625v0.015625 0.015625-0.015625-0.015625h0.015625v0.03125h-0.015625-0.015625v-0.015625z"/>
  </symbol>
  <symbol id="n" overflow="visible">
   <path d="m0-0.03125h0.015625v0.03125h-0.015625v0.015625zm0 0h0.015625z"/>
  </symbol>
  <symbol id="m" overflow="visible">
   <path d="m0.03125-0.03125v0.015625h-0.015625v0.015625h0.015625-0.015625-0.015625v-0.015625l0.015625-0.015625h0.015625z"/>
  </symbol>
 </defs>
 <g>
  <path d="m202.88 137.8c0.12891-0.38281 0.32812-0.74609 0.58984-1.0742 0.12109-0.16016 0.26172-0.30859 0.40234-0.4375l1.1562-1.7656c0.90625-1.3711 1.1016-2.4375 0.75781-3.2773-0.49609-1.1953-1.9023-2.4062-3.9648-3.6406l-27.516-16.465-39.5 65.023 26.355 13.168c1.9609 0.95312 3.8281 1.6055 5.3203 1.5781 0.94141-0.019531 1.7812-0.42188 2.4258-1.4297l33.953-51.699zm339.23 223.56 18.816 53.238 56.438 1.4453c2.0547 0.046875 3.6758 1.7539 3.6289 3.8086-0.027344 1.1758-0.59766 2.2109-1.4648 2.8672l-44.809 34.348 16.07 54.145c0.57813 1.9688-0.55078 4.043-2.5195 4.6211-1.168 0.34375-2.3633 0.09375-3.2656-0.57812l-46.406-31.938-46.508 32.004c-1.6875 1.168-4.0117 0.74609-5.1797-0.95312-0.66406-0.96094-0.8125-2.1289-0.50391-3.1641l16.07-54.145-44.809-34.348c-1.6328-1.25-1.9492-3.5859-0.69922-5.2188 0.75781-0.98828 1.9023-1.4922 3.0508-1.4648l56.254-1.4375 18.816-53.238c0.67969-1.9414 2.8086-2.957 4.75-2.2773 1.1094 0.39062 1.9141 1.25 2.2773 2.2773zm12.637 58.137-16.156-45.707-16.156 45.707h-0.007813c-0.50391 1.418-1.8281 2.4453-3.4258 2.4844l-48.469 1.2422 38.492 29.492c1.1836 0.90625 1.7656 2.4922 1.3164 4.0117l-13.805 46.5 39.883-27.449c1.2422-0.89453 2.957-0.96094 4.2852-0.039063l39.945 27.488-13.777-46.387c-0.48438-1.4648-0.019532-3.1367 1.2773-4.125l38.492-29.492-48.234-1.2305c-1.5859 0.066406-3.1094-0.90625-3.6602-2.4844zm-175.7-108.62 5.7773 16.055 56.422 0.30859c2.0547 0.007813 3.7148 1.6797 3.707 3.7344 0 1.1758-0.55078 2.2227-1.3984 2.8945v0.007812l-44.117 35.242 17.156 53.797c0.61719 1.9609-0.46484 4.0508-2.418 4.668-1.1289 0.35547-2.2969 0.14844-3.2031-0.46484l-47.113-31.043-45.863 32.945c-1.6719 1.2031-3.9961 0.82031-5.1875-0.84766-0.69922-0.98047-0.86719-2.1836-0.54297-3.2461l14.953-54.348-42.758-31.426c-1.9492 1.3242-4.0117 2.1641-6.0859 2.3438-2.6875 0.22266-5.2344-0.60547-7.4648-2.8359-2.1289-2.1289-3.8633-5.6094-4.957-10.828l-0.019531-0.046875c-0.60547-3.0625-1.1484-6.2539-1.6992-9.4727-2.2852-13.41-4.6953-27.504-13.121-39.648l0.007813-0.007812c-5.8164-8.0625-17.797-16.512-30.586-25.527-22.352-15.766-47.039-33.172-49.449-55.777-1.3711 0.67969-2.875 1-4.4609 1.0273-2.8477 0.054688-5.8242-0.90625-8.6992-2.3164l-26.984-13.477-0.42188 0.69922c-2.6602 4.5156-6.4414 6.4219-10.789 6.6562-3.7695 0.20703-7.8477-0.98047-11.883-2.7617l-0.054687-0.027344v0.007812l-26.617-12.266c-1.8672-0.85938-2.6875-3.0703-1.8203-4.9453 0.85938-1.8672 3.0703-2.6875 4.9453-1.8203l26.617 12.266v0.007813c3.0352 1.3438 5.9844 2.2305 8.4375 2.1016 1.8945-0.10156 3.5547-0.95312 4.75-2.9766l1.8477-3.043c0.054687-0.14844 0.11328-0.30859 0.1875-0.45703 0.16797-0.34375 0.39062-0.65234 0.64453-0.91406l46.5-76.551c1.5508-2.5469 1.8008-4.6094 1.0273-6.2891-0.93359-2.0352-3.2578-3.9375-6.5977-5.7773l-64.297-35.449c-1.8008-0.98828-2.4648-3.2578-1.4766-5.0586 0.98828-1.8008 3.2578-2.4648 5.0586-1.4766l64.297 35.449c4.6953 2.5859 8.1094 5.5898 9.7734 9.2227 1.8281 3.9766 1.5391 8.3438-1.4375 13.234l-1.4453 2.3906 27.469 16.438c3.4062 2.0352 5.8633 4.3789 7.0273 7.168 1.2695 3.043 1.0078 6.2891-1.1758 9.8203 16.418 11.945 36.672 18.93 56.094 25.609 21.16 7.2891 41.367 14.242 55.578 27.105 3.2773 2.957 5.1797 5.4336 6.3086 8.168 10.828 3.7617 23.352 9.082 34.059 15.008 9.2305 5.1055 17.145 10.707 21.605 16.203 0.085937 0.10156 0.16016 0.21484 0.23438 0.31641 2.4062 3.5742 1.5312 13.074 0.38281 25.379-1.2227 13.121-2.7617 29.699-1.4648 43.727 0.066406 0.69922 0.14062 1.3242 0.21484 1.8672 0.67969 5.4336 0.86719 6.8984-5.4688 9.2695zm-98.652 22.008c0.12109-0.33594 0.28906-0.66406 0.51172-0.96094 0.54297-0.73828 1.3086-1.2227 2.1367-1.418 2.0898-2.2852 3.957-5.3281 5.207-8.3984 2.3047-5.6562 3.0977-12.227 2.8359-18.824-0.28125-7.1484-1.8125-14.316-4.0234-20.402-3.957-0.4375-7.793-2.1289-11.238-4.4414-5.3281-3.5859-9.7617-8.8008-12.02-12.918-1.0742-0.24219-2.1094-0.51172-3.0898-0.77344l-0.72656-0.19531c-5.9531-1.625-9.332-2.5469-12.805-9.0625-2.9492-5.543-3.668-12.48-4.293-18.547l-0.12109-1.1289c-0.52344-2.9297-0.31641-6.4219 0.96875-9.6133-32.703 3.3711-49.121-4.75-60.312-16.008 8.3359 13.57 25.469 25.656 41.355 36.855 13.328 9.3984 25.824 18.199 32.379 27.328l0.046875 0.046875c9.3789 13.504 11.93 28.438 14.355 42.652 0.53125 3.125 1.0625 6.2148 1.6719 9.3047h-0.007813c0.76563 3.6602 1.7812 5.8984 2.9297 7.0469 0.50391 0.50391 1.0352 0.69922 1.5781 0.65234 0.78516-0.066406 1.6875-0.48438 2.6523-1.168zm12.207-2.8828 47.555-2.1758 14.27-42.129c-0.19531-4.0039-0.17578-8.3438 0.074219-12.562 0.36328-6.1797 1.2148-12.227 2.5586-16.762-2.1641-1.5859-6.0117-2.7734-10.211-4.0703-5.0312-1.5508-10.48-3.2305-15.148-6.168 0.16016 5.5352 0.007812 10.984-0.73828 16.25-1.0156 7.2148-3.1445 14.055-7.0938 20.289-7.5039 11.863-19.73 5.543-28.785 0.66406 1.8945 6.0469 3.1641 12.844 3.4336 19.648 0.29688 7.6055-0.64453 15.25-3.3594 21.926-0.69922 1.7266-1.5781 3.4531-2.5664 5.1055zm69.254-44.305c0.039062 0.22266 0.046875 0.45703 0.039062 0.69141 0.24219 4.043 0.73828 7.543 1.5039 9.8477 0.046874 0.14844 0.11328 0.31641 0.17578 0.51172 1.0352 2.8945 2.6133 5.3867 4.6953 6.8125 1.8477 1.2617 4.2734 1.6719 7.3086 0.66406 0.085937-0.027344 0.1875-0.066406 0.32812-0.11328 1.3711-0.49609 1.3438-0.71094 1.2305-1.5664-0.074219-0.61719-0.16797-1.3164-0.24219-2.1289-1.3633-14.699 0.21484-31.648 1.4648-45.062 1.0156-10.938 1.793-19.301 1.1367-20.188-0.039063-0.046874-0.085938-0.09375-0.12109-0.14062-3.8281-4.7305-10.977-9.7266-19.422-14.402-9.0156-4.9922-19.48-9.5664-29.035-13.086 0.019531 0.96094 0.007812 1.9883 0 3.0977-0.054688 5.6016-0.09375 10.258-0.027344 14.941 0.039063 3.2656 0.12891 6.5898 0.30859 10.34 3.9961 5.0195 11.32 7.2812 17.836 9.2852 4.2578 1.3086 8.2227 2.5312 11.301 4.4336 0.67969-0.86719 1.3984-1.6328 2.1094-2.3047 1-0.95312 2.0156-1.7539 2.9102-2.4258 1.6445-1.2305 3.9766-0.89453 5.207 0.74609 1.2305 1.6445 0.89453 3.9766-0.74609 5.207-0.67188 0.50391-1.4453 1.1211-2.2383 1.875-0.72656 0.69141-1.4297 1.4766-2.0078 2.3516-1.9336 2.9297-3.1641 10.414-3.6289 18.48-0.24219 4.1445-0.26953 8.3711-0.074218 12.16zm-4.6758 15.102-10.781 31.828c-0.47656 1.4102-1.7812 2.4531-3.3711 2.5195l-48.43 2.2109 39.07 28.711v0.007813c1.2031 0.88672 1.8008 2.4453 1.3906 3.9766l-12.871 46.777 39.395-28.297c1.2148-0.87891 2.8945-0.96094 4.2109-0.09375l40.508 26.691-14.664-45.965c-0.59766-1.4844-0.17578-3.2461 1.1367-4.293l37.883-30.258-48.488-0.26172c-1.5195-0.007812-2.9492-0.95312-3.4922-2.4648l-7.0742-19.648c-2.8477-0.11328-5.3672-1.0273-7.5703-2.5312-3.043-2.082-5.3281-5.2656-6.8867-8.9219zm-164.75 60.574 18.816 53.238 56.438 1.4453c2.0547 0.046874 3.6758 1.7539 3.6289 3.8086-0.027344 1.1758-0.59766 2.2109-1.4648 2.8672l-44.809 34.348 16.07 54.145c0.57812 1.9688-0.55078 4.043-2.5195 4.6211-1.168 0.34375-2.3633 0.09375-3.2656-0.57812l-46.406-31.938-46.508 32.004c-1.6875 1.168-4.0117 0.74609-5.1797-0.95312-0.66406-0.96094-0.8125-2.1289-0.50391-3.1641l16.07-54.145-44.809-34.348c-1.6328-1.25-1.9492-3.5859-0.69922-5.2188 0.75781-0.98828 1.9023-1.4922 3.0508-1.4648l56.254-1.4375 18.816-53.238c0.67969-1.9414 2.8086-2.957 4.75-2.2773 1.1094 0.39062 1.9141 1.25 2.2773 2.2773zm12.637 58.137-16.156-45.707-16.156 45.707h-0.007812c-0.50391 1.418-1.8281 2.4453-3.4258 2.4844l-48.469 1.2422 38.492 29.492c1.1836 0.90625 1.7656 2.4922 1.3164 4.0117l-13.805 46.5 39.883-27.449c1.2422-0.89453 2.957-0.96094 4.2852-0.039062l39.945 27.488-13.766-46.387c-0.48438-1.4648-0.019531-3.1367 1.2773-4.125l38.492-29.492-48.234-1.2305c-1.5859 0.066406-3.1094-0.90625-3.6602-2.4844zm-102.99-347.8c-1.1211-0.63281-1.5039-2.0625-0.86719-3.1836 0.63281-1.1211 2.0625-1.5039 3.1836-0.86719l26.973 15.477c1.1211 0.63281 1.5039 2.0625 0.86719 3.1836-0.63281 1.1211-2.0625 1.5039-3.1836 0.86719zm2.6133 10.574c-1.1211-0.63281-1.5039-2.0625-0.86719-3.1836 0.63281-1.1211 2.0625-1.5039 3.1836-0.86719l15.102 8.6602c1.1211 0.63281 1.5039 2.0625 0.86719 3.1836-0.63281 1.1211-2.0625 1.5039-3.1836 0.86719zm72.531 108.14c11.891 16.883 24.844 34.625 73.688 27.348 0.625-0.09375 1.4297-0.25391 2.2695-0.41016 5.4219-1.0625 12.402-2.4258 16.164 3.3984 1.8867 2.9219 2.4375 6.5977 3.0039 10.379 0.64453 4.2734 1.3164 8.7461 4.0234 10.172 1.8203 0.96094 2.5195 3.2109 1.5586 5.0312-0.96094 1.8203-3.2109 2.5195-5.0312 1.5586-3.707-1.9492-5.4961-5.0977-6.543-8.6328l-3.1094 2.5586c-0.39062 0.32812-0.98047 0.26953-1.3086-0.12891-0.32813-0.39062-0.26953-0.98047 0.12891-1.3086l3.7812-3.1094c-0.09375-0.42188-0.17578-0.84766-0.26172-1.2773l-2.9297 2.418c-0.39063 0.32812-0.98047 0.26953-1.3086-0.12891-0.32812-0.39062-0.26953-0.98047 0.12891-1.3086l3.7539-3.0898c-0.085937-0.55859-0.16797-1.1094-0.25391-1.6719-0.44922-2.9766-0.87891-5.8633-1.8945-7.4375-0.93359-1.4375-4.5742-0.84766-7.6914-0.25391-0.16797 0.10156-0.35547 0.19531-0.54297 0.28125-1.8945 0.78516-3.1445 2.1016-3.8906 3.5938-0.98828 1.9883-1.1562 4.293-0.80078 6.1797 0.019531 0.12109 0.039062 0.24219 0.046874 0.36328l0.12891 1.2305c0.55078 5.3672 1.1953 11.508 3.4805 15.801 1.9688 3.6953 4.2109 4.3125 8.168 5.3867l0.72656 0.19531c1.2891 0.35547 2.668 0.69141 4.1172 0.98828 0.1875 0.019531 0.375 0.066406 0.55859 0.11328 2.9414 0.57031 6.1211 0.94141 9.2578 0.83203 4.4531-0.16016 8.8203-1.3164 12.199-4.3398 9.8555-11.93 8.4453-28.68 7.3555-41.664l-0.11328-1.2969c-0.16797-2.0547 1.3633-3.8555 3.4141-4.0234 2.0547-0.16797 3.8555 1.3633 4.0234 3.4141l0.11328 1.2969c1.2148 14.375 2.7812 32.938-9.2109 47.227-0.10156 0.12109-0.20703 0.23438-0.31641 0.33594-4.9102 4.5625-11.043 6.2734-17.191 6.4961-0.98047 0.039062-1.9492 0.027344-2.9219-0.007812 1.6992 1.9023 3.7695 3.7812 6.0469 5.3125 3.7148 2.5 7.9336 4.0039 11.797 2.8672 0.35547-0.19531 0.73828-0.33594 1.1289-0.42188 0.26953-0.12109 0.47656-0.21484 0.59766-0.28125 19.125-10.004 17.062-37.379 15.598-56.887l-0.027344-0.34375c-0.14844-2.0547 1.3906-3.8438 3.4453-3.9961 2.0547-0.14844 3.8438 1.3906 3.9961 3.4453l0.027344 0.34375c1.5039 20.066 3.5742 47.664-15.148 61.273 5.9844 3.0508 12.863 5.6484 16.148 0.44922 3.3242-5.2539 5.1328-11.117 6.0117-17.34 0.90625-6.4297 0.83984-13.289 0.42969-20.301-0.074218-1.2227-0.14062-2.4062-0.19531-3.5547-0.007813-0.066406-0.007813-0.14062-0.007813-0.20703-0.20703-4.1523-0.30859-7.8867-0.35547-11.637-0.054687-4.7422-0.019531-9.4453 0.027344-15.094 0.039063-3.5742 0-6.0664-0.66406-8.0547-0.63281-1.875-1.9805-3.6602-4.6289-6.0664-13.031-11.797-32.562-18.516-53.012-25.562-19.844-6.832-40.516-13.953-57.773-26.434l-30.184 45.957z"/>
  <use x="70" y="560.140625" xlink:href="#w"/>
  <use x="70.035156" y="560.140625" xlink:href="#e"/>
  <use x="70.058594" y="560.140625" xlink:href="#b"/>
  <use x="70.089844" y="560.140625" xlink:href="#a"/>
  <use x="70.121094" y="560.140625" xlink:href="#d"/>
  <use x="70.144531" y="560.140625" xlink:href="#b"/>
  <use x="70.175781" y="560.140625" xlink:href="#l"/>
  <use x="70.222656" y="560.140625" xlink:href="#k"/>
  <use x="70.257812" y="560.140625" xlink:href="#j"/>
  <use x="70.304688" y="560.140625" xlink:href="#i"/>
  <use x="70.34375" y="560.140625" xlink:href="#v"/>
  <use x="70.359375" y="560.140625" xlink:href="#b"/>
  <use x="70.390625" y="560.140625" xlink:href="#f"/>
  <use x="70.425781" y="560.140625" xlink:href="#a"/>
  <use x="70.472656" y="560.140625" xlink:href="#h"/>
  <use x="70.507812" y="560.140625" xlink:href="#a"/>
  <use x="70.539062" y="560.140625" xlink:href="#f"/>
  <use x="70.570312" y="560.140625" xlink:href="#a"/>
  <use x="70.601562" y="560.140625" xlink:href="#g"/>
  <use x="70.628906" y="560.140625" xlink:href="#c"/>
  <use x="70.664062" y="560.140625" xlink:href="#u"/>
  <use x="70.691406" y="560.140625" xlink:href="#g"/>
  <use x="70.722656" y="560.140625" xlink:href="#t"/>
  <use x="70.75" y="560.140625" xlink:href="#a"/>
  <use x="70" y="560.1875" xlink:href="#s"/>
  <use x="70.019531" y="560.1875" xlink:href="#e"/>
  <use x="70.042969" y="560.1875" xlink:href="#c"/>
  <use x="70.074219" y="560.1875" xlink:href="#r"/>
  <use x="70.140625" y="560.1875" xlink:href="#d"/>
  <use x="70.164062" y="560.1875" xlink:href="#q"/>
  <use x="70.195312" y="560.1875" xlink:href="#b"/>
  <use x="70.242188" y="560.1875" xlink:href="#p"/>
  <use x="70.28125" y="560.1875" xlink:href="#c"/>
  <use x="70.316406" y="560.1875" xlink:href="#o"/>
  <use x="70.347656" y="560.1875" xlink:href="#f"/>
  <use x="70.398438" y="560.1875" xlink:href="#h"/>
  <use x="70.433594" y="560.1875" xlink:href="#e"/>
  <use x="70.453125" y="560.1875" xlink:href="#c"/>
  <use x="70.488281" y="560.1875" xlink:href="#n"/>
  <use x="70.503906" y="560.1875" xlink:href="#b"/>
  <use x="70.535156" y="560.1875" xlink:href="#m"/>
  <use x="70.5625" y="560.1875" xlink:href="#d"/>
 </g>
</svg>
