<?xml version="1.0" encoding="UTF-8"?>
<svg width="106px" height="105px" version="1.1" viewBox="0 0 700 700" xmlns="http://www.w3.org/2000/svg" xmlns:xlink="http://www.w3.org/1999/xlink">
 <g>
  <path d="m349.3 41.988c-41.402 0-74.898 33.496-74.898 74.898v204.23c0 41.402 33.496 74.898 74.898 74.898h1.3984c41.402 0 74.898-33.496 74.898-74.898v-204.23c0-41.402-33.496-74.898-74.898-74.898zm0 8.3984h1.3984c36.895 0 66.5 29.605 66.5 66.5v204.23c0 36.895-29.605 66.5-66.5 66.5h-1.3984c-36.895 0-66.5-29.605-66.5-66.5v-204.23c0-36.895 29.605-66.5 66.5-66.5zm-208.25 102.55c-1.3594 0.19922-2.5352 1.0469-3.1484 2.2773-16.586 32.453-25.898 69.215-25.898 108.15 0 38.93 9.3125 75.695 25.898 108.15v-0.003906c1.0625 2.0781 3.6094 2.9023 5.6875 1.8398 2.0781-1.0625 2.8984-3.6094 1.8359-5.6875-15.992-31.359-25.02-66.641-25.02-104.21 0-37.586 9.0273-72.996 25.023-104.3 0.75391-1.4102 0.64062-3.1211-0.28516-4.4219-0.92969-1.2969-2.5117-1.957-4.0898-1.7031zm416.33 0c-1.2969 0.28125-2.3867 1.1562-2.9375 2.3594-0.55078 1.207-0.5 2.6016 0.13672 3.7656 16 31.305 25.023 66.711 25.023 104.3 0 37.586-9.0273 72.996-25.023 104.3-0.73438 0.98438-1 2.2422-0.72656 3.4414 0.27344 1.1992 1.0586 2.2148 2.1484 2.7852 1.0859 0.57031 2.3711 0.63672 3.5117 0.17969 1.1406-0.45703 2.0234-1.3945 2.4141-2.5586 16.586-32.453 26.074-69.215 26.074-108.15 0-38.93-9.4883-75.695-26.074-108.15v0.003906c-0.83203-1.6953-2.6914-2.6289-4.5469-2.2773zm-387.97 28.559-0.003906 0.003906c-1.3945 0.23047-2.5781 1.1523-3.1484 2.4492-10.543 24.348-16.449 51.23-16.449 79.453 0 28.23 5.8984 55.094 16.449 79.453 0.39844 1.082 1.2227 1.957 2.2852 2.4141 1.0625 0.45703 2.2656 0.45312 3.3242-0.003907 1.0625-0.45703 1.8867-1.332 2.2812-2.418 0.39453-1.0859 0.32812-2.2852-0.19141-3.3203-10.113-23.34-15.75-49.066-15.75-76.125 0-27.047 5.6445-52.793 15.75-76.125 0.59375-1.4102 0.375-3.0312-0.57031-4.2305-0.94531-1.2031-2.4688-1.793-3.9805-1.5469zm359.45 0-0.003907 0.003906c-1.2305 0.26172-2.2773 1.0625-2.8516 2.1836-0.57812 1.1172-0.62109 2.4336-0.12109 3.5898 10.105 23.332 15.75 49.078 15.75 76.125 0 27.059-5.6367 52.785-15.75 76.125v0.003906c-0.51953 1.0312-0.58984 2.2344-0.19141 3.3164 0.39453 1.0859 1.2188 1.9609 2.2812 2.4219 1.0586 0.45703 2.2617 0.45703 3.3242 0s1.8867-1.3281 2.2852-2.4141c10.551-24.355 16.449-51.219 16.449-79.453 0-28.219-5.9062-55.102-16.449-79.453-0.78906-1.8359-2.7695-2.8633-4.7266-2.4492zm-326.03 33.074v0.003906c-1.6562 0.20703-3.0273 1.375-3.5 2.9727-4.4062 14.504-6.8242 29.93-6.8242 45.852 0 15.918 2.418 31.344 6.8242 45.852 0.67578 2.2227 3.0234 3.4766 5.25 2.8008 2.2227-0.67969 3.4766-3.0273 2.7969-5.25-4.168-13.711-6.4766-28.301-6.4766-43.398s2.3086-29.688 6.4766-43.398v-0.003906c0.42969-1.3672 0.13281-2.8633-0.78906-3.9609-0.91797-1.0977-2.3359-1.6484-3.7578-1.4648zm293.3 0-0.003906 0.003906c-1.2383 0.14844-2.3438 0.84375-3.0195 1.8906-0.67578 1.0508-0.85156 2.3438-0.48047 3.5352 4.168 13.711 6.3008 28.301 6.3008 43.398 0 15.102-2.1328 29.688-6.3008 43.398-0.67578 2.2227 0.57812 4.5742 2.8008 5.25 2.2227 0.67969 4.5742-0.57422 5.25-2.7969 4.4062-14.504 6.6484-29.93 6.6484-45.852 0-15.918-2.2422-31.344-6.6484-45.852-0.58203-1.9727-2.5078-3.2305-4.5508-2.9727zm-266.18 107.63-0.003907 0.003907c-1.1133 0.042968-2.1641 0.53125-2.918 1.3516s-1.1523 1.9062-1.1055 3.0234c0 66.664 53.148 120.51 119.88 122.67-0.003906 0.058594-0.003906 0.11719 0 0.17578v60.199h-115.33c-0.28906-0.03125-0.58203-0.03125-0.875 0-1.1133 0.11328-2.1406 0.66406-2.8477 1.5352-0.70703 0.87109-1.0391 1.9883-0.92188 3.1016 0.11328 1.1172 0.66797 2.1406 1.543 2.8477 0.87109 0.70312 1.9883 1.0352 3.1016 0.91406h239.05c1.125 0.015625 2.207-0.41797 3.0078-1.207 0.80078-0.78906 1.2539-1.8672 1.2539-2.9922s-0.45312-2.2031-1.2539-2.9922c-0.80078-0.78906-1.8828-1.2227-3.0078-1.207h-115.33v-60.199-0.17578c66.73-2.1602 119.88-56.012 119.88-122.67 0.015626-1.125-0.41797-2.2109-1.2109-3.0117-0.78906-0.80078-1.8672-1.25-2.9883-1.25-1.125 0-2.2031 0.44922-2.9922 1.25-0.78906 0.80078-1.2266 1.8867-1.2109 3.0117 0 63.488-51.473 114.45-115.67 114.45-64.203 0-115.67-50.961-115.67-114.45h-0.003907c0.050782-1.1758-0.39453-2.3164-1.2227-3.1484-0.83203-0.83203-1.9766-1.2773-3.1523-1.2266z"/>
 </g>
</svg>
